<?xml version="1.0" encoding="UTF-8" standalone="no"?>
<!-- Created with Inkscape (http://www.inkscape.org/) -->

<svg
   width="210mm"
   height="297mm"
   viewBox="0 0 210 297"
   version="1.1"
   id="svg1"
   inkscape:version="1.1.2 (b8e25be833, 2022-02-05)"
   sodipodi:docname="megaphone.svg"
   xmlns:inkscape="http://www.inkscape.org/namespaces/inkscape"
   xmlns:sodipodi="http://sodipodi.sourceforge.net/DTD/sodipodi-0.dtd"
   xmlns="http://www.w3.org/2000/svg"
   xmlns:svg="http://www.w3.org/2000/svg">
  <sodipodi:namedview
     id="namedview1"
     pagecolor="#ffffff"
     bordercolor="#000000"
     borderopacity="0.25"
     inkscape:showpageshadow="2"
     inkscape:pageopacity="0.0"
     inkscape:pagecheckerboard="0"
     inkscape:deskcolor="#d1d1d1"
     inkscape:document-units="mm"
     inkscape:zoom="0.64994424"
     inkscape:cx="719.29247"
     inkscape:cy="240.78989"
     inkscape:window-width="1920"
     inkscape:window-height="991"
     inkscape:window-x="-9"
     inkscape:window-y="-9"
     inkscape:window-maximized="1"
     inkscape:current-layer="layer2"
     inkscape:pageshadow="2"
     showgrid="false" />
  <defs
     id="defs1" />
  <g
     inkscape:label="Layer 1"
     inkscape:groupmode="layer"
     id="layer1"
     style="display:none">
    <path
       style="fill:#000000;fill-opacity:1;fill-rule:nonzero;stroke:none;stroke-width:0.264583"
       id="path38"
       d="m 44.804345,108.06358 c -0.217334,1.56123 -0.294335,3.13571 -0.346707,4.70951 -0.05454,2.03202 0.582446,3.93469 1.274516,5.81171 0.353928,0.82046 0.76226,1.62399 1.292215,2.34592 0.05612,0.0722 0.104066,0.14889 0.18652,0.17477 0.156314,0.13908 0.277678,0.26871 0.478473,0.33946 0.116779,0.0365 0.236963,0.0589 0.358084,0.0743 0.05246,0.008 0.104056,0.003 0.157906,0.003 0.833327,0.0419 1.646513,-0.0514 2.467367,-0.18808 2.464692,-0.31061 4.900964,-0.79837 7.351646,-1.19663 1.512075,-0.30131 3.017869,-0.62682 4.548315,-0.82063 0.596302,-0.079 1.194749,-0.0315 1.767244,-0.22567 0.236305,-0.0873 0.470451,-0.18129 0.698487,-0.28851 0.07018,-0.0443 0.146079,-0.0414 0.22705,-0.0418 0.08387,-2.6e-4 0.167711,0.002 0.251536,0.005 0.0033,0.002 0.01984,-8e-4 0.02043,-8e-4 0.184941,-0.1186 0.369882,-0.23719 0.554826,-0.35579 0.05094,-0.0305 0.203044,-0.12316 0.152829,-0.0915 -0.668065,0.42141 0.220249,-0.0337 0.380486,-0.11305 0.539269,-0.22039 1.063258,-0.46794 1.614594,-0.65899 0.620146,-0.27032 1.157822,-0.51143 1.326636,-1.19343 0.127749,-1.19768 0.09819,-2.40811 0.09976,-3.61127 -0.01066,-1.36131 -0.134647,-2.73928 -0.392968,-4.07737 -0.229015,-0.89569 -0.399983,-1.79476 -0.477647,-2.71566 -0.01524,-0.73898 -0.254968,-1.44578 -0.391056,-2.1671 -0.09111,-0.43798 -0.118007,-0.88213 -0.128564,-1.32797 -0.0064,-0.47693 -0.0042,-0.95395 -0.0013,-1.4309 0.02977,-0.48824 -0.605472,-0.45746 -0.950166,-0.48022 -0.984033,0.0844 -1.932168,0.3706 -2.895717,0.56899 -1.523,0.24668 -3.042496,0.51173 -4.559366,0.79368 -1.722527,0.385 -3.335628,1.13268 -4.952979,1.82039 -1.061008,0.46698 -2.147011,0.87635 -3.199137,1.36284 -0.59494,0.29604 -1.237727,0.48394 -1.869795,0.68568 -0.814443,0.29756 -1.559679,0.73706 -2.307434,1.16904 0.866116,-0.39486 -0.934828,0.32949 -1.034597,0.35516 -0.333709,0.0907 -0.676857,0.11969 -1.020758,0.13507 0.03909,0.0425 -0.1638,-0.007 -0.129077,-0.0349 0.24089,-0.1939 0.742776,-0.41702 0.99599,-0.52948 1.569987,-0.69728 1.425853,-0.61864 3.061777,-1.25531 0,0 0.04133,-0.0323 0.04133,-0.0323 v 0 c -1.134367,0.39716 -3.792752,1.15564 -4.538456,2.08772 -0.0344,0.043 0.134107,0.11037 0.148958,0.0715 0.345773,-0.01 0.690684,-0.0398 1.026858,-0.126 0.700096,-0.17177 1.312156,-0.50283 1.938229,-0.85967 -0.07761,0.0444 -0.312375,0.174 -0.232836,0.13317 0.53979,-0.27713 1.060456,-0.59089 1.636313,-0.79331 0.633942,-0.20247 1.279851,-0.38769 1.876986,-0.68295 1.05405,-0.49334 2.145451,-0.9019 3.2096,-1.37331 1.616405,-0.68792 3.226985,-1.43771 4.946885,-1.82961 1.515811,-0.28058 3.033414,-0.54962 4.556114,-0.79012 0.960565,-0.19341 1.903466,-0.47553 2.881487,-0.57532 0.319694,0.0194 0.932445,-0.0399 0.902817,0.41715 -4e-5,0.47732 -0.0024,0.95466 0.0019,1.43198 0.0063,0.45069 0.02365,0.90215 0.115208,1.34514 0.137945,0.71898 0.376819,1.42368 0.390353,2.1612 0.08093,0.92224 0.250264,1.82235 0.484005,2.7187 0.25727,1.33396 0.383463,2.70569 0.398727,4.06288 -5.3e-4,1.19795 0.03238,2.40389 -0.09842,3.59605 -0.04651,0.17487 -0.05906,0.29251 -0.163074,0.44082 -0.128727,0.18355 -0.302188,0.19959 0.136263,-0.0141 0.146778,-0.0716 -0.594325,0.33218 -0.431853,0.23123 -0.552823,0.19021 -1.077462,0.43712 -1.618728,0.65425 -0.47261,0.2297 -0.975871,0.38542 -1.400784,0.71656 0.16174,-0.0653 0.465143,-0.13397 0.31169,-0.13886 -0.08495,-0.002 -0.169939,-0.004 -0.254937,-0.004 -0.08319,-7e-5 -0.171172,-0.023 -0.242382,0.0251 -0.227835,0.111 -0.462727,0.20701 -0.699661,0.29672 -0.572622,0.202 -1.166765,0.16797 -1.768007,0.23916 -1.536618,0.19759 -3.048953,0.52258 -4.566224,0.83198 -2.447555,0.39742 -4.879404,0.89432 -7.343021,1.1899 -0.815314,0.13596 -1.621949,0.23176 -2.449695,0.18451 -0.05735,0.001 -0.109617,-8e-5 -0.162541,0.007 -0.12015,-0.01 -0.239094,-0.0304 -0.355529,-0.0621 -0.204708,-0.0633 -0.324517,-0.18861 -0.476594,-0.33692 -0.06292,-0.0387 -0.12977,-0.0178 -0.198451,-0.13762 -0.557464,-0.69561 -0.945666,-1.51294 -1.311108,-2.31981 -0.695224,-1.87133 -1.327245,-3.76903 -1.267219,-5.79686 0.05368,-1.57425 0.128518,-3.15049 0.359357,-4.71059 z" />
    <path
       style="fill:#000000;fill-opacity:1;fill-rule:nonzero;stroke:none;stroke-width:0.264583"
       id="path39"
       d="m 66.322296,103.51395 c 0.0045,-0.17245 0.0087,-0.34491 0.01352,-0.51736 0.0097,-0.34797 0.0159,-0.69605 0.02857,-1.04393 0.01664,-0.45707 0.05181,-0.62172 -0.02299,-0.58188 -0.207034,0.11025 -0.350213,0.31213 -0.525319,0.46819 -0.649592,3.33966 -0.651137,6.96407 0.624014,10.17486 0.235823,0.5938 0.617681,1.11862 0.926521,1.67793 1.154094,1.04572 2.065435,1.60458 3.434111,0.42373 0.496885,-0.4287 1.015482,-0.88513 1.305161,-1.47399 0.590833,-1.20105 0.345189,-2.98086 0.295764,-4.21094 -0.119398,-0.70493 -0.810805,-4.05398 -2.323629,-3.68747 -1.103106,0.26725 -1.745681,1.20658 -1.912244,2.25807 -0.09485,0.59878 0.04624,1.21161 0.06935,1.81742 0.343733,1.40274 0.706434,3.32811 2.168654,4.07882 0.275492,0.14144 0.6277,0.22742 0.920414,0.12632 1.382226,-0.47741 1.354767,-1.07994 1.864273,-2.26058 0.408498,-2.42323 0.08042,-4.8507 -0.751189,-7.15482 -0.312735,-0.86648 -1.125032,-2.75714 -2.065264,-3.32811 -0.361611,-0.21959 -0.840718,-0.0956 -1.26108,-0.14332 -0.552755,0.39614 -1.213237,0.67422 -1.658269,1.18844 -0.42034,0.48569 -0.654491,1.11556 -0.861864,1.7235 -1.007364,2.95317 -0.48015,6.04343 0.04904,9.02066 0,0 0.05082,-0.0268 0.05082,-0.0268 v 0 c -0.352378,-3.60783 -0.839311,-7.7272 1.280636,-10.92507 0.173225,-0.2613 0.451898,-0.43466 0.677847,-0.65199 0.416996,0.0331 0.889084,-0.11041 1.250995,0.0994 0.948795,0.54996 1.768604,2.43402 2.081252,3.29125 0.836025,2.29228 1.164304,4.71112 0.737626,7.12196 -0.06516,0.14396 -0.613545,1.66075 -0.964787,1.74086 -1.97911,0.45142 -2.816553,-2.86693 -3.074852,-4.12827 -0.02175,-1.84624 -0.270857,-1.64752 0.583575,-3.18309 0.08003,-0.14383 0.185394,-0.33994 0.349763,-0.34856 1.752399,-0.0919 2.045735,2.52572 2.339809,3.60264 0.08702,1.93024 0.280347,2.3433 -0.275532,4.16493 -0.363045,1.18969 -1.546942,2.06317 -2.820755,1.53471 -0.441245,-0.18306 -0.75775,-0.58193 -1.136626,-0.8729 -0.314484,-0.5526 -0.705638,-1.06813 -0.943454,-1.6578 -1.292325,-3.20436 -1.250309,-6.85043 -0.555352,-10.17547 -0.08783,-0.0238 -0.177049,-0.10001 -0.263507,-0.0716 -0.04803,0.0158 0.05806,0.0866 0.06622,0.13647 0.0213,0.13031 0.0158,0.26363 0.02077,0.39557 0.01913,0.50591 0.02405,1.01245 0.04209,1.5184 z" />
    <path
       style="fill:#000000;fill-opacity:1;fill-rule:nonzero;stroke:none;stroke-width:0.264583"
       id="path40"
       d="m 49.405563,102.45965 c -0.233831,0.59377 -0.230957,1.38371 -0.746252,1.83166 -0.02604,0.0226 0.04718,-0.0735 0.02551,-0.10034 -0.04912,-0.0609 -0.134887,-0.0792 -0.202332,-0.11876 -0.548042,-0.78474 -0.470228,-1.31264 0.101793,-2.04864 2.074307,-1.61893 4.617982,-2.536748 7.054929,-3.464777 1.557483,-0.515723 3.100136,-1.078359 4.605407,-1.731597 0.61346,-0.349671 0.827203,0.09766 1.221861,0.582475 0.792705,1.210897 1.566056,2.43504 2.306251,3.678819 0.181216,0.52814 0.953696,0.1234 0.386631,-0.31765 0,0 -0.09791,0.0561 -0.09791,0.0561 v 0 c 0.03818,0.59353 0.675984,0.43605 0.135234,0.0154 -0.769292,-1.229016 -1.518888,-2.471679 -2.345915,-3.663275 -0.401897,-0.475729 -0.680783,-0.949304 -1.302221,-0.592381 -1.50387,0.65899 -3.054141,1.210098 -4.608362,1.736241 -2.670521,1.017476 -5.449149,2.056205 -7.705603,3.851235 -0.567523,0.77597 -0.560961,1.27769 -0.01294,2.06643 0.957813,0.61331 1.299107,-1.36895 1.459323,-1.91028 z" />
    <path
       style="fill:#000000;fill-opacity:1;fill-rule:nonzero;stroke:none;stroke-width:0.264583"
       id="path41"
       d="m 68.194181,101.17468 c 1.028062,-0.3429 2.082403,-0.57177 3.156463,-0.70481 0.969756,-0.0698 1.918817,-0.29385 2.850407,-0.56171 1.078494,-0.320103 2.191305,-0.508688 3.275052,-0.804701 0.887788,-0.239768 1.777084,-0.463658 2.661301,-0.717767 0.694277,-0.171489 1.346737,-0.456488 2.043737,-0.620638 0.473273,-0.09412 0.983096,-0.325747 1.253416,-0.742604 0.04115,-0.05267 0.03371,-0.09576 0.02899,-0.150738 -0.137478,-0.164706 -0.438195,0.219768 -0.244301,0.365054 0,0 0.01778,-0.0092 0.01778,-0.0092 v 0 c 0.1958,-0.377682 -0.117374,0.0934 -0.248298,-0.08687 -0.0086,0.01791 -0.03516,0.07611 -0.05241,0.09894 -0.115128,0.158546 -0.345406,0.268959 -0.20832,0.220152 0.805543,-0.286801 0.0053,-0.05837 -0.122996,-0.01789 -0.701736,0.163094 -1.357011,0.445984 -2.053326,0.624604 -0.886642,0.256416 -1.777524,0.483775 -2.668275,0.723763 -1.085308,0.306824 -2.204807,0.490487 -3.28698,0.813151 -0.937291,0.274479 -1.892048,0.512214 -2.869117,0.585564 -1.080321,0.13402 -2.140503,0.36324 -3.174868,0.70731 z" />
    <path
       style="fill:#000000;fill-opacity:1;fill-rule:nonzero;stroke:none;stroke-width:0.264583"
       id="path42"
       d="m 75.181464,99.72473 c 1.663068,-0.633413 3.349575,-1.20382 5.050716,-1.726488 2.008913,-0.586849 3.971695,-1.30574 5.859955,-2.207744 1.560316,-0.787297 3.060049,-1.703081 4.493709,-2.702312 1.090399,-0.825399 2.106295,-1.749663 3.107892,-2.679665 1.128418,-1.151552 2.300745,-2.256822 3.432045,-3.405413 1.031761,-1.050417 2.068983,-2.090856 3.007599,-3.225887 0.69393,-0.744855 1.43441,-1.44467 2.08931,-2.224963 0.15012,-0.193889 0.4949,-0.530167 0.0286,-0.502163 0,0 -0.0879,0.05958 -0.0879,0.05958 v 0 c -0.003,0.278945 -0.23569,0.415274 -0.38513,0.631235 -0.65412,0.777515 -1.39436,1.474488 -2.081544,2.222037 -0.935749,1.128829 -1.967958,2.166008 -2.991755,3.214896 -1.128988,1.147911 -2.300623,2.251213 -3.427505,3.401322 -0.996916,0.924798 -2.005348,1.846593 -3.091331,2.666381 -1.21004,0.841359 -2.456865,1.639072 -3.778673,2.293615 -1.908627,0.921789 -3.896474,1.651807 -5.925002,2.265568 -1.726724,0.539227 -3.442304,1.117566 -5.124638,1.783065 z" />
    <path
       style="fill:#000000;fill-opacity:1;fill-rule:nonzero;stroke:none;stroke-width:0.264583"
       id="path43"
       d="m 100.2546,82.483522 c -1.363202,3.834403 -1.872948,7.914058 -2.433343,11.926713 -0.669666,5.39324 -1.165665,10.801325 -1.112803,16.238145 0.123901,3.08082 0.390739,6.23979 1.762842,9.0544 0.184628,0.37874 0.418943,0.73116 0.628414,1.09674 0.769271,1.00558 1.7827,2.10181 3.18793,1.9323 0.96313,-0.11619 1.39806,-0.63063 2.19842,-1.20063 2.54068,-3.13076 3.13182,-7.25094 3.65557,-11.12455 0.40322,-3.80728 0.52103,-7.63632 0.22627,-11.456107 -0.17946,-2.325624 -0.39112,-3.557336 -0.71704,-5.851882 -0.58861,-3.919033 -1.18316,-7.923118 -2.9953,-11.489116 -0.81852,-1.25794 -1.93299,-2.430103 -3.40458,-2.875248 -1.628541,0.124417 -2.280955,1.849575 -2.778899,3.152285 -0.711229,1.860704 -0.837247,2.589035 -1.350629,4.567608 -1.373142,5.843749 -1.820259,11.861522 -1.974662,17.8476 0.139399,3.98427 0.08519,8.47137 1.321692,12.30421 0.206319,0.63954 0.498626,1.24807 0.74794,1.87211 1.434893,2.63645 3.026998,4.35324 5.911588,5.25874 1.57044,0.24957 2.89893,-0.13922 3.65408,-1.63114 0.0543,-0.16953 0.10859,-0.33906 0.16289,-0.5086 0,0 -0.31402,0.14504 -0.31402,0.14504 v 0 c -0.089,0.18344 -0.178,0.36689 -0.267,0.55033 -0.77975,1.26776 -1.27609,1.35011 -2.80701,1.15195 -2.88508,-0.87658 -4.470498,-2.58418 -5.903323,-5.21047 -0.249108,-0.62164 -0.542557,-1.22729 -0.747321,-1.8649 -1.237435,-3.85324 -1.175636,-8.28847 -1.321194,-12.2892 0.150987,-5.98648 0.593947,-12.004542 1.993096,-17.843867 0.516906,-1.960049 0.654164,-2.729404 1.378339,-4.570999 0.20996,-0.533932 0.43965,-1.062408 0.716012,-1.565193 0.171144,-0.311354 0.427271,-0.568481 0.620631,-0.866548 0.0183,-0.02828 -0.0247,-0.08939 0.007,-0.100885 0.1522,-0.05523 0.31986,-0.0505 0.4798,-0.07575 1.46793,0.406215 2.58013,1.59548 3.41221,2.817416 1.83529,3.540432 2.46683,7.528229 3.06067,11.434572 0.33206,2.322404 0.53656,3.490992 0.71946,5.846027 0.29633,3.815527 0.18618,7.642557 -0.22331,11.445437 -0.52787,3.86929 -1.11812,7.99631 -3.69068,11.10198 -0.16665,0.15563 -0.2997,0.35781 -0.49994,0.46688 -1.65142,0.89954 -3.12233,-0.31365 -4.070015,-1.59369 -1.88337,-3.26547 -2.291273,-6.37491 -2.41263,-10.11445 -0.05645,-5.4346 0.439463,-10.840795 1.112886,-16.231318 0.567092,-4.020111 1.087151,-8.110135 2.488339,-11.941273 z" />
    <path
       style="fill:#000000;fill-opacity:1;fill-rule:nonzero;stroke:none;stroke-width:0.264583"
       id="path44"
       d="m 97.763892,100.8298 c 0.103021,1.87498 0.631278,4.39515 2.440418,5.40242 0.29598,0.16479 0.65624,0.16845 0.98436,0.25267 0.30454,-0.1094 0.64712,-0.14465 0.91362,-0.32821 0.43172,-0.29734 0.83878,-0.65488 1.13831,-1.08508 0.78152,-1.12244 0.79918,-2.93787 0.51931,-4.20694 -0.10185,-0.46185 -0.31514,-0.891851 -0.4727,-1.337775 -1.16531,-1.838507 -2.32667,-2.425792 -4.125471,-0.65904 -0.734774,0.721686 -0.940215,1.784035 -1.23348,2.706935 -0.03202,0.47176 -0.136789,0.94419 -0.09607,1.41528 0.119314,1.3805 1.177576,2.90816 2.752841,2.5066 0.32125,-0.0819 0.59183,-0.29897 0.88775,-0.44845 0.40358,-0.38824 0.90722,-0.69411 1.21076,-1.16472 0.96377,-1.49424 0.54493,-4.547912 -0.37175,-5.980115 -0.22473,-0.351126 -0.56718,-0.611134 -0.85076,-0.916701 -0.32912,-0.141791 -0.63405,-0.36543 -0.98736,-0.425376 -0.32807,-0.05566 -0.692767,-0.05163 -0.994267,0.08916 -1.499275,0.7001 -1.813618,1.720572 -2.231888,3.153285 0,0 0.268259,-0.125449 0.268259,-0.125449 v 0 c 0.19155,-0.469522 0.994378,-2.467777 1.486614,-2.673702 0.303152,-0.126823 0.653979,-0.162441 0.979122,-0.114829 0.34896,0.0511 0.65259,0.267708 0.97888,0.40156 0.28358,0.298117 0.62587,0.549789 0.85075,0.894345 1.27578,1.954772 1.14986,4.541902 0.0755,6.530412 -0.29056,0.15555 -0.55444,0.37725 -0.87165,0.46663 -1.55483,0.43811 -2.605107,-1.05983 -2.714322,-2.42719 -0.03739,-0.46815 0.06939,-0.93672 0.104085,-1.40509 0.249351,-0.76198 0.828214,-2.786371 1.763777,-3.096312 1.32657,-0.439481 2.02421,0.543954 2.66114,1.526088 0.15987,0.440074 0.37384,0.864104 0.47962,1.320214 0.33835,1.45896 0.1317,2.80455 -0.48451,4.14655 -0.10402,0.22654 -0.18471,0.49041 -0.38181,0.64302 -0.25642,0.19854 -0.60407,0.23611 -0.90611,0.35417 -0.33307,-0.0733 -0.69573,-0.0642 -0.99922,-0.21981 -1.121766,-0.57499 -1.896284,-1.99822 -2.25127,-3.14628 -0.173037,-0.55961 -0.246134,-1.55291 -0.30576,-2.15598 z" />
    <path
       style="fill:#000000;fill-opacity:1;fill-rule:nonzero;stroke:none;stroke-width:0.264583"
       id="path45"
       d="m 75.98756,114.03343 c -1.266899,0.13555 -2.459302,0.64431 -3.605406,1.17675 -0.207417,0.11416 -1.338339,0.59422 -1.271741,0.75216 1.026549,0.12414 2.092206,-0.17983 3.101618,-0.35284 1.75527,-0.26638 3.526303,-0.47044 5.303181,-0.4206 1.587053,0.0687 3.158104,0.33556 4.713671,0.6452 1.43455,0.19954 2.697417,0.84545 3.945324,1.53523 1.176131,0.63431 2.315708,1.33466 3.501118,1.95172 1.165767,0.52991 2.355794,1.00339 3.543239,1.48304 1.326724,0.53026 2.554303,1.23216 3.736329,2.02613 0.555482,0.37568 1.100797,0.82184 1.794427,0.80587 0,0 0.16689,-0.11103 0.16689,-0.11103 v 0 c -0.16306,-0.54722 -1.096423,-0.59877 -1.44671,-1.02419 -1.187757,-0.79299 -2.415956,-1.50403 -3.748075,-2.03355 -1.190722,-0.47594 -2.382194,-0.94934 -3.554296,-1.46885 -1.188413,-0.61301 -2.328939,-1.31367 -3.506948,-1.94612 -1.256417,-0.68973 -2.522937,-1.34595 -3.966774,-1.54199 -1.562894,-0.31168 -3.142708,-0.57254 -4.737193,-0.64002 -1.789959,-0.0485 -3.572864,0.16458 -5.340495,0.43529 -1.025107,0.17475 -2.05186,0.41438 -3.095276,0.41964 0.160034,-0.0829 0.209818,-0.10949 -0.203959,0.11872 -0.494125,0.27251 1.285759,-0.74674 0.837271,-0.45188 1.182124,-0.57162 2.40796,-1.13446 3.726535,-1.2784 z" />
    <path
       style="fill:#000000;fill-opacity:1;fill-rule:nonzero;stroke:none;stroke-width:0.264583"
       id="path46"
       d="m 52.390955,119.13597 c 1.772203,-1.39927 3.978193,-2.05545 6.09763,-2.73276 2.363597,-0.69871 4.693755,-1.50223 7.037932,-2.26211 0.885907,-0.21836 1.305327,-0.80269 1.252905,0.36888 0.05185,1.07076 -0.46487,1.08529 -1.358873,1.46061 -2.449981,1.20248 -4.996278,2.14367 -7.572182,3.03245 -1.018394,0.30431 -2.009119,0.68997 -3.000632,1.07031 -0.121703,0.0467 -1.020548,0.3196 -1.056097,0.60157 -0.01614,0.12795 0.248266,0.0699 0.372398,0.1049 3.206692,-0.24818 6.359292,-1.08445 9.471734,-1.87291 1.239557,-0.32367 2.477114,-0.65666 3.701479,-1.03427 0.343169,-0.17499 -0.01146,0.60683 -0.0388,0.7202 -0.105521,0.30112 -0.121875,0.63377 -0.229841,0.93388 -0.01151,0.032 -0.08582,0.10417 -0.05901,0.0832 0.592936,-0.46296 0.434401,-0.27096 0.670234,-0.88827 0.120412,-0.46687 1.144747,-1.76475 0.666158,-2.15254 -0.197115,-0.0649 -0.369967,0.0257 -0.491974,-0.16806 -0.07605,-0.16487 -0.308121,-0.20871 -0.465561,-0.17026 -0.182494,0.18317 -0.415023,0.32745 -0.547481,0.54951 -0.244983,0.41071 -0.25908,2.07833 -0.317196,2.51018 -0.235725,1.7517 -0.236657,1.54232 -0.667734,3.38567 -1.103982,4.10325 -3.136644,7.83025 -5.439521,11.36768 -0.738119,0.81706 -1.22132,2.06539 -2.247088,2.58922 0,0 -0.07178,0.0576 -0.07178,0.0576 v 0 c 1.21738,-0.62966 1.971389,-1.74806 2.760337,-2.84045 2.31594,-3.53848 4.329515,-7.28462 5.446691,-11.38978 0.354984,-1.51936 0.622012,-2.98543 0.794198,-4.53371 0.03047,-0.27397 0.05151,-0.54919 0.09224,-0.82183 0.02701,-0.18079 0.17149,-0.36466 0.11077,-0.53707 -0.03438,-0.0976 -0.206227,-0.0178 -0.309337,-0.0267 0.138768,-0.0746 0.354272,-0.0419 0.444074,0.10503 0.148198,0.2052 0.288565,0.14239 0.514305,0.1731 0.429254,0.28714 -0.582263,1.70105 -0.680747,2.09255 -0.151452,0.38896 -0.403296,0.58556 0.161227,0.51066 0.148709,-0.0197 0.191177,-0.93421 0.284943,-1.03003 0.03819,-0.15394 0.386987,-1.01387 -0.03498,-0.78671 -1.232782,0.42119 -2.502565,0.72738 -3.75565,1.07931 -3.10756,0.79636 -6.257258,1.62823 -9.460306,1.885 -0.170453,-0.0203 -0.664134,0.0398 -0.51325,-0.0421 1.065649,-0.57808 2.535852,-0.86108 3.648798,-1.33222 2.593062,-0.90013 5.160055,-1.84521 7.622219,-3.06933 1.234057,-0.52229 1.642325,-0.48206 1.891634,-1.78365 0.155104,-1.23155 -0.446278,-0.67088 -1.280293,-0.4406 -2.348791,0.77067 -4.686305,1.57688 -7.057419,2.27753 -2.349164,0.74794 -4.76314,1.52842 -6.714103,3.09565 z" />
    <path
       style="fill:#000000;fill-opacity:1;fill-rule:nonzero;stroke:none;stroke-width:0.264583"
       id="path47"
       d="m 58.775724,120.93958 c 0.427175,2.6904 0.03737,5.36733 -0.554887,7.99557 -0.71038,3.03174 -1.929852,5.894 -3.17976,8.73278 -0.346176,0.85727 -0.731075,1.70354 -1.0146,2.58493 -0.12413,0.25242 0.220032,0.24799 0.298976,-0.20459 0.01868,-0.10706 -0.209642,-0.0183 -0.636169,0.11974 -1.248762,0.51761 -1.937314,1.31395 -2.136527,2.6242 0.06813,0.20169 0.09436,0.42282 0.20438,0.60507 0.669447,1.10895 2.162295,1.48744 3.320974,1.76981 2.288254,0.26989 3.008206,-0.68041 3.908972,-2.64202 1.557954,-4.4031 3.236865,-8.7618 4.874993,-13.13586 0.664618,-2.02247 1.516867,-3.99732 2.052265,-6.06177 0.04901,-0.23798 0.122806,-0.47996 0.07645,-0.72226 -0.147442,0.18542 -0.341805,0.34175 -0.442325,0.55626 -0.07223,0.15413 -0.03137,0.33915 -0.05617,0.50755 -0.03747,0.25439 -0.07514,0.50918 -0.130559,0.76027 -0.278759,1.26291 -0.742357,2.46403 -1.192032,3.67278 -1.459347,3.57914 -3.431421,6.88967 -5.775614,9.95196 -0.882761,0.99398 -1.630307,2.12399 -2.612861,3.02945 -0.285699,0.26328 -0.206099,0.30234 -0.347337,0.16715 -0.02082,-0.8841 0.376214,-1.6805 0.245176,-2.57577 -0.381367,-0.72335 -1.373698,-0.0735 -1.846167,0.20101 -0.742137,0.51554 -1.345644,1.43329 -1.051319,2.3731 0.06679,0.21326 0.205735,0.39678 0.308599,0.59518 0.978623,1.02919 2.175103,0.82733 2.992941,-0.34735 0.101047,-0.14514 0.06206,-0.34821 0.0931,-0.52231 -0.430332,-1.56312 -1.766202,-0.79019 -2.556552,0.0688 -0.197133,0.21425 -0.281602,0.50967 -0.422402,0.7645 -0.363972,1.04582 -0.325184,2.31765 0.873744,2.7937 0.233542,0.0927 0.495122,0.0862 0.742685,0.12923 0,0 0.09238,-0.0628 0.09238,-0.0628 v 0 c -1.366044,-0.73692 -1.741697,-1.5538 -1.220703,-3.07799 0.144634,-0.2506 0.304583,-0.49297 0.433909,-0.75181 0.03148,-0.063 -0.01027,-0.16265 0.04487,-0.20644 0.664134,-0.52732 1.372698,-0.20144 1.537132,0.57423 -0.03016,0.16497 -0.08919,0.32721 -0.09049,0.4949 -5.29e-4,0.0758 0.136861,0.15561 0.08505,0.21096 -0.652955,0.69741 -1.70665,0.30181 -2.236727,-0.27855 -0.10197,-0.19337 -0.236056,-0.37297 -0.305908,-0.58012 -0.304184,-0.90207 0.250348,-1.78314 0.967806,-2.28826 0.374054,-0.26518 1.143886,-0.48158 1.416666,-0.0151 0.171969,0.98546 -0.231785,1.61027 -0.176112,2.55201 0.397,-0.0446 0.624083,-0.38942 0.887841,-0.66728 0.82273,-0.86675 1.650019,-1.73205 2.379208,-2.68125 2.367748,-3.09398 4.390194,-6.40989 5.894239,-10.01524 0.473242,-1.21988 0.950822,-2.42861 1.245701,-3.70705 0.0205,-0.0889 0.236294,-1.24048 0.209751,-1.28682 -0.07183,-0.12538 -0.281385,-0.0659 -0.422077,-0.0989 0.0406,0.22677 -0.0784,0.47673 -0.09547,0.69912 -0.525611,2.05125 -1.3344,4.0232 -1.997379,6.03044 -1.627124,4.38171 -3.312528,8.74189 -4.893093,13.14035 -0.853885,1.8198 -0.982337,2.41904 -3.113297,2.19035 -1.137227,-0.27819 -2.632339,-0.63808 -3.282876,-1.7376 -0.104759,-0.17706 -0.125431,-0.39188 -0.188145,-0.58782 0.144441,-0.86629 0.509625,-1.74785 1.311257,-2.10713 0.32626,-0.11544 1.105643,-0.121 1.19548,-0.43913 0.295899,-0.87128 0.641974,-1.72455 0.99877,-2.57242 1.232569,-2.84098 2.449094,-5.69949 3.149661,-8.72879 0.58793,-2.62568 0.969822,-5.31002 0.499721,-7.99201 z" />
    <path
       style="fill:#000000;fill-opacity:1;fill-rule:nonzero;stroke:none;stroke-width:0.264583"
       id="path48"
       d="m 52.390846,120.53859 c 0.519065,1.29264 1.064342,2.47102 2.266045,3.23518 1.734733,0.74771 3.646715,0.4186 5.449338,0.15177 2.960655,-0.58668 5.787593,-1.6382 8.59129,-2.72748 1.886238,-0.72699 3.704466,-1.56771 5.386607,-2.69385 0.523275,-0.4478 1.254292,-0.79341 1.50871,-1.46846 0.109323,-0.47325 0.105577,-0.96174 0.0997,-1.44458 -0.0019,-0.11401 -0.0032,-0.22804 -0.01937,-0.3408 -0.464312,-0.20994 -1.027684,0.81238 -1.23608,1.1589 -0.192919,0.24896 -0.22161,0.532 -0.301834,0.8215 0,0 0.216281,-0.098 0.216281,-0.098 v 0 c 0.215807,-0.32252 0.467354,-0.61989 0.64099,-0.9692 0.373621,-0.60233 0.829834,-0.68996 0.102587,-0.5881 -0.01765,0.002 0.05311,-0.0432 0.03562,-0.0398 0.004,0.11118 0.01296,0.22368 0.01445,0.3354 0.0084,0.47564 0.0109,0.95823 -0.109233,1.42199 -0.279773,0.64681 -0.985385,0.98899 -1.50159,1.4263 -1.366533,0.91054 -2.882032,1.51888 -4.400862,2.13651 -2.806819,1.09496 -5.635106,2.15603 -8.599731,2.74929 -1.799254,0.26853 -3.705571,0.59469 -5.449729,-0.10694 -1.251619,-0.75328 -1.75969,-1.85435 -2.321372,-3.16621 z" />
    <path
       style="fill:#000000;fill-opacity:1;fill-rule:nonzero;stroke:none;stroke-width:0.264583"
       id="path49"
       d="m 72.738887,96.286689 c -1.092817,0.628904 -2.073095,1.441805 -3.033157,2.255245 -0.548013,0.546259 -1.36983,0.846714 0.11027,0.826254 2.878627,-0.593167 5.6291,-1.757378 8.323001,-2.913385 2.892128,-1.346057 5.715074,-2.88997 8.326672,-4.72689 1.572538,-1.239446 3.116123,-2.529094 4.540401,-3.938188 1.005832,-0.974405 1.956975,-2.004097 2.925641,-3.015271 0.81538,-0.954333 1.692664,-1.853702 2.492677,-2.822054 0.340923,-0.535146 0.830275,-0.92851 1.260358,-1.380992 0.266213,-0.290949 0.589796,-0.519772 0.892093,-0.76957 0.228537,-0.296468 0.53903,-0.519279 0.843992,-0.732041 -0.05232,0.02178 0.194051,-0.116658 0.143245,-0.09155 -0.686289,0.339114 -0.826481,0.488889 -1.313635,1.051094 -2.191935,2.446391 -4.224784,5.027962 -6.348436,7.53282 -2.440932,3.190621 -5.509443,5.749499 -8.714425,8.127942 -1.914935,1.359074 -3.845571,2.69694 -5.913387,3.813492 -0.962351,0.430287 -1.788208,1.080275 -2.647903,1.675475 -0.207266,0.10466 -0.309745,0.22488 -0.387873,0.43175 0,0 0.0573,-0.0241 0.0573,-0.0241 v 0 c 0.262954,-0.21967 0.52745,-0.43893 0.830191,-0.60341 0.926121,-0.61023 0.794346,-0.69137 1.685489,-1.107106 2.404089,-1.296882 4.686874,-2.789018 6.897359,-4.393057 3.202326,-2.38228 6.264182,-4.948365 8.705541,-8.138092 2.133004,-2.514787 4.175426,-5.106945 6.391714,-7.55011 0.138509,-0.156411 0.274238,-0.315325 0.415525,-0.46923 0.08136,-0.08863 0.358135,-0.201073 0.252233,-0.258162 -0.176845,-0.09533 -0.463587,0.118001 -0.626441,0.22847 -0.303157,0.216847 -0.600684,0.448098 -0.839803,0.736455 -0.294775,0.260109 -0.631511,0.468151 -0.884799,0.772903 -0.43462,0.442553 -0.897469,0.854284 -1.242155,1.378437 -0.793385,0.96343 -1.658734,1.863283 -2.472269,2.808777 -0.966312,1.007441 -1.909424,2.038249 -2.913367,3.008508 -1.421249,1.400577 -2.951165,2.692752 -4.52242,3.921194 -2.338165,1.640131 -4.844478,3.041441 -7.443631,4.224327 -2.70115,1.164611 -5.456872,2.321298 -8.338055,2.947614 -1.215359,0.05341 -0.865786,-0.04493 -0.209481,-0.664136 0.914632,-0.812122 1.858975,-1.612511 2.931054,-2.210318 z" />
    <path
       style="fill:#000000;fill-opacity:1;fill-rule:nonzero;stroke:none;stroke-width:0.264583"
       id="path50"
       d="m 70.938598,113.69921 c 2.122694,-0.022 4.197091,0.52953 6.261584,0.95598 2.283577,0.55313 4.557858,1.14169 6.843263,1.68953 1.561766,0.46326 3.030884,1.17572 4.601765,1.6072 1.40461,0.32615 2.716559,0.89 4.019781,1.49375 1.305478,0.66331 2.545392,1.45843 3.905003,2.00823 0.851356,0.3358 1.686449,0.74317 2.611663,0.74899 0,0 0.16878,-0.11612 0.16878,-0.11612 v 0 c -0.640675,-0.53169 -1.581277,-0.54601 -2.29915,-0.95521 -1.362381,-0.5433 -2.602134,-1.33884 -3.906821,-2.00338 -1.304785,-0.60663 -2.615301,-1.18092 -4.024379,-1.50238 -1.577562,-0.42426 -3.053567,-1.13188 -4.619045,-1.59754 -2.297367,-0.5386 -4.584153,-1.11604 -6.877992,-1.66738 -2.076021,-0.42528 -4.164105,-0.9747 -6.298001,-0.94244 z" />
    <path
       style="fill:#000000;fill-opacity:1;fill-rule:nonzero;stroke:none;stroke-width:0.264583"
       id="path51"
       d="m 97.61444,95.711131 c 1.903642,-0.340263 2.65649,0.06806 3.65546,1.717005 1.13666,2.134195 1.12295,4.204564 0.59712,6.502824 -0.65754,1.98603 -1.86518,3.66183 -3.493755,4.95272 -0.632645,0.45985 -1.392423,0.64788 -2.144705,0.83855 1.039384,-0.43443 2.254398,-2.25658 2.848422,-3.15606 1.433058,-2.59443 1.320488,-4.86607 0.426755,-7.605282 -0.419555,-1.016762 -0.74377,-1.545105 -1.561449,-2.249302 0,0 -0.214199,0.127463 -0.214199,0.127463 v 0 c 0.38907,0.827405 0.925343,1.547389 1.280081,2.394461 0.897358,2.72045 1.0024,4.97276 -0.425149,7.54893 -0.576252,0.86575 -1.168299,1.65347 -1.904799,2.39105 -0.260591,0.26097 -0.581834,0.45859 -0.830828,0.73065 -0.03582,0.0391 -0.03514,0.10011 -0.05272,0.15016 1.100976,-0.28163 2.150756,-0.68533 3.077393,-1.37081 1.613523,-1.30425 2.809303,-2.98986 3.456723,-4.97502 0.51687,-2.31272 0.51727,-4.388317 -0.62505,-6.532003 -1.0158,-1.68116 -1.78313,-2.100172 -3.723269,-1.740625 z" />
    <path
       style="fill:#000000;fill-opacity:1;fill-rule:nonzero;stroke:none;stroke-width:0.264583"
       id="path52"
       d="m 115.40262,92.597337 c 2.65165,-1.886141 5.14992,-3.992809 7.51422,-6.226853 0,0 -0.0291,0.01188 -0.0291,0.01188 v 0 c -2.51251,2.191136 -5.03046,4.392475 -7.75425,6.320271 z" />
    <path
       style="fill:#000000;fill-opacity:1;fill-rule:nonzero;stroke:none;stroke-width:0.264583"
       id="path53"
       d="m 119.70009,99.937346 c 0.23772,-0.02299 0.47741,-0.03079 0.71318,-0.06897 2.1164,-0.342794 4.19252,-1.002811 6.23861,-1.617334 3.43708,-1.032291 3.58257,-1.101289 7.08229,-2.236232 3.01868,-1.107835 6.10141,-2.056101 9.09657,-3.229319 0.96964,-0.379815 1.91787,-0.842357 2.87117,-1.26482 0,0 0.017,-0.0132 0.017,-0.0132 v 0 c -0.7274,0.09262 -1.98915,0.784524 -2.51989,0.99033 -3.00776,1.166307 -6.08573,2.150742 -9.11822,3.248194 -4.62084,1.494756 -9.25645,3.117689 -14.04976,3.959161 z" />
    <path
       style="fill:#000000;fill-opacity:1;fill-rule:nonzero;stroke:none;stroke-width:0.264583"
       id="path54"
       d="m 123.6574,110.10351 c 4.4699,0.83255 8.9163,1.7868 13.36772,2.712 1.72192,0.31765 3.42389,0.7543 5.15402,1.02675 0,0 0.12324,-0.0836 0.12324,-0.0836 v 0 c -1.40875,-0.85832 -3.38665,-0.66101 -4.9132,-1.19652 -4.46462,-0.91726 -8.91703,-1.91371 -13.40946,-2.6841 z" />
    <path
       style="fill:#000000;fill-opacity:1;fill-rule:nonzero;stroke:none;stroke-width:0.264583"
       id="path55"
       d="m 121.43958,118.57714 c 2.1206,2.3533 4.60666,4.35642 7.00132,6.42393 1.0292,0.85381 0.5273,0.48128 1.49103,1.13713 0,0 0.22153,-0.13826 0.22153,-0.13826 v 0 c -0.75775,-0.80831 -0.32734,-0.385 -1.31172,-1.24873 -2.41512,-2.05983 -4.84964,-4.10574 -7.09214,-6.35573 z" />
  </g>
  <g
     inkscape:groupmode="layer"
     id="layer2"
     inkscape:label="Layer 2">
    <g
       id="g894">
      <path
         style="fill:#000000;fill-opacity:1;fill-rule:nonzero;stroke:none;stroke-width:0.315037"
         id="path57"
         d="m 117.18901,75.618518 c -0.65039,0.611699 -1.19614,1.303864 -1.68854,2.021884 -0.76949,1.151697 -1.24777,2.416645 -1.64349,3.702972 -0.41994,1.530353 -0.74289,3.08037 -1.07389,4.627677 -0.28032,1.46383 -0.49878,2.936984 -0.70096,4.410927 -0.2276,1.824477 -0.54699,3.638099 -0.77969,5.461908 -0.24008,2.35966 -0.42546,4.722844 -0.64335,7.084304 -0.20407,2.25017 -0.2021,4.50891 -0.17308,6.76448 0.0401,2.24886 0.21099,4.49354 0.39204,6.73624 0.14423,1.82795 0.30061,3.65304 0.62024,5.4638 0.34218,1.70243 0.97644,3.34277 1.61352,4.97133 0.60718,1.39372 1.09826,2.82493 1.68624,4.2245 0.42383,1.052 1.00978,2.02845 1.70217,2.95555 0.419,0.55356 0.96844,1.20515 1.73708,1.38692 0.14982,0.0355 0.30838,0.0278 0.46257,0.0417 0.46974,-0.0789 0.53719,-0.0535 0.96037,-0.27532 1.72597,-0.90478 2.05697,-1.04679 3.11862,-2.33284 0.9061,-1.16893 1.55555,-2.47498 2.16459,-3.78303 0.78452,-1.56684 1.37466,-3.19334 1.84276,-4.85548 0.59267,-2.36365 0.76873,-4.7921 0.91434,-7.20496 0.0242,-3.05862 0.0172,-6.11845 -0.0373,-9.17686 -0.0978,-3.09522 -0.52869,-6.17145 -0.99032,-9.237044 -0.53946,-2.980357 -0.9189,-5.980862 -1.37573,-8.971635 -0.067,-0.411196 -0.13705,-0.82198 -0.20074,-1.233584 -0.11898,-0.7691 -0.20688,-1.542041 -0.33673,-2.309735 -0.18294,-1.081596 -0.43805,-2.151944 -0.69596,-3.220635 -0.3006,-1.541345 -0.71868,-3.056845 -1.28071,-4.538041 -0.29757,-0.73298 -0.67344,-1.440584 -1.19989,-2.064263 -0.35768,-0.344078 -0.83255,-0.537536 -1.29905,-0.733878 -0.34505,-0.171283 -0.71351,-0.229015 -1.10363,-0.229308 -1.01196,0.140791 -1.95802,0.69616 -2.64721,1.373812 -0.19554,0.186773 -0.34366,0.423522 -0.5837,0.56743 -0.17436,0.09536 -0.27892,0.252682 -0.44804,0.353594 -0.19034,0.137448 -0.32265,0.353086 -0.45142,0.540275 -0.0251,0.147349 -0.34875,0.562084 -0.34,0.679752 0.004,0.05171 0.0604,0.08842 0.0906,0.132631 0.18084,0.233917 0.11696,0.104434 0.18668,0.390383 0,0 0.16716,-0.06784 0.16716,-0.06784 v 0 c 0.5236,-0.536666 0.24981,-0.271455 0.82279,-0.794458 0.40503,-0.344771 0.62899,-0.609815 0.88016,-1.046917 0.14931,-0.181501 0.28106,-0.37501 0.49531,-0.501956 0.13935,-0.125677 0.28404,-0.245329 0.44141,-0.353079 0.19848,-0.185105 0.36986,-0.390837 0.56314,-0.58019 0.51858,-0.462255 1.34396,-0.75011 -1.219,0.537927 -0.1694,0.08513 0.49878,-0.310201 0.44529,-0.180538 0.36189,-0.04172 0.69192,0.03645 1.01965,0.174352 0.43628,0.176409 0.88098,0.377972 1.23073,0.673635 0.55731,0.579408 0.93553,1.26275 1.2501,1.970055 0.61412,1.447946 1.04904,2.942608 1.38944,4.46079 0.18136,0.713826 0.34778,1.340276 0.50054,2.061646 0.32678,1.543221 0.50057,3.107843 0.80734,4.654098 0.52655,2.966666 0.99991,5.940118 1.50484,8.909695 0.50665,3.054916 0.90979,6.122526 1.00294,9.213186 0.1225,3.04671 0.17152,6.09827 0.0786,9.14617 -0.13726,2.41464 -0.32584,4.84037 -0.96721,7.19745 -0.50174,1.65261 -1.09535,3.28176 -1.87657,4.84778 -0.61621,1.29173 -1.23539,2.59708 -2.15769,3.7433 -0.38641,0.45537 -0.42281,0.53447 -0.87685,0.92936 -0.1516,0.13185 -0.68628,0.38132 -0.47492,0.37615 0.32,-0.008 0.56606,-0.26848 0.85821,-0.38553 0.29815,-0.11946 -1.1117,0.56571 -0.90846,0.3291 -0.14767,0.002 -0.2976,0.0307 -0.44299,0.008 -0.13801,-0.0221 -0.26434,-0.0852 -0.39006,-0.14072 -0.58057,-0.25633 -0.98058,-0.68822 -1.33666,-1.16006 -0.70124,-0.92409 -1.27684,-1.86316 -1.73387,-2.90607 -0.62938,-1.37909 -1.15188,-2.79479 -1.78241,-4.17378 -0.69137,-1.5957 -1.36221,-3.20326 -1.73658,-4.8877 -0.35353,-1.77161 -0.5924,-3.55762 -0.86614,-5.34012 -0.271,-2.22634 -0.42813,-4.45792 -0.462,-6.69798 -0.0781,-2.23515 -0.0316,-4.46881 0.052,-6.70362 0.0823,-2.33004 0.24629,-4.65673 0.42162,-6.982451 0.21588,-1.832777 0.54966,-3.650082 0.81557,-5.477232 0.20182,-1.475081 0.41634,-2.950153 0.71181,-4.412837 0.30531,-1.544573 0.60548,-3.092887 1.04704,-4.611915 0.413,-1.293474 0.93767,-2.558983 1.71266,-3.718071 0.50007,-0.721813 1.04162,-1.428697 1.72492,-2.023687 z" />
      <path
         style="fill:#000000;fill-opacity:1;fill-rule:nonzero;stroke:none;stroke-width:0.315037"
         id="path58"
         d="m 112.33122,97.098147 c 0.77665,-0.382637 -0.38531,0.185124 -0.67244,0.383481 -0.0892,0.06163 0.21255,-0.06903 0.32272,-0.09042 0.33174,-0.06442 0.62142,-0.02214 0.94554,0.04334 0.90965,0.313738 1.5364,1.003722 2.10195,1.682712 0.57751,0.73469 0.98953,1.53934 1.33739,2.37696 0.36267,0.8837 0.60818,1.80063 0.7576,2.73135 0.12137,0.8929 0.11306,1.79389 0.11243,2.69172 0.0297,0.83192 -0.0329,1.66 -0.10185,2.48884 -0.10551,0.95734 -0.30338,1.89675 -0.66594,2.80254 -0.32926,0.70143 -0.7393,1.37311 -1.32087,1.93158 -0.52293,0.41521 -1.08038,0.79327 -1.64002,1.16742 -0.0888,0.052 -0.17962,0.10146 -0.26642,0.1562 -0.22924,0.14449 -0.20969,0.15929 -0.44006,0.28345 -0.0659,0.0355 -0.27041,0.13115 -0.20401,0.0964 1.51432,-0.79172 2.27418,-1.15072 1.4945,-0.77981 -0.27631,0.13827 -0.57855,0.19795 -0.88923,0.23109 -0.19122,0.0123 -0.38291,0.0141 -0.57442,0.009 -0.0551,-0.007 -0.10357,-0.002 -0.15718,0.007 -0.2609,0.1692 -0.50938,0.25874 -0.82392,0.34806 0,0 -0.3829,0.18953 -0.3829,0.18953 v 0 c -0.0872,0.0701 -0.17546,0.13914 -0.26172,0.21017 -0.40418,0.33279 -0.41461,0.16696 -0.31373,0.4085 0.0357,0.0171 0.0794,0.0147 0.12476,0.0126 0.20189,-5.9e-4 0.40385,0.002 0.60557,-0.008 0.33043,-0.0101 0.66108,-0.0518 0.9608,-0.18447 1.11269,-0.46127 2.15001,-1.04804 3.13563,-1.69474 0.55848,-0.37735 1.12034,-0.7574 1.61454,-1.20228 0.53124,-0.58962 0.92924,-1.25806 1.21868,-1.96993 0.34381,-0.92415 0.54012,-1.87983 0.64857,-2.84881 0.0651,-0.83272 0.1264,-1.66403 0.088,-2.49956 -0.0194,-0.89755 -0.067,-1.79524 -0.18714,-2.68706 -0.17718,-0.9342 -0.47997,-1.84201 -0.84363,-2.73152 -0.37091,-0.846738 -0.84335,-1.643537 -1.45284,-2.37521 -0.63682,-0.700299 -1.34115,-1.410472 -2.34145,-1.675558 -1.28712,-0.201929 -2.00356,0.176784 -3.13193,0.926515 z" />
      <path
         style="fill:#000000;fill-opacity:1;fill-rule:nonzero;stroke:none;stroke-width:0.315037"
         id="path59"
         d="m 116.45617,75.997254 c -0.53025,0.36807 -0.98538,0.811285 -1.45288,1.239763 -0.44481,0.465344 -0.85063,0.960977 -1.26657,1.447646 -0.3674,0.474374 -0.70902,0.965408 -1.1065,1.420321 -0.42653,0.569015 -0.97891,1.045979 -1.46156,1.575093 -0.51999,0.551328 -1.01139,1.123168 -1.53483,1.671934 -0.6376,0.568148 -1.26327,1.146336 -1.88834,1.725794 -0.80341,0.752225 -1.62458,1.488945 -2.44767,2.223859 -0.96796,0.789185 -1.86151,1.646892 -2.75307,2.50386 -0.97335,0.975652 -2.0388,1.871176 -3.094593,2.773932 -1.112431,0.973659 -2.260013,1.914019 -3.397021,2.864455 -1.015491,0.861566 -2.012587,1.73921 -3.050852,2.578892 -0.900248,0.702042 -1.855025,1.344596 -2.825919,1.965721 -0.180632,0.109786 -0.360555,0.220496 -0.541899,0.329336 -0.181349,0.10883 -0.362416,0.21809 -0.546167,0.32365 -0.191737,0.11014 -0.779475,0.42225 -0.580193,0.3234 3.19277,-1.583737 1.028099,-0.54403 0.334356,-0.22888 -1.065743,0.45636 -2.11138,0.94877 -3.175165,1.40866 -1.333953,0.55509 -2.674258,1.09637 -4.033723,1.59965 -1.286529,0.47938 -2.58771,0.92518 -3.89157,1.36494 -1.081219,0.34648 -2.178472,0.65166 -3.274092,0.9594 -0.516681,0.12943 -1.037918,0.24101 -1.543707,0.40262 -0.979872,0.30278 -2.009079,0.73826 -2.617711,1.49806 -0.334238,0.64089 -0.581988,1.31363 -0.834744,1.98261 -0.364411,0.92037 -0.543082,1.87838 -0.654047,2.84585 -0.157751,1.19161 0.0024,2.2706 0.300964,3.43057 0.277307,1.04675 0.782368,2.03016 1.365791,2.96603 0.351671,0.57232 0.661623,1.16391 1.028775,1.72848 0.280122,0.45938 0.586313,0.91415 0.941757,1.33067 0.161301,0.17885 0.269238,0.3846 0.45647,0.54405 0.222477,0.15679 0.600243,-0.14813 0.770552,-0.23701 0,0 0.934521,-0.53068 0.934521,-0.53068 v 0 c 0.05444,-0.0319 0.505384,-0.24203 0.568031,-0.36675 0.0068,-0.0136 -0.04161,-0.0722 -0.04283,-0.0739 -0.149676,-0.179 -0.277733,-0.36942 -0.442412,-0.53836 -0.377343,-0.38286 -0.684699,-0.82873 -0.963381,-1.27181 -0.343856,-0.57736 -0.668458,-1.16369 -1.050644,-1.7226 -0.612361,-0.89383 -1.107465,-1.85509 -1.38309,-2.87759 -0.116973,-0.48969 -0.191095,-0.73737 -0.251061,-1.23421 -0.08647,-0.71645 -0.03287,-1.43796 0.03374,-2.15346 0.115639,-0.95591 0.320923,-1.89486 0.687275,-2.80196 0.269301,-0.66727 0.507758,-1.35977 0.952498,-1.95432 0.786782,-0.93257 -3.033719,1.50156 -1.883343,0.90081 0.515327,-0.2016 1.053152,-0.34014 1.598036,-0.46281 1.114936,-0.31126 2.222954,-0.64454 3.328625,-0.98118 1.31666,-0.44177 2.630676,-0.8886 3.925672,-1.38002 1.351698,-0.49665 2.689059,-1.02149 4.015143,-1.57053 1.077652,-0.45895 2.13166,-0.95936 3.205324,-1.42534 1.926151,-0.85108 3.788186,-1.82679 5.544102,-2.934644 0.96096,-0.625225 1.915312,-1.260277 2.791296,-1.980648 1.007102,-0.834982 1.97165,-1.709025 2.970065,-2.552279 1.125787,-0.951321 2.268991,-1.886208 3.372741,-2.858144 1.04096,-0.900939 2.0889,-1.796661 3.04791,-2.769265 0.88676,-0.857718 1.8009,-1.691652 2.74941,-2.495069 0.81131,-0.738055 1.62308,-1.47578 2.42748,-2.219864 0.62161,-0.580689 1.26852,-1.139422 1.87162,-1.735579 0.49414,-0.550786 0.96814,-1.115918 1.48157,-1.652812 0.47201,-0.513498 0.97614,-1.005916 1.3865,-1.561944 0.31529,-0.460276 0.62363,-0.924732 0.97564,-1.363867 0.37089,-0.458775 0.70492,-0.943414 1.12196,-1.37044 0.43734,-0.418709 0.87678,-0.835798 1.36849,-1.204549 z" />
      <path
         style="fill:#000000;fill-opacity:1;fill-rule:nonzero;stroke:none;stroke-width:0.315037"
         id="path60"
         d="m 72.619809,122.32153 c 0.09947,0.0358 0.195329,0.0811 0.298426,0.10754 0.324832,0.0832 0.722327,0.11765 1.050966,0.14345 0.835002,0.0655 1.673975,0.068 2.511362,0.0796 1.767581,0.0196 3.535235,0.0395 5.302953,0.0451 1.547529,0.002 3.093906,-0.004 4.640456,0.0496 1.88808,0.0844 3.765181,0.27248 5.636919,0.50297 1.378513,0.16673 2.739387,0.40484 4.084776,0.71887 1.05469,0.26038 2.065081,0.64979 3.072304,1.02867 1.039609,0.34836 2.011799,0.8297 3.015589,1.24775 0.83278,0.38404 1.7266,0.63172 2.60726,0.90846 0.9567,0.33398 1.90683,0.68416 2.8596,1.02787 0.78949,0.24786 1.56419,0.52773 2.32982,0.82894 0.38006,0.14804 0.74114,0.33414 1.08015,0.54695 0.19392,0.12279 0.33519,0.2913 0.4896,0.4495 0.14189,0.15019 0.2687,0.31056 0.40277,0.46664 0.1417,0.15088 0.27635,0.30638 0.41624,0.45875 0.17767,0.17416 0.33667,0.3607 0.52599,0.5254 0.15595,0.15666 0.33546,0.29587 0.52803,0.41614 0.17274,0.064 0.35598,0.0615 0.53085,0.12648 0.19012,0.0358 0.39116,0.056 0.58702,0.0769 0.20369,-0.0155 0.40463,0.0403 0.59672,0.098 0.18163,-0.0154 0.25421,0.067 0.36501,0.17876 0.0764,0.1471 0.24135,0.12649 0.3872,0.15314 0.10538,0.0921 0.27581,0.0391 0.39974,0.008 0,0 0.0637,-0.0363 0.0637,-0.0363 v 0 c 0.086,-0.0927 0.2276,-0.19788 0.1718,-0.32793 -0.0194,-0.10822 0.0229,-0.21309 -0.0774,-0.31122 -0.10638,-0.0962 -0.20798,-0.15896 -0.19474,-0.30398 -0.11696,-0.11726 -0.3227,-0.10799 -0.35326,-0.25589 -0.0915,-0.11239 -0.23972,-0.12132 -0.3481,-0.21604 -0.10865,-0.0686 -0.19066,-0.16597 -0.29614,-0.23443 -0.17321,-0.108 -0.24214,-0.30093 -0.39531,-0.42873 -0.14198,-0.18712 -0.27686,-0.38037 -0.44882,-0.54716 -0.11902,-0.16757 -0.26085,-0.31872 -0.39909,-0.47422 -0.13599,-0.16297 -0.26534,-0.33002 -0.40608,-0.48908 -0.17389,-0.15881 -0.28905,-0.36369 -0.497,-0.49506 -0.3477,-0.23458 -0.74665,-0.40753 -1.13998,-0.57186 -0.78654,-0.28287 -1.57282,-0.56622 -2.37853,-0.80401 -0.95544,-0.34133 -1.90168,-0.69991 -2.85692,-1.04046 -0.875,-0.27555 -1.76073,-0.52817 -2.59614,-0.8931 -1.01696,-0.4006 -1.98985,-0.8904 -3.02971,-1.2465 -1.0151,-0.37926 -2.024132,-0.78998 -3.083723,-1.05901 -1.384841,-0.30791 -2.791625,-0.50953 -4.206443,-0.67226 -1.875026,-0.21212 -3.748359,-0.44418 -5.638191,-0.52453 -1.552677,-0.056 -3.104716,-0.0748 -4.658714,-0.0476 -1.795928,0.009 -3.591907,0.0343 -5.38788,0.0144 -1.273863,-0.0235 -2.585914,0.016 -3.831819,-0.24742 z" />
      <path
         style="fill:#000000;fill-opacity:1;fill-rule:nonzero;stroke:none;stroke-width:0.315037"
         id="path61"
         d="m 113.41501,131.47478 c 0.35045,0.14888 0.66132,0.35024 0.97163,0.5556 0.12141,0.10495 0.24459,0.21205 0.35167,0.32949 0.0695,0.10608 0.13795,0.21238 0.24914,0.28935 0.23719,-0.0274 0.0661,0.002 0.47588,-0.19433 0,0 0.4037,-0.22522 0.4037,-0.22522 v 0 c 0.36074,-0.22775 0.26938,-0.10833 0.37844,-0.27162 -0.0803,-0.0935 -0.17192,-0.1757 -0.22763,-0.2839 -0.12099,-0.1319 -0.27044,-0.23957 -0.41966,-0.34605 -0.36225,-0.15088 -0.67676,-0.37753 -1.05145,-0.50825 z" />
      <path
         style="fill:#000000;fill-opacity:1;fill-rule:nonzero;stroke:none;stroke-width:0.315037"
         id="path62"
         d="m 112.85062,131.8122 c 0.39758,0.2624 0.85629,0.43099 1.27302,0.66685 0.20313,0.12219 0.43723,0.22882 0.61397,0.38334 0.14212,0.0796 0.20998,0.20545 0.30219,0.32262 0.0908,0.12568 0.19272,0.24036 0.32044,0.33711 0.18691,0.11515 0.38177,0.21802 0.57687,0.32141 0.17338,0.0964 0.36518,0.16375 0.55944,0.21857 0.33052,0.0946 0.53056,0.0978 0.86612,0.0213 0,0 0.22215,-0.11618 0.22215,-0.11618 v 0 c 0.0769,-0.0794 0.19424,-0.16645 0.21062,-0.28319 0.006,-0.048 -0.0502,-0.0868 -0.0622,-0.1339 -0.0433,-0.17072 0.0336,-0.0179 -0.0621,-0.17673 -0.14438,-0.11002 -0.2934,-0.19318 -0.46593,-0.26344 -0.18943,-0.10394 -0.38124,-0.19937 -0.56151,-0.31747 -0.13074,-0.0655 -0.21145,-0.1855 -0.30017,-0.29081 -0.0917,-0.13097 -0.1747,-0.26059 -0.32657,-0.34391 -0.19768,-0.16705 -0.48674,-0.24599 -0.72173,-0.36265 -0.46833,-0.19877 -0.97469,-0.3237 -1.41208,-0.58046 z" />
      <path
         style="fill:#000000;fill-opacity:1;fill-rule:nonzero;stroke:none;stroke-width:0.311245"
         id="path63"
         d="m 75.530232,105.91032 c -0.05025,-0.49196 -0.219922,-0.96258 -0.558891,-1.35925 -0.177398,-0.22358 -0.38592,-0.42191 -0.644867,-0.57371 -0.132447,-0.0782 -0.260018,-0.16195 -0.392582,-0.24108 -0.197387,-0.12587 -0.42968,-0.16653 -0.667517,-0.18779 -0.707812,-0.0446 -1.412318,0.0143 -2.114872,0.085 -1.550517,0.18765 -3.076628,0.51495 -4.571282,0.91687 -1.272454,0.32081 -2.520118,0.70898 -3.780251,1.06302 -1.220662,0.33853 -2.469809,0.5837 -3.711111,0.85478 -1.27816,0.28306 -2.540015,0.61654 -3.81537,0.90865 -1.141715,0.26669 -2.301186,0.46902 -3.444464,0.72999 -0.797153,0.20046 -1.592889,0.40597 -2.380009,0.63493 -0.457323,0.1333 -0.89807,0.30325 -1.331848,0.48584 -0.851824,0.39275 -0.521938,0.23821 -2.254727,1.1249 -0.206974,0.10596 -0.422798,0.24786 -0.575519,0.40879 -0.276361,0.16802 -0.353559,0.4305 -0.452377,0.69833 -0.222206,0.61312 -0.35556,1.24388 -0.411142,1.88407 -0.0736,0.87599 -0.16826,1.74995 -0.225522,2.62725 -0.04378,0.88304 -0.152551,1.76207 -0.203233,2.64488 -0.07706,0.92402 -0.02965,1.8376 0.106435,2.75411 0.166574,0.87317 0.388882,1.73877 0.680849,2.58637 0.394328,1.01549 0.948235,1.97279 1.630656,2.86215 0.557302,0.72298 1.263534,1.34865 1.95332,1.97521 0.374891,0.31088 0.771835,0.61173 1.219959,0.83977 0.22841,0.12135 0.45083,0.25923 0.706036,0.33383 0.130845,0.0322 0.265611,0.0526 0.401227,0.0608 0.151088,0.01 -0.04277,0.0934 0.253363,-0.1138 0.431776,-0.25372 0.234502,-0.14278 0.589054,-0.33653 0,0 0.407133,-0.25861 0.407133,-0.25861 v 0 c 0.259835,-0.19924 0.108991,-0.0864 0.455849,-0.33516 0.245109,-0.22305 0.187564,-0.12274 0.111912,-0.10706 -0.127258,0.007 -0.255162,0.006 -0.382046,-0.007 -0.254076,-0.0543 -0.482249,-0.16051 -0.699383,-0.28777 -0.450974,-0.19949 -0.845864,-0.48946 -1.235659,-0.76701 -0.711457,-0.59681 -1.41834,-1.20548 -1.964122,-1.92875 -0.684463,-0.86692 -1.265049,-1.79683 -1.583912,-2.81904 -0.274498,-0.8429 -0.490577,-1.69967 -0.660045,-2.56346 -0.136339,-0.90692 -0.171502,-1.8126 -0.08391,-2.72599 0.05671,-0.88229 0.155114,-1.76178 0.202106,-2.64428 0.05057,-0.87698 0.156669,-1.74939 0.241149,-2.62413 0.09245,-0.63342 0.214826,-1.26287 0.483281,-1.86068 0.123659,-0.25478 0.264199,-0.45918 0.514498,-0.63292 0.125925,-0.0907 0.255727,-0.17582 0.392662,-0.25366 0.06183,-0.0351 0.252447,-0.13342 0.18832,-0.10156 -1.953709,0.97056 -2.277621,1.11366 -1.52729,0.77516 0.418036,-0.21637 0.876711,-0.36347 1.327504,-0.52076 0.796461,-0.25653 1.610115,-0.46886 2.422691,-0.68223 1.150426,-0.27177 2.315463,-0.49101 3.470116,-0.74831 1.274033,-0.28814 2.532894,-0.6215 3.808203,-0.90553 1.237577,-0.2765 2.486324,-0.51407 3.709159,-0.83961 1.281171,-0.35097 2.536393,-0.77367 3.828664,-1.09599 1.468039,-0.41676 2.97428,-0.75028 4.507915,-0.91898 0.687598,-0.0662 1.376834,-0.13026 2.069565,-0.0962 0.214446,0.004 0.435794,-4e-5 0.626266,0.0998 0.148356,0.076 0.291397,0.14931 0.436715,0.23243 0.281741,0.10013 0.507106,0.26259 0.710702,0.45935 0.369582,0.33903 0.584208,0.74886 0.64939,1.21561 z" />
      <path
         style="fill:#000000;fill-opacity:1;fill-rule:nonzero;stroke:none;stroke-width:0.315037"
         id="path64"
         d="m 49.996578,129.77612 c 0.765402,0.0943 1.53715,0.12248 2.308444,0.14582 0.887973,0.0355 1.775089,-0.0404 2.66101,-0.0858 0.756558,-0.0434 1.498009,-0.18749 2.246153,-0.28713 0.850274,-0.10709 1.67973,-0.30481 2.505181,-0.51075 1.017064,-0.25921 1.985701,-0.6459 2.973931,-0.97919 0.848766,-0.29137 1.702825,-0.57057 2.550344,-0.86477 0.699309,-0.25166 1.410355,-0.47161 2.130507,-0.66989 0.710772,-0.18252 1.420539,-0.36941 2.137043,-0.53329 0.557345,-0.12712 1.094994,-0.31083 1.640017,-0.47316 0.504834,-0.13638 1.020118,-0.23858 1.530361,-0.35675 0.350683,-0.091 0.698344,-0.18551 1.041603,-0.29657 0.291421,-0.083 0.574623,-0.18621 0.853576,-0.29797 0.283812,-0.0949 0.563424,-0.20073 0.848829,-0.29172 0.217976,-0.0565 0.427605,-0.1345 0.636482,-0.21302 0.798669,-0.39176 1.939742,-0.4773 2.177818,-1.27169 0.04317,-0.18018 0.02799,-0.36775 0.0399,-0.55125 0.0062,-0.0802 0.0058,-0.16065 0.01183,-0.2407 -0.03281,-0.0146 0.08293,-0.0416 -0.06909,0.0113 0,0 -1.986958,0.92931 -1.986958,0.92931 v 0 c -0.03261,0.0127 -0.05891,0.0115 -0.0679,0.0331 0.01032,0.0727 0.0077,0.1469 0.01246,0.22018 0.0053,0.15919 0.01146,0.32795 -0.06192,0.47643 -0.04207,0.0631 -0.170289,0.11059 -0.121405,0.0862 1.40736,-0.70673 2.664774,-1.11966 1.848823,-0.96217 -0.206361,0.0948 -0.420307,0.17603 -0.635656,0.25291 -0.303752,0.0608 -0.574813,0.19595 -0.87138,0.27738 -0.282803,0.0999 -0.552209,0.23329 -0.846221,0.30484 -0.348612,0.11594 -0.692941,0.23227 -1.052785,0.31907 -0.503711,0.15598 -1.038799,0.22353 -1.548633,0.36424 -0.550769,0.15596 -1.088886,0.34096 -1.641681,0.49072 -0.724203,0.1622 -1.43865,0.35762 -2.158266,0.53517 -0.728936,0.20191 -1.453808,0.40982 -2.160087,0.67002 -0.852923,0.31896 -1.729996,0.58529 -2.586884,0.8961 -0.989111,0.33195 -1.955188,0.72347 -2.967886,0.99583 -0.825102,0.20555 -1.647137,0.42685 -2.497531,0.53587 -0.767354,0.0946 -1.517893,0.27013 -2.290309,0.33489 -0.901561,0.0529 -1.802658,0.15409 -2.707057,0.13585 -0.763996,-0.018 -1.529118,-0.0452 -2.287474,-0.13528 z" />
      <path
         style="fill:#000000;fill-opacity:1;fill-rule:nonzero;stroke:none;stroke-width:0.315037"
         id="path65"
         d="m 57.946404,129.66273 c 0.322074,0.46772 0.715719,0.88842 1.171952,1.25537 0.240248,0.19712 0.511543,0.33068 0.832187,0.38034 0.345031,0.0265 0.693457,0.0204 1.038325,-0.005 0.55428,-0.0855 1.087938,-0.23888 1.613068,-0.41511 0.6056,-0.206 1.208475,-0.41787 1.809064,-0.6353 0.691182,-0.24459 1.368356,-0.51837 2.051574,-0.77955 0.729921,-0.28891 1.46571,-0.56466 2.221752,-0.79416 0.44981,-0.13766 0.912883,-0.23408 1.385604,-0.27753 0.286871,0.005 0.560211,-0.0454 0.836149,-0.10743 0.09454,-0.0234 0.190848,-0.0398 0.286549,-0.0584 -0.138732,-0.23664 -0.08196,0.044 -0.07652,0.12861 0.0014,0.31484 0.317816,0.1516 0.482378,0.10811 0.806841,-0.29243 1.592846,-0.62773 2.370982,-0.97619 0.921098,-0.37235 1.838731,-0.74811 2.739001,-1.15943 1.395102,-0.65864 2.770228,-1.35544 4.096588,-2.11965 0.313349,-0.21563 0.631446,-0.40502 0.856991,-0.69898 0.06085,-0.22074 0.136694,-0.4374 0.184579,-0.66123 0.04641,-0.26471 0.0602,-0.53316 0.07988,-0.80034 0.01259,-0.14744 -0.08657,-0.28707 -0.174766,-0.4073 -0.154282,-0.22163 -0.496292,0.064 -0.674799,0.1537 0,0 -0.975657,0.63127 -0.975657,0.63127 v 0 c -0.06715,0.0551 -0.133337,0.11103 -0.201457,0.16514 -0.04043,0.0321 -0.07488,0.0734 -0.124112,0.0934 -0.01552,0.007 -0.06096,-0.0564 -0.001,0.003 0.07753,0.0828 0.130183,0.16957 0.117678,0.28121 0.0026,0.25196 -0.0088,0.50397 -0.06111,0.75228 -0.04974,0.19605 -0.09014,0.4125 -0.217448,0.58078 -0.221827,0.24923 -0.541985,0.40982 -0.816674,0.60663 -0.266203,0.15351 -0.348058,0.20308 -0.630632,0.35523 -0.124175,0.0669 -0.50081,0.26127 -0.374865,0.1971 2.887519,-1.47126 1.19921,-0.61205 0.560563,-0.30994 -0.90518,0.41066 -1.816464,0.8075 -2.748857,1.16753 -0.74886,0.33932 -1.511967,0.64727 -2.277905,0.95227 -0.05789,0.0163 -0.114783,0.0358 -0.17367,0.0489 -0.03778,0.008 -0.107908,-0.0186 -0.115513,0.0157 -0.04846,0.2177 0.09382,0.22207 0.07748,0.11568 0.01779,-0.17413 0.01549,-0.30987 -0.104446,-0.46488 -0.10427,0.0253 -0.207754,0.0535 -0.313113,0.0753 -0.273096,0.0615 -0.534537,0.15281 -0.820797,0.1374 -0.499168,0.0321 -0.989145,0.12549 -1.46267,0.27167 -0.757744,0.21958 -1.496081,0.48486 -2.222315,0.77747 -0.690436,0.24205 -1.353374,0.54495 -2.048253,0.77905 -0.598297,0.21263 -1.195252,0.42493 -1.795966,0.63193 -0.516781,0.1727 -1.030107,0.34046 -1.571016,0.44539 -0.332599,0.0505 -0.669679,0.0305 -1.006333,0.0369 -0.315998,-0.005 -0.564407,-0.0641 -0.820921,-0.24662 -0.479858,-0.32214 -0.845276,-0.7288 -1.130014,-1.20101 z" />
      <path
         style="fill:#000000;fill-opacity:1;fill-rule:nonzero;stroke:none;stroke-width:0.340112"
         id="path66"
         d="m 50.610784,108.07711 c -0.09315,-0.55753 -0.237653,-1.10036 -0.388002,-1.64335 -0.03542,-0.15722 -0.116999,-0.32649 -0.09853,-0.49207 0.02056,0.0134 0.03796,0.0451 0.0617,0.0402 0.0024,-3.4e-4 0.333246,-0.27011 0.358406,-0.28731 0.07832,-0.0536 0.318813,-0.20512 0.237614,-0.15642 -0.489088,0.29329 -0.974301,0.59355 -1.461453,0.89033 0.992665,-0.60294 2.097008,-0.94285 3.1709,-1.34697 1.345528,-0.53988 2.718182,-1.00049 4.075199,-1.50708 1.010214,-0.38614 2.046857,-0.69086 3.058313,-1.07227 0.780848,-0.30152 1.57269,-0.56825 2.383657,-0.76589 0.554411,-0.13567 1.123898,-0.16219 1.684683,-0.25397 0.434438,-0.0808 0.873057,-0.12757 1.313624,-0.1485 0.338059,-0.0175 0.676511,-0.009 1.014771,-0.0121 0.322033,-0.0142 0.412712,0.30061 0.479314,0.56838 0.07949,0.47967 0.182248,0.95406 0.235352,1.43827 0.05527,0.29931 -0.0064,0.61132 0.07407,0.90364 0.06918,0.21313 0.112504,0.43221 0.149477,0.6533 0.01121,0.0865 0.0107,0.17363 0.0077,0.26065 0.0088,0.0928 -0.04841,0.22783 0.07524,0.2133 0.505696,-0.34954 0.249131,-0.22791 0.756128,-0.39451 0,0 0.321487,-0.13941 0.321487,-0.13941 v 0 c 0.587012,-0.26339 0.293623,-0.10116 0.873169,-0.50018 0.0932,-0.0881 0.08231,-0.17381 0.07716,-0.29995 -0.0057,-0.0987 -0.0082,-0.19865 -0.03934,-0.2931 -0.04556,-0.2212 -0.103552,-0.43901 -0.163912,-0.65618 -0.04471,-0.28778 -0.03406,-0.5849 -0.08155,-0.87311 -0.07451,-0.48923 -0.18864,-0.97075 -0.253579,-1.46176 -0.09979,-0.38558 -0.244985,-0.71329 -0.638187,-0.837359 -0.344143,-0.0037 -0.688271,0.0069 -1.032353,0.01247 -0.45102,0.01865 -0.902303,0.04744 -1.346448,0.137259 -0.581732,0.1077 -1.171269,0.14711 -1.747965,0.28785 -0.846117,0.18909 -1.663744,0.47092 -2.470654,0.79636 -1.035057,0.41915 -2.105548,0.73724 -3.144676,1.14586 -1.366287,0.52068 -2.752175,0.98415 -4.10798,1.53483 -1.048905,0.38643 -2.134538,0.68794 -3.112471,1.25468 -0.697753,0.41863 -1.398739,0.83148 -2.093265,1.25592 -0.109734,0.0671 -0.568024,0.37455 -0.599749,0.53116 -0.0069,0.0342 0.01183,0.0687 0.01779,0.10303 0.05798,0.16526 0.06792,0.35224 0.156326,0.50889 0.185702,0.52132 0.335827,1.05458 0.487109,1.58744 z" />
      <path
         style="fill:#000000;fill-opacity:1;fill-rule:nonzero;stroke:none;stroke-width:0.315037"
         id="path67"
         d="m 48.421427,106.51251 c 0.109256,0.3363 0.217881,0.67376 0.308362,1.0146 0.03078,0.0791 0.04491,0.15276 0.03569,0.23518 0.0077,0.0956 0.108487,0.19301 0.173303,0.27039 0.02445,0.0792 0.0793,0.14791 0.15298,0.20902 0.06155,0.026 0.05901,0.077 0.0718,0.13087 -0.0062,0.0673 0.04227,0.11714 0.08177,0.17404 0.05133,0.0735 0.07849,0.1576 0.121997,0.23435 0.270331,-0.0138 0.507192,-0.16228 0.729186,-0.28307 0,0 0.352322,-0.22522 0.352322,-0.22522 v 0 c 0.426897,-0.30152 0.08756,-0.0988 0.517036,-0.27628 0.04296,-0.0178 0.04799,-0.0315 0.06778,-0.0606 -0.04094,-0.0812 -0.101513,-0.15396 -0.141873,-0.23564 -0.03158,-0.0567 -0.03846,-0.0703 -0.04937,-0.13614 -0.02196,-0.0804 -0.06525,-0.18771 -0.140961,-0.23452 -0.08978,-0.0413 -0.08989,-0.0875 -0.142235,-0.16509 -0.05022,-0.0501 -0.115198,-0.10225 -0.12104,-0.17291 -0.01846,-0.0911 -0.04079,-0.177 -0.08895,-0.26018 -0.144941,-0.3134 -0.265437,-0.63949 -0.34104,-0.97179 z" />
      <path
         style="fill:#000000;fill-opacity:1;fill-rule:nonzero;stroke:none;stroke-width:0.315037"
         id="path68"
         d="m 61.778627,131.01102 c 6.66e-4,1.06749 -0.15366,2.131 -0.301284,3.1888 -0.20858,1.29758 -0.445557,2.59198 -0.736594,3.87689 -0.336015,1.23944 -0.605956,2.4911 -0.8988,3.73891 -0.251681,1.14511 -0.571721,2.27077 -0.972658,3.38077 -0.496893,1.2479 -1.054958,2.47384 -1.699354,3.66642 -0.725849,1.26445 -1.608868,2.44385 -2.536868,3.59423 -0.380447,0.50523 -0.788213,0.99667 -1.253077,1.44272 -0.195632,0.17121 -0.08855,-0.003 -0.08619,0.219 -0.0024,0.0388 0.218055,0.21592 0.182704,0.1835 0.162184,0.14015 0.335291,0.27752 0.5109,0.40681 0.304989,0.25014 0.631309,0.47739 0.966227,0.69421 0.448078,0.24923 0.911367,0.48111 1.389695,0.68089 0.561212,0.21505 1.150997,0.35133 1.753824,0.42908 0.632728,0.0661 1.268431,0.0861 1.902961,0.037 0.343376,-0.0218 0.68367,-0.0777 1.027631,-0.0923 0.709856,-0.37187 1.419716,-0.74374 2.129571,-1.11562 0.0087,-0.0189 0.0088,-0.0432 0.02591,-0.057 0.01379,-0.0113 0.04118,0.003 0.05477,-0.008 0.06479,-0.0534 0.04307,-0.14563 0.123998,-0.2217 0.179477,-0.39047 0.393779,-0.76939 0.584543,-1.15678 0.408483,-0.71593 0.732259,-1.46598 1.071923,-2.20915 0.422892,-0.83751 0.785196,-1.69676 1.16056,-2.55167 0.435217,-0.99836 0.819882,-2.01323 1.196648,-3.03014 0.448185,-1.19937 0.796811,-2.42529 1.194826,-3.6382 0.413933,-1.26839 0.783936,-2.54852 1.163152,-3.8257 0.296983,-0.8505 0.471939,-1.7276 0.713573,-2.59101 0.175495,-0.77415 0.374425,-1.54444 0.522789,-2.32323 0.10471,-0.73145 0.297892,-1.44838 0.496355,-2.16294 0.18449,-0.64097 0.286041,-1.29845 0.453819,-1.94219 0.09346,-0.42388 0.200331,-0.84765 0.243269,-1.27868 0.01795,-0.27187 0.02441,-0.54482 0.02512,-0.81724 -9.99e-4,-0.15144 0.0024,-0.30261 0.0086,-0.45391 0.0054,-0.0265 0.0024,-0.0491 -0.0084,-0.0681 -8.3e-5,-3e-4 -1.63e-4,-6e-4 -2.46e-4,-0.001 0,0 -1.792678,0.8206 -1.792678,0.8206 v 0 c -8e-5,-1.5e-4 -1.56e-4,-3e-4 -2.33e-4,-5.9e-4 -0.0091,0.024 -0.01409,0.0471 -0.0076,0.0747 0.0083,0.14762 0.01285,0.29515 0.01293,0.44301 6.66e-4,0.26538 0.0069,0.5309 -0.01972,0.7957 -0.04799,0.41823 -0.10947,0.83504 -0.21758,1.24493 -0.139393,0.64469 -0.254812,1.29322 -0.439048,1.92993 -0.196055,0.72395 -0.408568,1.44729 -0.520679,2.18631 -0.157525,0.77664 -0.355495,1.54602 -0.540224,2.31773 -0.231087,0.85901 -0.432432,1.72383 -0.686898,2.57764 -0.3564,1.29263 -0.767854,2.57166 -1.218874,3.84039 -0.446716,1.257 -0.943995,2.49787 -1.447543,3.73745 -0.403612,1.01854 -0.808733,2.03688 -1.250113,3.04293 -0.372638,0.85925 -0.771104,1.70828 -1.177407,2.55517 -0.341887,0.7518 -0.690849,1.49935 -1.114064,2.21836 -0.198064,0.38745 -0.404878,0.77352 -0.646755,1.14042 -0.320366,0.5886 -3.018747,1.46242 1.806151,-0.82196 -0.161018,0.16084 -0.81276,0.11912 -1.05051,0.19414 -0.628674,0.0687 -1.255748,0.079 -1.886894,0.0138 -0.59067,-0.0664 -1.17113,-0.17297 -1.725356,-0.37354 -0.470957,-0.18478 -0.915455,-0.41878 -1.359703,-0.64976 -0.332833,-0.21192 -0.661495,-0.43166 -0.954042,-0.68756 -0.159166,-0.11171 -0.298052,-0.26395 -0.481306,-0.33277 -0.01622,-0.0222 -0.176048,-0.16834 -0.165165,-0.0852 -0.0076,-0.0644 -0.0049,-0.0101 0.04377,0.0529 6.66e-4,8.9e-4 0.07847,-0.1324 0.09513,-0.12206 0.402256,-0.45375 0.77229,-0.93004 1.126203,-1.41468 0.880234,-1.14086 1.689657,-2.32228 2.379625,-3.56521 0.634227,-1.19612 1.18687,-2.42334 1.66258,-3.67735 0.389921,-1.09958 0.646634,-2.22143 0.868095,-3.35727 0.258293,-1.24022 0.540137,-2.47561 0.82898,-3.71049 0.24291,-1.27049 0.418841,-2.54927 0.599214,-3.82786 0.131561,-1.06564 0.291583,-2.13169 0.297209,-3.20572 z" />
      <path
         style="fill:#000000;fill-opacity:1;fill-rule:nonzero;stroke:none;stroke-width:0.315037"
         id="path69"
         d="m 48.215443,113.50694 c -0.173231,0.64569 -0.258154,1.30792 -0.362118,1.96479 -0.0946,0.9094 -0.180698,1.82368 -0.149346,2.73741 0.0058,0.78138 0.226398,1.53341 0.444795,2.28307 0.215695,0.67767 0.488988,1.33862 0.810884,1.98136 0.2537,0.51909 0.57526,0.98911 0.984401,1.41947 0.292763,0.23233 0.572652,0.55155 0.969778,0.62459 0.364399,-0.0715 0.176285,-0.0217 0.561493,-0.15751 0,0 0.890021,-0.53173 0.890021,-0.53173 v 0 c 0.193051,-0.19703 0.124603,-0.0961 0.224495,-0.29181 -0.203249,-0.25729 -0.628776,-0.35423 -0.841856,-0.61695 -0.406394,-0.40822 -0.734746,-0.85555 -0.973745,-1.36119 -0.31753,-0.63227 -0.603722,-1.27777 -0.813157,-1.94594 -0.221927,-0.73258 -0.419248,-1.47301 -0.442259,-2.23621 -0.02578,-0.90529 0.03714,-1.81207 0.165502,-2.7103 0.102495,-0.6518 0.175888,-1.31215 0.382996,-1.94576 z" />
      <path
         style="fill:#000000;fill-opacity:1;fill-rule:nonzero;stroke:none;stroke-width:0.315037"
         id="path70"
         d="m 50.967541,112.34815 c -0.217533,0.5364 -0.406599,1.08308 -0.572974,1.63397 -0.149143,0.61397 -0.169843,1.24596 -0.188704,1.87197 -0.02578,0.59943 -0.01635,1.19657 0.05289,1.79306 0.09853,0.56979 0.304316,1.11597 0.492596,1.66518 0.186954,0.52612 0.4403,1.0254 0.741464,1.50629 0.314049,0.43182 0.718261,0.80519 1.121816,1.17029 0.361966,0.3322 0.752921,0.63699 1.131858,0.95281 0.188797,0.18474 0.447084,0.27247 0.674627,0.40633 0.317267,0.20961 0.416712,0.0507 0.761655,-0.13228 0,0 0.663989,-0.39088 0.663989,-0.39088 v 0 c 0.350168,-0.22701 0.603345,-0.25072 0.188011,-0.41104 -0.232571,-0.11216 -0.47061,-0.21777 -0.680253,-0.36449 -0.390927,-0.30127 -0.782953,-0.60036 -1.142485,-0.93335 -0.385598,-0.36008 -0.778433,-0.72218 -1.098115,-1.13156 -0.29249,-0.47248 -0.529246,-0.96467 -0.720368,-1.47729 -0.189999,-0.53744 -0.383756,-1.07661 -0.476777,-1.63589 -0.0742,-0.58832 -0.06134,-1.17699 -0.05295,-1.76839 0.01369,-0.60966 0.03181,-1.22153 0.168013,-1.82144 0.145106,-0.54261 0.314079,-1.08366 0.555233,-1.59894 z" />
      <path
         style="fill:#000000;fill-opacity:1;fill-rule:nonzero;stroke:none;stroke-width:0.315037"
         id="path71"
         d="m 53.403183,112.35642 c -0.22336,0.51934 -0.372825,1.05494 -0.460037,1.6048 -0.0995,0.49008 -0.04656,0.97581 0.01965,1.4647 0.133526,0.40841 0.197196,0.82943 0.292992,1.24463 0.145635,0.46104 0.319665,0.91415 0.466193,1.37481 0.139336,0.35923 0.330012,0.69752 0.518821,1.03687 0.203353,0.3589 0.465114,0.68487 0.707482,1.0222 0.227762,0.31898 0.464844,0.63178 0.717927,0.93497 0.191484,0.21311 0.409534,0.40825 0.65301,0.57347 0.222701,0.14341 0.456943,0.27055 0.68425,0.40779 0.145065,0.10562 0.312136,0.16043 0.485031,0.21608 0.182174,0.0632 0.256477,0.0552 0.454906,-0.0173 0.07684,-0.0337 0.153677,-0.0674 0.230519,-0.10124 0,0 0.792736,-0.43988 0.792736,-0.43988 v 0 c 0.06289,-0.0449 0.125787,-0.0899 0.188673,-0.13473 0.155416,-0.1357 0.214084,-0.2521 -0.05822,-0.30595 -0.170771,-0.0132 -0.332352,-0.0633 -0.476735,-0.14668 -0.233047,-0.12616 -0.454622,-0.26685 -0.688357,-0.393 -0.235143,-0.14703 -0.44566,-0.3283 -0.640393,-0.51604 -0.234629,-0.31142 -0.496546,-0.60633 -0.722317,-0.92377 -0.238649,-0.3321 -0.48697,-0.65906 -0.687801,-1.01154 -0.185449,-0.3295 -0.370671,-0.65867 -0.51182,-1.00625 -0.155122,-0.45345 -0.337782,-0.89947 -0.463235,-1.36093 -0.09771,-0.40911 -0.179735,-0.82038 -0.306983,-1.2237 -0.07539,-0.47226 -0.103666,-0.94048 -0.01939,-1.41488 0.08416,-0.53935 0.219067,-1.07208 0.482819,-1.56657 z" />
      <path
         style="fill:#000000;fill-opacity:1;fill-rule:nonzero;stroke:none;stroke-width:0.315037"
         id="path72"
         d="m 116.43118,76.554153 c -0.51023,0.721939 -1.11261,1.386993 -1.68938,2.067104 -0.52231,0.658193 -1.02537,1.345933 -1.40417,2.080534 -0.34345,0.602399 -0.56013,1.247527 -0.77996,1.890883 -0.18674,0.586171 -0.27741,1.191121 -0.38986,1.790952 -0.11397,0.592084 -0.16543,1.191296 -0.24188,1.787871 -0.0978,0.654645 -0.15903,1.312119 -0.19103,1.971749 0.004,0.699029 -0.0843,1.393386 -0.15494,2.088585 -0.0404,0.669774 -0.13173,1.335532 -0.20602,2.002776 -0.0952,0.628814 -0.21196,1.254366 -0.31818,1.88145 -0.15608,0.764972 -0.3315,1.525801 -0.51392,2.285928 -0.1799,0.946053 -0.38124,1.88824 -0.52259,2.839835 -0.15596,0.89207 -0.29759,1.78649 -0.4152,2.6833 -0.11511,0.82093 -0.12677,1.64868 -0.14876,2.47459 -0.004,0.77767 -0.006,1.55536 -0.003,2.33304 0.0238,0.8195 -0.0645,1.63615 -0.11797,2.45354 -0.0241,0.88524 0.11566,1.76286 0.21546,2.64132 0.0951,0.81267 0.0711,1.63095 0.13457,2.44484 0.10664,0.91696 0.13943,1.83823 0.1711,2.75908 0.0366,0.93846 0.0245,1.87778 0.0111,2.81653 -0.0122,0.6872 0.003,1.37442 -0.003,2.06166 0.0327,0.576 0.10682,1.14498 0.23664,1.70909 0.1518,0.46242 0.29546,0.92635 0.46882,1.38282 0.16137,0.46723 0.36435,0.92225 0.58569,1.36911 0.20271,0.44395 0.39415,0.89328 0.61234,1.33143 0.17465,0.31509 0.26716,0.65655 0.39104,0.98836 0.0865,0.25004 0.12552,0.50456 0.21676,0.75329 0.0532,0.27822 0.17847,0.53626 0.25194,0.81024 0.10251,0.18532 0.16901,0.38806 0.2795,0.56883 0.11767,0.18162 0.14139,0.36928 0.37827,0.44918 0.15198,-0.039 0.30396,-0.078 0.45594,-0.11703 0,0 0.91895,-0.49207 0.91895,-0.49207 v 0 c 0.10865,-0.0867 0.21727,-0.17352 0.3259,-0.26029 0.0101,-0.0422 0.0324,-0.0837 0.0288,-0.1266 -0.0126,-0.14566 -0.18295,-0.28925 -0.23078,-0.4257 -0.11747,-0.15463 -0.17768,-0.34476 -0.28759,-0.50477 -0.0911,-0.26831 -0.2011,-0.53058 -0.28317,-0.8013 -0.0785,-0.25156 -0.11868,-0.51134 -0.22641,-0.75515 -0.12856,-0.3369 -0.22549,-0.68298 -0.42357,-0.9957 -0.23443,-0.42828 -0.39771,-0.88668 -0.61621,-1.32191 -0.20277,-0.44834 -0.43011,-0.88909 -0.57475,-1.35656 -0.15834,-0.45314 -0.31127,-0.90851 -0.44274,-1.36846 -0.10698,-0.5556 -0.17741,-1.11763 -0.21416,-1.68038 -0.005,-0.68685 0.0117,-1.37366 -6.7e-4,-2.06048 -0.0156,-0.93685 -0.0322,-1.87371 -0.0348,-2.81068 -0.0204,-0.92662 -0.0769,-1.852 -0.15234,-2.77632 -0.0579,-0.81569 -0.0465,-1.63464 -0.13993,-2.44864 -0.0899,-0.86915 -0.26589,-1.73464 -0.20929,-2.61132 0.0592,-0.82276 0.16257,-1.64363 0.12474,-2.46955 6.7e-4,-0.77723 -0.006,-1.55451 0.008,-2.33169 0.008,-0.81809 0.0431,-1.63609 0.14147,-2.44996 0.12226,-0.89422 0.27153,-1.785289 0.40736,-2.677912 0.13381,-0.952212 0.35012,-1.890785 0.54677,-2.833793 0.1807,-0.767579 0.36011,-1.535263 0.53209,-2.304433 0.11764,-0.626565 0.20268,-1.25682 0.29784,-1.886419 0.0624,-0.667129 0.17292,-1.330095 0.19496,-2.000051 0.0549,-0.693592 0.14544,-1.385859 0.11758,-2.082519 0.009,-0.638508 0.0168,-1.278359 0.0984,-1.913461 0.0741,-0.584333 0.10201,-1.171529 0.18611,-1.754808 0.0984,-0.578424 0.1318,-1.16716 0.30671,-1.733219 0.18728,-0.617744 0.36573,-1.24117 0.67339,-1.822367 0.34355,-0.690125 0.71885,-1.372022 1.22823,-1.978565 0.56137,-0.682915 1.16353,-1.343038 1.64589,-2.074228 z" />
      <path
         style="fill:#000000;fill-opacity:1;fill-rule:nonzero;stroke:none;stroke-width:0.315037"
         id="path73"
         d="m 114.61139,78.361316 c 0.75598,0.299648 1.20189,0.94531 1.68108,1.5138 0.4851,0.541121 0.83753,1.162896 1.26782,1.736308 0.51383,0.68474 0.66074,0.80719 1.25297,1.439062 0,0 0.5052,-0.250226 0.5052,-0.250226 v 0 c -0.0222,-0.69758 0.008,-1.302306 -0.20583,-1.982521 -0.21565,-0.686146 -0.73091,-1.238186 -1.13127,-1.837046 -0.48604,-0.607736 -0.93442,-1.290015 -1.71702,-1.622499 z" />
      <path
         style="fill:#000000;fill-opacity:1;fill-rule:nonzero;stroke:none;stroke-width:0.315037"
         id="path74"
         d="m 116.37723,132.6573 c 1.37995,0.006 2.60016,-0.84945 3.53239,-1.7032 0.97642,-1.01369 1.43945,-2.27977 1.86105,-3.53868 0.32689,-1.28846 0.29691,-0.66609 0.15406,-1.86374 0,0 -0.57993,0.24753 -0.57993,0.24753 v 0 c -0.91161,1.53438 -0.54306,0.77194 -1.13823,2.2745 -0.48777,1.24571 -1.017,2.50865 -2.00722,3.51387 -0.11746,0.10214 -0.22849,0.21053 -0.35233,0.30644 -0.11129,0.0863 -0.4847,0.29548 -0.35176,0.2389 2.5418,-1.08212 0.95773,-0.44475 0.32653,-0.38665 z" />
      <path
         style="fill:#e17e3a;fill-rule:evenodd;stroke:#000000;stroke-width:0.75590552;stroke-miterlimit:4;stroke-dasharray:none"
         d="m 450.24178,508.00414 c -1.98379,-0.91847 -3.65729,-2.49113 -5.55848,-5.22358 l -1.00227,-1.44049 3.36541,-1.68365 c 6.34008,-3.17181 10.60824,-8.85057 13.34176,-17.75112 1.05743,-3.44307 1.28945,-5.57873 0.75687,-6.96662 -0.48258,-1.25757 -2.53292,0.053 -4.10749,2.62544 -0.76729,1.25355 -2.27396,4.51797 -3.34817,7.25424 -2.72417,6.93917 -5.95985,11.67325 -9.08765,13.29601 l -2.4407,1.26628 -1.8803,-3.79861 c -3.05326,-6.16827 -11.45127,-26.36304 -13.0884,-31.47379 -1.14698,-3.58067 -4.56209,-21.14952 -4.56209,-23.46949 0,-0.19089 0.33619,-0.34707 0.7471,-0.34707 1.19588,0 10.80257,-5.14309 14.90837,-7.98142 5.86343,-4.05339 8.29999,-7.46189 10.27763,-14.37734 2.07359,-7.25094 2.34833,-21.07858 0.57886,-29.13298 -2.27548,-10.35765 -8.7478,-20.22165 -15.18601,-23.14392 -2.32826,-1.05678 -6.028,-1.27235 -8.12878,-0.47364 -0.73983,0.28129 -1.40539,0.4492 -1.47902,0.37313 -0.0736,-0.0761 0.62015,-3.49645 1.54174,-7.60086 2.06408,-9.19271 3.03837,-17.00186 3.69316,-29.60154 0.58564,-11.26899 1.50636,-17.56556 3.24331,-22.18021 1.32425,-3.51821 3.22221,-7.17257 3.72522,-7.17257 0.30241,0 3.39759,3.9182 7.66358,9.70135 3.09146,4.1909 4.4701,5.39003 5.73528,4.98848 0.90645,-0.2877 1.03733,-0.72366 1.03733,-3.45525 0,-1.71931 -0.26019,-3.88703 -0.5782,-4.81715 -0.75646,-2.21255 -4.04447,-7.0694 -6.74046,-9.95661 l -2.14339,-2.29542 2.28075,-2.10233 c 2.57918,-2.37741 3.31092,-2.3974 7.09621,-0.19387 4.4288,2.57814 7.65028,9.50819 11.52716,24.79721 2.45447,9.67956 10.83467,57.67255 12.9278,74.03694 1.57712,12.33003 2.13611,26.1657 1.85292,45.8617 -0.27471,19.1065 -0.81973,25.13608 -3.08613,34.14184 -2.40719,9.5652 -8.48592,23.61427 -13.43687,31.05509 -2.63047,3.95334 -6.73425,8.19726 -7.90419,8.1741 -0.30351,-0.006 -1.44735,-0.42554 -2.54186,-0.93228 z"
         id="path1005"
         transform="scale(0.26458333)" />
      <path
         style="fill:#b77142;fill-rule:evenodd;stroke:#000000;stroke-width:0.376067;stroke-miterlimit:4;stroke-dasharray:none;fill-opacity:1"
         d="m 450.5604,507.37498 c -1.14386,-0.56593 -2.96088,-2.05981 -4.03782,-3.31972 l -1.95807,-2.29075 2.83864,-1.49919 c 3.69657,-1.9523 8.42495,-6.71382 10.39904,-10.47191 0.8624,-1.64177 2.14466,-4.70358 2.84948,-6.80403 3.77912,-11.26236 -1.42422,-12.48057 -6.22818,-1.45815 -4.50375,10.33362 -6.95502,14.15839 -10.32907,16.11671 l -1.53248,0.88946 -1.69574,-3.37698 c -5.36837,-10.69092 -12.91267,-30.15031 -14.48918,-37.3727 -1.28479,-5.88591 -3.2763,-16.69667 -3.08997,-16.77359 0.0492,-0.0203 1.06386,-0.40604 2.25476,-0.85716 4.09205,-1.5501 13.63173,-7.47941 16.79598,-10.43941 5.19944,-4.86382 7.23063,-10.1191 8.26757,-21.39055 1.5054,-16.3636 -2.53677,-30.734 -11.03585,-39.2338 -4.00665,-4.00697 -5.42337,-4.64492 -10.34667,-4.65914 -2.25708,-0.007 -4.10407,-0.0592 -4.10441,-0.11696 -3.5e-4,-0.0578 0.45263,-2.04904 1.00662,-4.42496 1.8717,-8.0272 2.97123,-16.31015 3.9599,-29.83067 0.54156,-7.40605 1.3233,-15.24175 1.73721,-17.41267 0.77691,-4.07477 3.39924,-11.25686 4.41225,-12.08432 0.40275,-0.32899 2.07417,1.48824 5.58539,6.07263 5.28938,6.90606 7.03239,8.43337 8.54207,7.485 0.67864,-0.42632 0.90804,-1.36325 1.02254,-4.17624 0.18254,-4.48445 -1.01615,-7.23288 -5.66691,-12.99345 l -3.12633,-3.87237 1.72822,-1.5174 c 2.1012,-1.84488 3.20383,-1.89312 5.98719,-0.26197 6.02786,3.53257 10.07935,15.0588 15.31311,43.56491 4.45627,24.27143 8.17352,47.14378 9.4932,58.41189 2.05348,17.5338 1.93601,57.01562 -0.20669,69.46697 -2.78633,16.19148 -13.71837,39.57301 -20.88998,44.67964 -1.37161,0.97668 -1.38284,0.97652 -3.45582,-0.0491 z"
         id="path1044"
         transform="scale(0.26458333)" />
      <path
         style="fill:#b77142;fill-opacity:1;fill-rule:evenodd;stroke:#000000;stroke-width:0.75590552;stroke-miterlimit:4;stroke-dasharray:none"
         d="m 410.4291,478.37369 c -5.53494,-1.94996 -15.57128,-5.71034 -22.30297,-8.35638 -16.71986,-6.57212 -18.34655,-6.97628 -37.53427,-9.32532 -8.13119,-0.99545 -13.65977,-1.21528 -37.90732,-1.50727 l -28.38775,-0.34184 -1.70627,-1.63193 c -0.93845,-0.89756 -2.75788,-3.34545 -4.04319,-5.43975 -1.2853,-2.0943 -3.34882,-5.45663 -4.58559,-7.47183 -3.57401,-5.82348 -5.13824,-11.10897 -5.11371,-17.27903 0.0234,-5.87874 1.05,-10.8347 3.42746,-16.5456 l 1.64369,-3.94832 6.92178,-2.03992 c 23.87909,-7.03738 55.70368,-20.85024 70.56686,-30.62821 6.72936,-4.42701 31.42527,-25.10245 44.68435,-37.40978 3.86787,-3.59023 10.80492,-9.95474 15.41565,-14.14335 4.61073,-4.18861 9.83875,-9.08438 11.61781,-10.8795 1.77906,-1.79512 3.05965,-2.77427 2.84575,-2.1759 -1.79385,5.01834 -3.14848,14.46796 -4.67882,32.6385 -0.32757,3.88942 -1.33417,10.62111 -2.23689,14.95931 -4.52058,21.72467 -5.33364,28.03622 -5.71113,44.33396 -0.24982,10.78601 -0.155,16.89828 0.32489,20.94304 0.37272,3.14145 0.86109,14.15694 1.08526,24.47887 0.4007,18.44999 0.43244,18.84007 1.87853,23.08289 0.80902,2.37367 2.29841,6.1067 3.30976,8.29562 1.09148,2.36237 1.57684,3.97118 1.19423,3.9585 -0.35451,-0.0118 -5.17316,-1.61679 -10.70811,-3.56676 z"
         id="path1481"
         transform="scale(0.26458333)" />
      <path
         style="fill:#e17e3a;fill-opacity:1;fill-rule:evenodd;stroke:#000000;stroke-width:0.411194;stroke-miterlimit:4;stroke-dasharray:none"
         d="m 417.77277,480.21834 c -7.25922,-2.53386 -17.1661,-6.18258 -27.75193,-10.22108 -15.70198,-5.99033 -18.09332,-6.72361 -26.42049,-8.10162 -14.45534,-2.39213 -21.18835,-2.83049 -50.43795,-3.28387 l -28.45386,-0.44105 -1.64357,-1.56784 c -1.72203,-1.64268 -8.02817,-11.50526 -10.47386,-16.38072 -4.04526,-8.06424 -3.97762,-18.69201 0.18575,-29.18365 l 1.52693,-3.84784 8.90538,-2.78461 c 23.19345,-7.25235 52.08024,-19.70095 65.9628,-28.42632 11.32811,-7.11986 47.43983,-38.05331 71.79469,-61.49963 3.04984,-2.93607 3.67981,-3.3473 3.42251,-2.23413 -0.98256,4.25093 -2.10684,12.49006 -3.07988,22.57061 -1.03499,10.72237 -2.6732,22.05397 -3.81416,26.38278 -0.27601,1.04715 -1.24255,6.24465 -2.14788,11.55 -2.89951,16.99143 -3.19052,28.00404 -1.72877,65.42246 1.09164,27.94417 1.20581,28.99318 3.87788,35.63036 1.26472,3.14145 2.42127,6.01772 2.57009,6.3917 0.31633,0.79488 -0.0745,0.79905 -2.29368,0.0244 z"
         id="path1520"
         transform="scale(0.26458333)" />
      <path
         style="fill:#e17e3a;fill-opacity:1;fill-rule:evenodd;stroke:#000000;stroke-width:0.75590552;stroke-miterlimit:4;stroke-dasharray:none"
         d="m 196.07753,486.38242 c -5.76828,-1.91349 -15.30851,-11.56283 -18.44705,-18.65802 -0.58304,-1.31808 -1.68119,-4.83479 -2.44032,-7.81492 -1.65006,-6.47767 -1.77165,-11.87708 -0.57527,-25.54548 1.45454,-16.6177 1.79508,-17.37316 8.76829,-19.45199 2.65769,-0.7923 9.72793,-2.54229 15.71165,-3.88886 25.99337,-5.84951 32.78196,-7.45462 37.10383,-8.77287 7.11589,-2.17047 16.37393,-4.52704 16.66024,-4.24073 0.14206,0.14206 1.32185,-0.10272 2.62176,-0.54395 1.29991,-0.44123 5.20015,-1.09463 8.6672,-1.45199 6.06907,-0.62556 6.40874,-0.60458 9.12414,0.56356 1.55122,0.66731 3.44443,1.95491 4.20712,2.86133 l 1.38673,1.64802 -4.37818,1.46898 c -4.50472,1.51144 -7.60911,3.45602 -9.06533,5.6785 -1.41345,2.1572 -3.93646,9.23911 -4.8263,13.54709 -1.58395,7.66842 -0.83216,15.71058 2.08429,22.29625 2.11775,4.78213 8.62216,15.5277 11.05843,18.26902 2.09366,2.35582 2.18888,2.39809 3.8509,1.70966 1.21101,-0.50162 2.95034,-0.59559 6.01038,-0.32471 3.89073,0.34441 4.27983,0.48206 4.0328,1.42668 -0.15037,0.57503 -0.46945,1.16667 -0.70906,1.31475 -0.42012,0.25965 -10.61794,3.0224 -23.12917,6.26606 -3.30933,0.85797 -11.38736,3.41278 -17.95117,5.67735 -13.19463,4.55226 -17.60394,5.78701 -25.2616,7.07406 -5.8615,0.98516 -22.40797,1.58763 -24.50431,0.89221 z m 0.70541,-17.29787 c 2.46192,-1.54449 2.57076,-2.52292 0.42185,-3.79231 -3.24165,-1.91489 -7.29926,-9.481 -9.04378,-16.86367 -1.00338,-4.24623 -0.76114,-12.60682 0.54149,-18.68835 0.41655,-1.94472 0.66379,-3.63498 0.54943,-3.75614 -0.11436,-0.12117 -1.80443,0.45822 -3.75571,1.28753 -2.70175,1.14825 -3.61131,1.81697 -3.81418,2.80418 -0.14652,0.71299 -0.40087,1.93787 -0.56523,2.72196 -0.82557,3.93849 -1.26387,13.17811 -0.78521,16.55308 1.11621,7.87029 5.64417,17.32525 9.74099,20.34045 2.12069,1.56079 3.44638,1.44093 6.71035,-0.60673 z m 13.11774,-3.75761 c 1.3812,-0.77197 2.64462,-1.61935 2.80761,-1.88306 0.16298,-0.26371 -0.63707,-0.95566 -1.77789,-1.53766 -1.14082,-0.58201 -3.79155,-2.64818 -5.89052,-4.59151 -4.30642,-3.98708 -6.74806,-8.27922 -8.18702,-14.39189 -1.0783,-4.58059 -0.64722,-12.81755 0.90725,-17.3357 0.58605,-1.7034 0.95132,-3.21132 0.81171,-3.35093 -0.13962,-0.13962 -1.58248,0.2854 -3.20636,0.94448 -2.57354,1.04453 -3.06018,1.49003 -3.79146,3.47096 -1.62698,4.40728 -1.99269,6.6823 -1.99569,12.41485 -0.005,8.74401 2.16819,15.04391 6.95259,20.15881 3.12888,3.34503 8.61262,7.50522 9.89298,7.50522 0.53104,0 2.09561,-0.63161 3.4768,-1.40357 z m 11.14721,-3.99642 c 1.90946,-0.97413 3.77431,-2.62626 3.2833,-2.90877 -0.11743,-0.0676 -1.65103,-0.84173 -3.408,-1.72036 -5.43604,-2.71846 -10.502,-10.07558 -13.09197,-19.01302 -1.6015,-5.52646 -1.75099,-9.03079 -0.53768,-12.60451 0.47028,-1.38516 0.72386,-2.64966 0.56352,-2.81 -0.16033,-0.16034 -1.63483,0.25369 -3.27665,0.92006 -2.75501,1.11817 -3.05269,1.41495 -3.86137,3.84967 -1.27433,3.83664 -1.09267,8.71255 0.53258,14.29545 1.62974,5.59829 2.84081,8.12996 6.0313,12.60806 2.81518,3.95134 4.12257,5.20681 7.3152,7.02469 2.94349,1.67601 3.77683,1.72236 6.44977,0.35873 z"
         id="path1596"
         transform="scale(0.26458333)" />
      <path
         style="fill:#b77142;fill-opacity:1;fill-rule:evenodd;stroke:#000000;stroke-width:0.75590552;stroke-miterlimit:4;stroke-dasharray:none"
         d="m 192.44386,408.4745 c 0.91818,-0.53452 0.91463,-0.63205 -0.0738,-2.02337 -0.57115,-0.80397 -1.42183,-2.38138 -1.89041,-3.50534 l -0.85196,-2.04357 2.01368,-0.84412 c 3.42155,-1.43429 27.72098,-10.28586 35.46813,-12.92001 4.50974,-1.53337 9.12799,-2.70604 11.96745,-3.03877 10.26922,-1.20337 10.19771,-1.20106 11.04122,-0.35755 0.81633,0.81633 2.01418,6.37916 2.01418,9.35386 v 1.61654 l -10.19953,2.78032 c -10.15393,2.7679 -20.93014,5.33364 -39.57418,9.42237 -10.41592,2.28426 -11.43489,2.44454 -9.91482,1.55964 z"
         id="path8579"
         transform="scale(0.26458333)" />
      <path
         style="fill:#b77142;fill-opacity:1;fill-rule:evenodd;stroke:#000000;stroke-width:0.75590552;stroke-miterlimit:4;stroke-dasharray:none"
         d="m 231.18936,490.89791 c -0.89756,-0.46681 -2.18665,-1.36844 -2.86464,-2.00362 l -1.23271,-1.15487 11.56824,-3.99684 c 6.36252,-2.19826 18.05513,-5.70601 25.98357,-7.79501 17.45732,-4.59969 28.37123,-8.33597 30.49885,-10.441 1.20661,-1.1938 2.01483,-1.49593 4.00171,-1.49593 2.39145,0 2.48973,0.063 2.48973,1.59651 0,2.58246 -0.83995,4.07852 -3.14704,5.60528 -3.02171,1.99968 -21.51996,9.69323 -21.88522,9.10222 -0.40442,-0.65437 -4.38163,-0.3232 -8.7464,0.72828 -1.97342,0.4754 -8.21553,2.60553 -13.87136,4.73363 -15.92834,5.99331 -19.55256,6.80757 -22.79473,5.12135 z"
         id="path8618"
         transform="scale(0.26458333)" />
      <path
         style="fill:#b77142;fill-opacity:1;fill-rule:evenodd;stroke:#000000;stroke-width:0.75590552;stroke-miterlimit:4;stroke-dasharray:none"
         d="m 223.16104,586.11105 c -3.7581,-0.92485 -5.59956,-1.80424 -9.97216,-4.76218 l -3.31314,-2.24125 4.7873,-6.41864 c 10.41053,-13.95807 14.459,-23.02742 18.51156,-41.46947 2.83336,-12.89378 4.0058,-19.53375 5.16748,-29.26531 0.85577,-7.16886 1.07601,-8.05824 2.07022,-8.35996 0.61192,-0.1857 5.27399,-1.87945 10.36015,-3.76389 5.08617,-1.88444 10.53272,-3.65799 12.10345,-3.94121 l 2.85587,-0.51496 -0.006,1.96565 c -0.004,1.0811 -0.75534,5.1479 -1.67065,9.03732 -0.91532,3.88942 -2.48512,10.62111 -3.48845,14.95931 -5.10106,22.05588 -14.08246,46.85468 -24.62648,67.99687 l -3.66242,7.34366 -2.99187,0.10248 c -1.64552,0.0564 -4.4015,-0.24443 -6.1244,-0.66842 z"
         id="path8657"
         transform="scale(0.26458333)" />
      <path
         style="fill:#ffe6ac;fill-opacity:1;fill-rule:evenodd;stroke:#000000;stroke-width:0.75590552;stroke-miterlimit:4;stroke-dasharray:none"
         d="m 422.18752,433.40823 c -1.00549,-11.58252 -1.42055,-20.73475 -1.40349,-30.94741 0.0209,-12.53157 0.42717,-18.51807 1.90475,-28.07006 0.90261,-5.83499 1.00742,-6.11971 2.2528,-6.11971 5.69047,0 13.6096,10.27739 16.55658,21.48701 0.94859,3.6082 1.14715,5.9784 1.16206,13.87136 0.0201,10.65353 -0.82207,16.13235 -3.26114,21.21502 -2.57931,5.37491 -9.36028,10.8795 -13.40221,10.8795 -0.82277,0 -1.95013,0.24307 -2.50524,0.54016 -0.92123,0.49303 -1.03503,0.24382 -1.30411,-2.85587 z"
         id="path8813"
         transform="scale(0.26458333)" />
    </g>
  </g>
</svg>
