<?xml version="1.0" encoding="UTF-8" standalone="no"?>
<!-- Created with Inkscape (http://www.inkscape.org/) -->

<svg
   width="210mm"
   height="297mm"
   viewBox="0 0 210 297"
   version="1.1"
   id="svg55701"
   inkscape:version="1.1.2 (b8e25be833, 2022-02-05)"
   sodipodi:docname="soundwaves.svg"
   xmlns:inkscape="http://www.inkscape.org/namespaces/inkscape"
   xmlns:sodipodi="http://sodipodi.sourceforge.net/DTD/sodipodi-0.dtd"
   xmlns="http://www.w3.org/2000/svg"
   xmlns:svg="http://www.w3.org/2000/svg">
  <sodipodi:namedview
     id="namedview55703"
     pagecolor="#ffffff"
     bordercolor="#666666"
     borderopacity="1.0"
     inkscape:pageshadow="2"
     inkscape:pageopacity="0.0"
     inkscape:pagecheckerboard="0"
     inkscape:document-units="mm"
     showgrid="false"
     inkscape:zoom="0.29242569"
     inkscape:cx="1313.1541"
     inkscape:cy="832.69018"
     inkscape:window-width="1121"
     inkscape:window-height="981"
     inkscape:window-x="789"
     inkscape:window-y="0"
     inkscape:window-maximized="0"
     inkscape:current-layer="layer1" />
  <defs
     id="defs55698" />
  <g
     inkscape:label="Ebene 1"
     inkscape:groupmode="layer"
     id="layer1">
    <g
       id="g59150"
       transform="translate(0.41080408,-70.247497)"
       style="fill:#e17e3a;fill-opacity:1;stroke:#e17e3a;stroke-opacity:1">
      <circle
         style="opacity:0.990461;fill:#e17e3a;fill-opacity:1;fill-rule:evenodd;stroke:#e17e3a;stroke-width:2;stroke-opacity:1"
         id="path55784"
         cx="48.329624"
         cy="99.137688"
         r="4.9568844" />
      <circle
         style="opacity:0.990461;fill:#e17e3a;fill-opacity:1;fill-rule:evenodd;stroke:#e17e3a;stroke-width:1.58394;stroke-opacity:1"
         id="path55784-9"
         cx="71.048683"
         cy="99.137688"
         r="3.9256949" />
      <ellipse
         style="opacity:0.990461;fill:#e17e3a;fill-opacity:1;fill-rule:evenodd;stroke:#e17e3a;stroke-width:1.68752;stroke-opacity:1"
         id="path55784-7-7"
         cx="135.93898"
         cy="99.137688"
         rx="4.2869749"
         ry="4.0804381" />
      <ellipse
         style="opacity:0.990461;fill:#e17e3a;fill-opacity:1;fill-rule:evenodd;stroke:#e17e3a;stroke-width:0.955368;stroke-opacity:1"
         id="path55784-7-2"
         cx="143.36635"
         cy="99.137688"
         rx="2.1666503"
         ry="2.5876837" />
      <ellipse
         style="opacity:0.990461;fill:#e17e3a;fill-opacity:1;fill-rule:evenodd;stroke:#e17e3a;stroke-width:0.955368;stroke-opacity:1"
         id="path55784-7-2-1"
         cx="148.74426"
         cy="99.137688"
         rx="2.1666503"
         ry="2.5876837" />
      <rect
         style="opacity:0.990461;fill:#e17e3a;fill-opacity:1;fill-rule:evenodd;stroke:#e17e3a;stroke-width:1.69482;stroke-linejoin:round;stroke-miterlimit:4;stroke-dasharray:none;stroke-opacity:1"
         id="rect57122"
         width="12.666669"
         height="27.453205"
         x="53.520294"
         y="85.411087"
         ry="8.9430885" />
      <rect
         style="opacity:0.990461;fill:#e17e3a;fill-opacity:1;fill-rule:evenodd;stroke:#e17e3a;stroke-width:1.27613;stroke-linejoin:round;stroke-miterlimit:4;stroke-dasharray:none;stroke-opacity:1"
         id="rect57122-1"
         width="13.085355"
         height="15.066606"
         x="75.658997"
         y="91.604385"
         ry="6.5426774" />
      <rect
         style="opacity:0.990461;fill:#e17e3a;fill-opacity:1;fill-rule:evenodd;stroke:#e17e3a;stroke-width:1.659;stroke-linejoin:round;stroke-miterlimit:4;stroke-dasharray:none;stroke-opacity:1"
         id="rect57122-6"
         width="8.0456257"
         height="27.789047"
         x="88.744354"
         y="85.243164"
         ry="9.0524912" />
      <rect
         style="opacity:0.990461;fill:#e17e3a;fill-opacity:1;fill-rule:evenodd;stroke:#e17e3a;stroke-width:1.07459;stroke-linejoin:round;stroke-miterlimit:4;stroke-dasharray:none;stroke-opacity:1"
         id="rect57122-1-0"
         width="9.1561546"
         height="15.268143"
         x="97.319145"
         y="91.503616"
         ry="6.6301947" />
      <ellipse
         style="opacity:0.990461;fill:#e17e3a;fill-opacity:1;fill-rule:evenodd;stroke:#e17e3a;stroke-width:2.0163;stroke-opacity:1"
         id="path55784-8-3"
         cx="111.94297"
         cy="99.137688"
         rx="4.7421975"
         ry="5.2660952" />
      <rect
         style="opacity:0.990461;fill:#e17e3a;fill-opacity:1;fill-rule:evenodd;stroke:#e17e3a;stroke-width:1.27613;stroke-linejoin:round;stroke-miterlimit:4;stroke-dasharray:none;stroke-opacity:1"
         id="rect57122-1-9"
         width="13.085355"
         height="15.066606"
         x="117.37944"
         y="91.604385"
         ry="6.5426774" />
      <path
         style="fill:#e17e3a;stroke:#e17e3a;stroke-width:1.66234;stroke-linecap:round;stroke-linejoin:miter;stroke-miterlimit:4;stroke-dasharray:none;stroke-opacity:1;fill-opacity:1"
         d="m 40.668278,102.55514 -17.409205,11.37837 18.859972,-6.37187"
         id="path57924" />
      <path
         style="fill:#e17e3a;stroke:#e17e3a;stroke-width:1.5;stroke-linecap:round;stroke-linejoin:miter;stroke-miterlimit:4;stroke-dasharray:none;stroke-opacity:1;fill-opacity:1"
         d="m 153.60262,99.137688 h 6.64908"
         id="path58267" />
    </g>
    <g
       id="g59167"
       style="fill:#e17e3a;fill-opacity:1;stroke:#e17e3a;stroke-opacity:1">
      <path
         style="fill:#e17e3a;stroke:#e17e3a;stroke-width:1.58062;stroke-linecap:round;stroke-linejoin:miter;stroke-miterlimit:4;stroke-dasharray:none;stroke-opacity:1;fill-opacity:1"
         d="M 42.649353,78.72825 H 165.50644"
         id="path58267-1" />
      <rect
         style="opacity:0.990461;fill:#e17e3a;fill-opacity:1;fill-rule:evenodd;stroke:#e17e3a;stroke-width:0.184128;stroke-linecap:round;stroke-linejoin:round;stroke-miterlimit:4;stroke-dasharray:none;stroke-opacity:1"
         id="rect58461-90-29"
         width="4.1930404"
         height="2.287535"
         x="158.83784"
         y="77.58448"
         ry="0" />
      <rect
         style="opacity:0.990461;fill:#e17e3a;fill-opacity:1;fill-rule:evenodd;stroke:#e17e3a;stroke-width:0.539238;stroke-linecap:round;stroke-linejoin:round;stroke-miterlimit:4;stroke-dasharray:none;stroke-opacity:1"
         id="rect58461"
         width="3.9489284"
         height="20.832489"
         x="68.233475"
         y="68.312004"
         ry="0" />
      <rect
         style="opacity:0.990461;fill:#e17e3a;fill-opacity:1;fill-rule:evenodd;stroke:#e17e3a;stroke-width:1.5;stroke-linecap:round;stroke-linejoin:round;stroke-miterlimit:4;stroke-dasharray:none;stroke-opacity:1"
         id="rect58461-9"
         width="7.3117199"
         height="29.535734"
         x="74.21479"
         y="63.960377"
         ry="0" />
      <rect
         style="opacity:0.990461;fill:#e17e3a;fill-opacity:1;fill-rule:evenodd;stroke:#e17e3a;stroke-width:0.549394;stroke-linecap:round;stroke-linejoin:round;stroke-miterlimit:4;stroke-dasharray:none;stroke-opacity:1"
         id="rect58461-90"
         width="5.9927921"
         height="14.249466"
         x="83.563965"
         y="71.603523"
         ry="0" />
      <rect
         style="opacity:0.990461;fill:#e17e3a;fill-opacity:1;fill-rule:evenodd;stroke:#e17e3a;stroke-width:0.546739;stroke-linecap:round;stroke-linejoin:round;stroke-miterlimit:4;stroke-dasharray:none;stroke-opacity:1"
         id="rect58461-6"
         width="4.9164224"
         height="17.201664"
         x="61.448147"
         y="70.127419"
         ry="0" />
      <rect
         style="opacity:0.990461;fill:#e17e3a;fill-opacity:1;fill-rule:evenodd;stroke:#e17e3a;stroke-width:0.8;stroke-linecap:round;stroke-linejoin:round;stroke-miterlimit:4;stroke-dasharray:none;stroke-opacity:1"
         id="rect58461-6-1"
         width="5.0343032"
         height="10.335876"
         x="54.600128"
         y="73.56031"
         ry="0" />
      <rect
         style="opacity:0.990461;fill:#e17e3a;fill-opacity:1;fill-rule:evenodd;stroke:#e17e3a;stroke-width:1.3;stroke-linecap:round;stroke-linejoin:round;stroke-miterlimit:4;stroke-dasharray:none;stroke-opacity:1"
         id="rect58461-90-4"
         width="16.600931"
         height="7.203218"
         x="97.279411"
         y="75.12664"
         ry="0" />
      <rect
         style="opacity:0.990461;fill:#e17e3a;fill-opacity:1;fill-rule:evenodd;stroke:#e17e3a;stroke-width:0.662176;stroke-linecap:round;stroke-linejoin:round;stroke-miterlimit:4;stroke-dasharray:none;stroke-opacity:1"
         id="rect58461-90-8"
         width="5.9927921"
         height="20.700325"
         x="115.86243"
         y="68.37809"
         ry="0" />
      <rect
         style="opacity:0.990461;fill:#e17e3a;fill-opacity:1;fill-rule:evenodd;stroke:#e17e3a;stroke-width:0.596691;stroke-linecap:round;stroke-linejoin:round;stroke-miterlimit:4;stroke-dasharray:none;stroke-opacity:1"
         id="rect58461-90-5"
         width="3.6894915"
         height="27.301907"
         x="123.81056"
         y="65.077293"
         ry="0" />
      <rect
         style="opacity:0.990461;fill:#e17e3a;fill-opacity:1;fill-rule:evenodd;stroke:#e17e3a;stroke-width:0.435265;stroke-linecap:round;stroke-linejoin:round;stroke-miterlimit:4;stroke-dasharray:none;stroke-opacity:1"
         id="rect58461-90-52"
         width="4.0357823"
         height="13.281265"
         x="91.375015"
         y="72.087624"
         ry="0" />
      <rect
         style="opacity:0.990461;fill:#e17e3a;fill-opacity:1;fill-rule:evenodd;stroke:#e17e3a;stroke-width:0.631536;stroke-linecap:round;stroke-linejoin:round;stroke-miterlimit:4;stroke-dasharray:none;stroke-opacity:1"
         id="rect58461-90-3"
         width="7.9646711"
         height="14.167324"
         x="129.44008"
         y="71.644585"
         ry="0" />
      <rect
         style="opacity:0.990461;fill:#e17e3a;fill-opacity:1;fill-rule:evenodd;stroke:#e17e3a;stroke-width:0.585915;stroke-linecap:round;stroke-linejoin:round;stroke-miterlimit:4;stroke-dasharray:none;stroke-opacity:1"
         id="rect58461-90-58"
         width="10.741016"
         height="9.0424013"
         x="139.3394"
         y="74.207054"
         ry="0" />
      <rect
         style="opacity:0.990461;fill:#e17e3a;fill-opacity:1;fill-rule:evenodd;stroke:#e17e3a;stroke-width:0.333428;stroke-linecap:round;stroke-linejoin:round;stroke-miterlimit:4;stroke-dasharray:none;stroke-opacity:1"
         id="rect58461-90-2"
         width="5.3871508"
         height="5.8385463"
         x="151.866"
         y="75.808983"
         ry="0" />
      <path
         style="fill:#e17e3a;stroke:#e17e3a;stroke-width:1.66234;stroke-linecap:round;stroke-linejoin:miter;stroke-miterlimit:4;stroke-dasharray:none;stroke-opacity:1;fill-opacity:1"
         d="M 31.617636,81.01234 14.208431,92.39071 33.068403,86.01884"
         id="path57924-1" />
    </g>
    <g
       id="g59135"
       transform="translate(-4.9347454,-106.88715)"
       style="fill:#e17e3a;fill-opacity:1;stroke:#e17e3a;stroke-opacity:1">
      <path
         style="fill:#e17e3a;fill-opacity:1;stroke:#e17e3a;stroke-width:1.5;stroke-linecap:butt;stroke-linejoin:miter;stroke-miterlimit:4;stroke-dasharray:none;stroke-opacity:1"
         d="m 45.195381,241.96359 8.216079,-0.4108 4.518846,-4.10804 2.054021,-17.66457 4.10804,4.92964 4.108042,-3.69723 2.464824,0.4108 v 36.15076 l -5.751258,-11.09171 -4.518846,2.05402 -2.054018,-6.16206 z"
         id="path58808" />
      <path
         style="fill:#e17e3a;fill-opacity:1;stroke:#e17e3a;stroke-width:1.5;stroke-linecap:butt;stroke-linejoin:miter;stroke-miterlimit:4;stroke-dasharray:none;stroke-opacity:1"
         d="m 77.704616,224.29903 v 30.3995 l 1.232413,-0.82161 2.875629,-3.69724 0.821608,4.92965 4.929648,-1.64321 3.286435,2.46482 1.232409,-15.19975 7.80528,-1.23241 -6.98367,-4.10804 c 0,0 2.87563,-1.23241 0,-2.46483 -2.87563,-1.23241 -3.697238,-3.28643 -3.697238,-3.28643 l -4.518842,0.4108 -1.232414,-5.34045 -1.232413,-2.87563 z"
         id="path58810" />
      <path
         style="fill:#e17e3a;fill-opacity:1;stroke:#e17e3a;stroke-width:1.5;stroke-linecap:butt;stroke-linejoin:miter;stroke-miterlimit:4;stroke-dasharray:none;stroke-opacity:1"
         d="m 106.39825,239.90958 2.46483,-4.51885 -1.23241,-4.51884 2.87562,-0.41081 0.41081,-7.39447 4.92965,7.80528 2.46482,2.87563 -4.51884,4.10804 1.64321,7.39447 -0.4108,14.78895 -4.51885,-9.8593 -1.64321,-5.34045 z"
         id="path58958" />
      <path
         style="fill:#e17e3a;fill-opacity:1;stroke:#e17e3a;stroke-width:1.5;stroke-linecap:butt;stroke-linejoin:miter;stroke-miterlimit:4;stroke-dasharray:none;stroke-opacity:1"
         d="m 122.58673,235.39073 3.69724,4.10804 -6.98367,5.34046 2.46482,4.10804 11.91332,-2.87563 -1.64321,-7.39447 -4.51885,-0.41081 z"
         id="path58960" />
      <path
         style="fill:#e17e3a;fill-opacity:1;stroke:#e17e3a;stroke-width:1.68216;stroke-linecap:butt;stroke-linejoin:miter;stroke-miterlimit:4;stroke-dasharray:none;stroke-opacity:1"
         d="m 145.59871,241.9636 -10.33276,4.10804 12.39931,1.23241 3.09984,-2.87563 -3.09984,-2.05402 z"
         id="path58962" />
      <path
         style="fill:#e17e3a;fill-opacity:1;stroke:#e17e3a;stroke-width:1.5;stroke-linecap:butt;stroke-linejoin:miter;stroke-miterlimit:4;stroke-dasharray:none;stroke-opacity:1"
         d="m 152.35261,244.42842 v 0 l 11.91331,4.10804 1.23242,-4.92965 z"
         id="path58964" />
      <path
         style="fill:#e17e3a;fill-opacity:1;stroke:#e17e3a;stroke-width:1.5;stroke-linecap:butt;stroke-linejoin:miter;stroke-miterlimit:4;stroke-dasharray:none;stroke-opacity:1"
         d="m 168.83352,246.53814 2.87563,-2.46482 2.87563,3.69724 z"
         id="path58966" />
    </g>
    <path
       style="fill:#e17e3a;fill-opacity:1;stroke:#e17e3a;stroke-width:1.5;stroke-linecap:round;stroke-linejoin:miter;stroke-miterlimit:4;stroke-dasharray:none;stroke-opacity:1"
       d="m 83.441708,373.96047 20.540202,-0.82161 1.97873,-3.98365 2.12931,4.80526 4.62033,-18.19977 1.95253,16.72728 5.75126,-24.40817 2.87563,23.215 3.28643,-38.41475 2.00758,36.35288 4.79556,-17.06012 3.33598,16.97492 4.23902,-15.31667 3.28644,18.2461 2.87562,-9.61921 3.28644,8.27822 4.10804,-10.74305 2.77488,11.11525 2.56557,-7.00721 3.12356,9.10768 2.21689,-6.64285 3.23214,6.38708 2.92992,-7.20869 3.02281,6.37923 2.72845,-4.32521 5.34045,3.28643 32.04272,3.69724 -38.4584,0.18575 -2.04093,5.73816 -3.21641,-7.72023 -3.29096,7.25704 -4.50668,-7.03395 -3.03425,8.0937 -2.65488,-10.19417 -3.05708,11.98385 -4.30691,-10.55062 -2.30525,11.68896 -3.10069,-10.24913 -2.47792,9.61328 -4.35927,-13.68797 -2.96733,20.73951 -3.77582,-18.65213 c 0,0 -3.12688,39.76032 -3.53768,38.11711 -0.4108,-1.64322 -1.64322,-39.00349 -1.64322,-39.00349 l -2.87562,30.3766 -2.87563,-28.75629 -3.04119,15.468 -2.29927,-15.70808 -4.17325,18.64198 -2.91665,-13.58998 z"
       id="path59202"
       sodipodi:nodetypes="ccccccccccccccccccccccccccccccccccccccccccscccccccc" />
    <path
       style="fill:#e17e3a;fill-opacity:1;stroke:#e17e3a;stroke-width:1;stroke-linecap:butt;stroke-linejoin:miter;stroke-miterlimit:4;stroke-dasharray:1, 1;stroke-dashoffset:0;stroke-opacity:1"
       d="m 41.072229,195.59944 14.307927,-1.90772 1.907723,-8.58476 1.430792,10.49248 1.430793,-21.46189 1.430792,26.70813 4.292378,-38.6314 0.47693,27.18506 2.384655,-15.73872 0.953863,21.46189 3.815445,-25.75427 v 19.07724 l 1.907725,-7.6309 0.47693,11.44634 1.430793,-7.63089 0.47693,9.06169 1.907725,-4.76931 v 3.81544 l 1.430792,-4.7693 0.47693,2.38465 1.430793,-3.33852 1.430792,3.81545 0.953863,-7.15396 0.95386,8.10782 2.384655,-10.96941 0.47693,6.67704 2.384655,-14.78486 0.953863,12.4002 3.815448,-14.78485 0.47693,15.26178 1.90772,-12.4002 0.95386,18.12337 2.861599,-20.50802 1.4308,22.41575 1.90773,-10.49248 0.95387,7.15396 1.90774,-4.76931 0.95386,7.63089 2.38468,-7.63089 0.47693,6.2001 1.90773,-3.33851 1.90773,3.81544 2.38468,-3.33851 0.95386,2.86158 2.86157,-2.38465 0.47694,2.86158 28.13891,0.95386 -26.70812,2.86159 -0.95386,8.58476 -1.4308,-8.58476 -1.90771,4.76931 -1.90773,-5.72317 -0.95386,9.53862 -1.43081,-8.10783 -1.4308,2.86159 v -4.29238 l -2.38466,10.49248 -1.43081,-9.53862 -2.8616,9.06169 -1.4308,-6.67703 -2.38467,15.26178 -0.95386,-16.69258 -1.90773,20.50803 -2.861599,-20.98496 -0.47693,15.26179 -2.861586,-15.26179 -0.95386,19.55417 -0.476932,-19.07724 -1.907723,13.831 -2.861585,-14.30793 -1.430792,6.67703 -2.384656,-6.67703 -3.338515,7.15396 v -6.2001 l -1.430792,5.72317 -0.953863,-5.72317 -2.861585,5.72317 v -6.2001 l -3.338515,15.73872 -0.47693,-14.30792 -1.430793,10.01554 -1.430792,-9.53861 -3.338518,20.03109 -0.95386,-18.12337 -1.907725,9.06169 -1.430793,-5.72317 -1.430792,5.72317 -0.47693,-6.67704 -3.338515,4.29238 0.47693,-7.63089 z"
       id="path64535" />
    <path
       style="fill:#e17e3a;fill-opacity:1;stroke:#e17e3a;stroke-width:0.365;stroke-linecap:round;stroke-linejoin:bevel;stroke-miterlimit:4;stroke-dasharray:1.46, 0.73;stroke-dashoffset:0;stroke-opacity:1;paint-order:stroke fill markers"
       d="m 35.280084,271.84647 17.485703,-2.01758 2.690109,-7.3978 2.01758,6.05274 1.345054,-8.74285 2.017588,8.07033 1.34505,-11.43296 2.01758,9.41538 2.69011,-12.77802 0.67252,10.08791 2.23772,-16.57485 2.46997,16.57485 2.69011,-12.77802 1.34506,11.43296 2.6901,-7.39779 1.34506,6.72526 2.01758,-6.05274 2.69011,7.3978 2.69011,-5.38022 1.34505,6.05275 2.69011,-12.10549 2.01758,10.0879 4.03516,-21.52086 0.67253,21.52086 3.362632,-26.90108 0.67253,22.1934 3.36264,-27.57361 1.34505,28.91866 2.01758,-24.8835 2.69011,24.8835 1.34505,-19.50328 1.34506,22.19339 3.36263,-18.15823 2.01759,17.4857 1.34505,-12.10549 2.69011,14.12307 1.34505,-9.41537 3.36264,8.74284 2.6901,-6.05274 2.01759,6.05274 2.6901,-4.70768 3.36264,5.38021 2.01758,-4.03516 2.69011,2.69011 19.50328,3.36263 -20.84834,1.34506 -1.34505,6.05274 -2.44253,-5.13818 -1.71088,3.97604 -2.14691,-4.21807 -3.11506,4.70768 -2.01758,-6.05274 -1.71088,6.66061 -2.32428,-5.98808 -1.34506,16.14064 -2.6901,-14.79559 -2.01758,19.5033 -2.69011,-20.17582 -4.70769,21.52085 V 265.1212 l -2.01758,20.84835 -3.36264,-22.19341 v 29.59119 l -6.05274,-28.24613 -2.690112,17.48571 -2.69011,-18.15824 -2.07116,11.43296 -2.51274,-9.48004 -2.51274,6.60148 -2.31874,-6.53682 -2.98572,7.26847 -3.06702,-7.94099 -1.29147,10.3946 -2.07117,-10.3946 -2.6901,21.52085 -2.69011,-20.1758 -2.01758,13.45054 -2.69011,-14.12307 -2.08225,10.57752 -1.28039,-8.55994 -2.38895,6.72527 -3.233301,-3.00235 -1.468842,7.46247 -2.324283,-7.82275 z"
       id="path64913"
       sodipodi:nodetypes="ccccccccccccccccccccccccccccccccccccccccccccccccccccccccccccccccccccccccccccccccccccc" />
  </g>
</svg>
