<?xml version="1.0" encoding="UTF-8" standalone="no"?>
<!-- Created with Inkscape (http://www.inkscape.org/) -->

<svg
   width="210mm"
   height="297mm"
   viewBox="0 0 210 297"
   version="1.1"
   id="svg1"
   inkscape:version="1.1.2 (b8e25be833, 2022-02-05)"
   sodipodi:docname="wasching_machine.svg"
   xmlns:inkscape="http://www.inkscape.org/namespaces/inkscape"
   xmlns:sodipodi="http://sodipodi.sourceforge.net/DTD/sodipodi-0.dtd"
   xmlns="http://www.w3.org/2000/svg"
   xmlns:svg="http://www.w3.org/2000/svg">
  <sodipodi:namedview
     id="namedview1"
     pagecolor="#ffffff"
     bordercolor="#000000"
     borderopacity="0.25"
     inkscape:showpageshadow="2"
     inkscape:pageopacity="0.0"
     inkscape:pagecheckerboard="0"
     inkscape:deskcolor="#d1d1d1"
     inkscape:document-units="mm"
     inkscape:zoom="1.0569522"
     inkscape:cx="205.78036"
     inkscape:cy="402.57261"
     inkscape:window-width="1920"
     inkscape:window-height="991"
     inkscape:window-x="-9"
     inkscape:window-y="-9"
     inkscape:window-maximized="1"
     inkscape:current-layer="layer3"
     inkscape:pageshadow="2"
     showgrid="false" />
  <defs
     id="defs1" />
  <g
     inkscape:label="Layer 1"
     inkscape:groupmode="layer"
     id="layer1" />
  <g
     inkscape:groupmode="layer"
     id="layer2"
     inkscape:label="sketch"
     style="display:none;opacity:0.289">
    <path
       style="fill:#000000;fill-opacity:1;fill-rule:nonzero;stroke:none;stroke-width:0.264583"
       id="path1"
       d="m 45.369072,103.95883 c -0.01254,3.21007 0.157141,6.42027 0.33796,9.62463 0.310179,5.04206 0.500399,10.09097 0.479954,15.14258 -0.199612,5.85236 -0.678635,11.69205 -1.136972,17.52881 -0.396952,5.09759 -0.499272,10.21281 -0.577747,15.32349 -0.03359,3.22375 -0.147839,6.45429 0.215574,9.66369 0.12854,0.58898 0.116959,1.23095 0.535469,1.69336 0,0 0.04544,-0.0255 0.04544,-0.0255 v 0 c -0.04726,-0.61879 -0.195749,-1.22081 -0.253484,-1.83947 -0.373539,-3.20231 -0.262604,-6.42718 -0.241888,-9.645 0.06534,-5.10729 0.166463,-10.21812 0.560547,-15.31251 0.445275,-5.83604 0.909621,-11.67474 1.123423,-17.52447 0.03219,-5.05409 -0.170516,-10.10502 -0.469564,-15.15003 -0.175199,-3.20618 -0.333348,-6.41724 -0.325898,-9.62881 z" />
    <path
       style="fill:#000000;fill-opacity:1;fill-rule:nonzero;stroke:none;stroke-width:0.264583"
       id="path2"
       d="m 45.705183,105.54055 c 2.363621,1.27528 4.784368,2.44025 7.195777,3.62159 3.439189,1.8155 7.101536,3.07077 10.779329,4.29027 3.301913,1.09541 6.5059,2.45712 9.693743,3.84359 2.807703,1.14302 5.621068,2.25927 8.410276,3.44799 2.047544,0.94094 4.201155,1.61078 6.360806,2.23805 0.456067,0.12514 0.909804,0.26184 1.372208,0.36234 0.477512,-0.1887 0.912688,-0.56871 1.383951,-0.80705 3.515436,-1.65736 7.25148,-2.82997 10.927787,-4.08025 5.09446,-1.68223 10.22809,-3.24357 15.35114,-4.83621 3.01817,-0.92607 5.99402,-1.98308 8.92825,-3.1468 1.04326,-0.42884 1.92401,-1.14053 2.84101,-1.77925 1.20294,-0.84538 2.55169,-1.42881 3.87807,-2.04628 0.56295,-0.25486 1.1196,-0.52415 1.68633,-0.7707 0.12322,-0.10904 0.27057,-0.19577 0.36967,-0.32712 0.10492,-0.13909 -0.44298,-0.56769 -0.49492,-0.61109 -0.94754,-0.87282 -2.00392,-1.59486 -3.09856,-2.26802 -2.82552,-1.58182 -5.51922,-3.375984 -8.19275,-5.198476 -2.90776,-2.214946 -6.1508,-3.840877 -9.43663,-5.398955 -3.26797,-1.511472 -6.62046,-2.834445 -9.87876,-4.365419 -2.11102,-1.064006 -4.282314,-1.996046 -6.42523,-2.990964 -0.32966,-0.275264 -0.926965,-0.349326 -1.206561,-0.692671 -0.0268,-0.08367 -0.06467,-0.161666 -0.08156,-0.248145 0,0 -0.03261,0.01601 -0.03261,0.01601 v 0 c -0.04481,0.11067 -0.09628,0.221504 -0.08624,0.344127 0.06139,0.414721 0.875845,0.516861 1.119508,0.769787 2.069507,1.11892 4.306863,1.908069 6.382753,3.020147 3.26104,1.527247 6.61297,2.853701 9.88328,4.362225 3.28373,1.557703 6.52633,3.179157 9.43089,5.39541 2.67151,1.823831 5.36445,3.616954 8.18486,5.205764 1.09304,0.67381 2.13818,1.40448 3.09517,2.26363 0.0187,0.0151 0.28138,0.22408 0.32321,0.26946 0.0539,0.0585 0.10872,0.11862 0.14519,0.18928 0.0153,0.0297 -0.009,0.0927 0.0239,0.0972 0.0879,0.0121 0.17327,-0.0387 0.25991,-0.058 -0.5737,0.26998 -1.15188,0.5304 -1.72521,0.80117 -1.51541,0.70723 -3.04235,1.3981 -4.42041,2.35843 -0.74648,0.52031 -1.45584,1.11703 -2.3015,1.47157 -2.93707,1.17809 -5.92114,2.23497 -8.94662,3.16406 -5.11497,1.59203 -10.24274,3.14514 -15.33133,4.8199 -3.658128,1.23605 -7.372569,2.4009 -10.875776,4.03157 -0.410581,0.22813 -1.33776,0.78358 -1.354842,0.81819 -0.470622,-0.0767 -0.924774,-0.23922 -1.387959,-0.34688 -2.168432,-0.61149 -4.326503,-1.28209 -6.379824,-2.21975 -2.788152,-1.19062 -5.600901,-2.30684 -8.408892,-3.44866 -3.193605,-1.38265 -6.400837,-2.747 -9.708562,-3.83731 -3.674811,-1.2204 -7.33955,-2.46819 -10.773825,-4.28847 -2.412008,-1.18114 -4.825342,-2.36103 -7.197884,-3.61987 z" />
    <path
       style="fill:#000000;fill-opacity:1;fill-rule:nonzero;stroke:none;stroke-width:0.264583"
       id="path3"
       d="m 45.846759,102.34822 c 4.374631,-2.355232 8.832117,-4.553117 13.333846,-6.653642 5.616961,-2.78053 11.63724,-4.520967 17.597442,-6.378429 2.217643,-0.608097 4.374208,-1.493668 6.656295,-1.840505 2.234875,-0.393359 -0.7494,0.738081 -0.97495,0.840626 -4.292822,2.019041 -8.734268,3.690043 -13.132376,5.459158 -5.625714,2.236843 -10.9352,5.142564 -16.088225,8.299062 0,0 0.01865,-0.007 0.01865,-0.007 v 0 c 5.102754,-3.125574 10.358609,-6.008027 15.942926,-8.192245 4.378764,-1.747972 8.796248,-3.408513 13.069456,-5.408321 0.31654,-0.142682 3.802841,-1.563428 1.357543,-1.135787 -2.299271,0.346855 -4.466071,1.258749 -6.700054,1.869709 -5.962322,1.869049 -11.990353,3.605419 -17.612693,6.387344 -4.511945,2.102956 -8.989425,4.289324 -13.360503,6.67338 z" />
    <path
       style="fill:#000000;fill-opacity:1;fill-rule:nonzero;stroke:none;stroke-width:0.264583"
       id="path4"
       d="m 48.798429,104.83132 c 5.286129,-4.45607 11.443303,-7.638242 17.552736,-10.787935 6.532528,-3.261878 13.198504,-6.264047 20.125163,-8.586343 1.896835,-0.572841 3.819761,-1.159888 5.806043,-1.309047 0.06543,-0.0038 0.130763,-0.01061 0.1963,-0.01132 0.04157,-5.29e-4 -0.08517,-0.0036 -0.124277,0.01053 -0.205616,0.07421 -0.401474,0.173318 -0.60514,0.252714 -0.267316,0.104212 -0.537752,0.200256 -0.807503,0.297995 -1.194456,0.432787 -0.831178,0.303411 -2.079638,0.698109 -1.066236,0.242567 -2.110809,0.666816 -3.208639,0.755041 -0.35062,0.02818 -0.308155,0.10454 -0.346985,-0.07239 1.087496,-0.287162 2.213655,-0.393184 3.332411,-0.479086 0,0 0.01611,-0.01188 0.01611,-0.01188 v 0 c -1.159581,0.07373 -2.435574,0.0273 -3.488422,0.569487 0.108217,0.171916 0.02945,0.09598 0.403436,0.05618 1.12077,-0.119272 2.189853,-0.529807 3.276288,-0.805114 0.973476,-0.307697 1.928617,-0.645615 2.887223,-0.995998 0.220642,-0.08065 0.762482,-0.24158 0.951333,-0.42659 0.0445,-0.04359 -0.124581,0.0021 -0.18687,0.003 -2.00657,0.169575 -3.948784,0.756137 -5.864643,1.346282 -6.948074,2.347767 -13.638564,5.363724 -20.196201,8.639456 -6.15755,3.17282 -12.39004,6.364199 -17.69769,10.880899 z" />
    <path
       style="fill:#000000;fill-opacity:1;fill-rule:nonzero;stroke:none;stroke-width:0.264583"
       id="path5"
       d="m 87.572637,85.594046 c 2.677401,0.320918 5.298559,1.067271 7.854344,1.90895 3.44006,1.214361 6.734169,2.783277 10.022909,4.3502 3.1126,1.659959 6.39756,2.944754 9.61998,4.366075 2.87187,1.288484 5.48081,3.037906 8.05128,4.833619 2.4195,1.74704 4.94875,3.33253 7.42031,5.00292 1.53961,1.02484 3.08939,2.04716 4.69884,2.96085 0.24261,0.13716 0.46806,0.14698 0.73311,0.12507 0,0 0.0162,-0.0117 0.0162,-0.0117 v 0 c -0.19049,-0.0523 -0.32416,-0.19331 -0.50973,-0.26753 -1.49916,-1.07394 -3.15872,-1.90299 -4.64954,-2.99147 -2.47204,-1.67084 -5.00395,-3.25352 -7.42527,-4.99913 -2.57372,-1.796519 -5.17919,-3.555763 -8.05922,-4.836203 -3.22377,-1.420112 -6.50949,-2.705468 -9.62475,-4.361773 -3.29257,-1.564658 -6.588706,-3.133889 -10.030969,-4.349665 -2.567649,-0.847357 -5.201417,-1.599317 -7.897006,-1.890477 z" />
    <path
       style="fill:#000000;fill-opacity:1;fill-rule:nonzero;stroke:none;stroke-width:0.264583"
       id="path6"
       d="m 135.97152,107.21617 c -0.16021,2.8509 -0.45235,5.69065 -0.83378,8.5198 -0.46477,3.95396 -1.07159,7.87789 -1.89944,11.7715 -1.05302,4.71015 -2.39695,9.34891 -3.6302,14.01375 -1.31654,5.02729 -2.51582,10.08557 -3.52181,15.18423 -0.46963,2.17375 -0.87027,4.35825 -1.15406,6.56368 0,0 0.018,-0.009 0.018,-0.009 v 0 c 0.49545,-2.21657 0.94667,-4.44209 1.37758,-6.67212 0.99704,-5.0924 2.18815,-10.1457 3.49193,-15.16805 1.23116,-4.66591 2.57732,-9.3045 3.63046,-14.01514 0.83249,-3.89542 1.44708,-7.81961 1.90692,-11.77717 0.38475,-2.83166 0.68486,-5.67516 0.84476,-8.52909 z" />
    <path
       style="fill:#000000;fill-opacity:1;fill-rule:nonzero;stroke:none;stroke-width:0.264583"
       id="path7"
       d="m 88.609013,125.90511 c 0.0046,5.4505 0.184555,10.89944 0.278336,16.34913 0.05494,7.81337 0.276633,15.62363 0.440579,23.43511 0.108117,5.26535 0.151646,10.53168 0.163772,15.79804 0.04114,1.95625 0.252082,3.90251 0.378812,5.85385 0.08862,0.92237 0.103907,1.84737 0.109796,2.77329 0.04541,0.22653 -0.01249,1.57819 0.225,1.5636 0.434424,-0.24436 0.605758,-0.7095 0.865938,-1.10684 1.165085,-1.05725 2.496286,-1.93675 3.766617,-2.86327 3.15864,-2.36436 6.484747,-4.48603 9.859427,-6.52495 2.85159,-1.77637 5.89446,-3.21067 8.87046,-4.76071 1.07249,-0.59889 2.13158,-1.21785 3.17739,-1.86189 0,0 -0.0914,0.0354 -0.0914,0.0354 v 0 c -0.9536,0.59223 -1.93423,1.13109 -2.91031,1.68552 -3.11386,1.60899 -6.28144,3.12759 -9.25948,4.98405 -3.37804,2.04139 -6.706062,4.16714 -9.869971,6.53124 -1.262583,0.91689 -2.614599,1.77783 -3.739361,2.86187 -0.17738,0.33589 -0.30039,0.70127 -0.592445,0.96182 -0.319002,0.081 0.02426,-1.40964 -0.03532,-1.64182 -0.0036,-0.93468 -0.006,-1.86998 -0.05569,-2.80338 -0.131744,-1.94908 -0.360378,-3.89188 -0.386746,-5.8473 -0.03403,-5.25928 -0.08112,-10.51865 -0.206804,-15.77669 -0.181925,-7.80679 -0.410747,-15.61246 -0.46673,-23.42158 -0.09912,-5.4498 -0.269587,-10.89927 -0.275535,-16.35001 z" />
    <path
       style="fill:#000000;fill-opacity:1;fill-rule:nonzero;stroke:none;stroke-width:0.264583"
       id="path8"
       d="m 135.49558,111.27798 c -0.53186,4.11609 -1.02075,8.23704 -1.59869,12.34804 -0.95301,6.988 -2.38828,13.89705 -3.86564,20.78933 -1.06668,4.56904 -1.98015,9.16964 -2.76823,13.79416 -0.59012,2.80018 -0.96215,5.63637 -1.43248,8.45686 -0.23956,1.09499 -0.22619,2.2394 -0.57274,3.30887 0.0221,0.17633 -0.5046,0.83226 -0.17411,0.50507 -0.50499,-0.003 -0.97816,0.0635 -1.47057,0.18735 -2.67986,0.95593 -5.15296,2.39903 -7.63195,3.77552 -2.32795,1.37513 -1.24481,0.69617 -3.26041,2.01926 0,0 0.0186,-0.007 0.0186,-0.007 v 0 c 2.03673,-1.29674 1.00894,-0.66893 3.08304,-1.88393 2.44809,-1.35127 4.89266,-2.76147 7.53383,-3.70685 0.49625,-0.13191 0.97102,-0.20397 1.48196,-0.19799 0.45758,-0.20912 0.54171,-0.34043 0.6981,-0.82244 0.33514,-1.07167 0.32704,-2.21642 0.56669,-3.31087 0.45738,-2.81686 0.82617,-5.64761 1.40636,-8.44393 0.7834,-4.61715 1.67892,-9.21291 2.73421,-13.77645 1.457,-6.88926 2.86486,-13.79556 3.8306,-20.77391 0.59185,-4.10465 1.1043,-8.21652 1.57411,-12.33626 z" />
    <path
       style="fill:#000000;fill-opacity:1;fill-rule:nonzero;stroke:none;stroke-width:0.264583"
       id="path9"
       d="m 96.06617,151.7647 c 0.174646,2.05091 0.0828,0.96428 0.275007,3.25992 0,0 0.01775,-0.009 0.01775,-0.009 v 0 c -0.192508,-2.29936 -0.111686,-1.20815 -0.248624,-3.27318 z" />
    <path
       style="fill:#000000;fill-opacity:1;fill-rule:nonzero;stroke:none;stroke-width:0.264583"
       id="path10"
       d="m 115.48459,137.21821 c -3.01778,-0.61428 -6.69173,-0.24679 -9.54907,0.88671 -0.78205,0.31025 -1.50488,0.75285 -2.25733,1.12927 -0.77867,0.58624 -1.65187,1.06448 -2.33602,1.7587 -3.272874,3.32108 -4.306834,8.96338 -4.256069,13.43277 0.01471,1.29528 0.22914,2.58057 0.34371,3.87086 0.403151,1.19226 0.678296,2.43577 1.209455,3.57678 1.624684,3.49002 4.037024,5.5801 7.844514,6.39331 2.79478,0.59691 3.83976,0.1144 6.56301,-0.40723 4.52766,-1.71174 7.83963,-3.87133 9.88066,-8.442 1.1759,-2.63332 1.0381,-3.56131 1.31805,-6.38428 -0.25666,-4.8411 -0.91182,-8.19502 -5.01831,-11.28286 -2.23997,-1.68433 -3.15776,-1.70997 -5.77994,-2.50063 -1.0806,-0.0632 -2.16034,-0.23606 -3.24179,-0.18963 -4.43198,0.19027 -8.78723,2.18318 -11.906871,5.32691 -0.770096,0.77603 -1.342345,1.72604 -2.013519,2.58907 -0.515197,1.00909 -1.195776,1.94964 -1.545593,3.02729 -1.509678,4.6507 -0.727823,10.77628 1.697297,14.9897 0.553315,0.96133 1.326655,1.77799 1.989984,2.66698 0.821182,0.65527 1.544868,1.45616 2.463542,1.96581 2.90699,1.61271 6.32038,1.47281 9.38191,0.46159 2.78772,-0.92077 3.90183,-1.8718 6.3876,-3.46812 2.91054,-2.23934 5.47115,-4.78842 6.69407,-8.35255 0.90443,-2.63592 1.16645,-5.82002 1.0727,-8.57475 -0.0485,-1.42519 -0.31464,-2.83462 -0.47196,-4.25192 -0.31956,-1.26994 -0.51975,-2.57605 -0.95867,-3.80983 -1.0879,-3.05798 -3.06631,-5.82684 -5.90735,-7.47922 -2.1715,-1.26297 -2.90278,-1.11045 -5.32809,-1.42106 -3.2841,-0.0101 -5.85535,1.60138 -8.56794,3.21193 0,0 0.075,-0.0289 0.075,-0.0289 v 0 c 2.65829,-1.56068 4.94239,-2.93592 8.15196,-2.94185 2.40978,0.3052 3.1522,0.15648 5.31513,1.40341 2.83747,1.6358 4.82759,4.39398 5.93501,7.43235 0.44699,1.22638 0.65739,2.52647 0.98609,3.78971 0.16492,1.41156 0.44076,2.81454 0.49477,4.23468 0.1028,2.70273 -0.15766,5.95552 -1.04204,8.5465 -1.21537,3.56066 -3.78844,6.10191 -6.69169,8.33618 -2.35555,1.53831 -3.20842,2.30849 -5.93156,3.21139 -3.05071,1.01152 -6.42036,1.14626 -9.30838,-0.47953 -0.91151,-0.51313 -1.630332,-1.31098 -2.445497,-1.96647 -0.660207,-0.88767 -1.429946,-1.70354 -1.980623,-2.66301 -2.432701,-4.23862 -3.17078,-10.3213 -1.629262,-14.98543 0.355494,-1.07561 1.036087,-2.01489 1.554131,-3.02233 1.505341,-1.92523 2.135304,-3.05164 4.120291,-4.44485 2.6179,-1.83743 5.87045,-2.91136 9.06261,-3.05468 1.07805,-0.0484 2.15479,0.12273 3.23218,0.1841 2.61793,0.78256 3.53478,0.80686 5.77465,2.47998 4.10916,3.06945 4.78108,6.38164 5.06616,11.21622 -0.263,2.80293 -0.12067,3.7334 -1.27964,6.35057 -1.30061,2.93705 -3.50557,5.34719 -6.3396,6.85199 -0.97509,0.51775 -2.03046,0.86757 -3.04569,1.30135 -2.71591,0.52609 -3.77069,1.0116 -6.56108,0.42391 -3.79981,-0.8003 -6.21858,-2.8874 -7.839724,-6.36869 -0.530503,-1.13921 -0.803024,-2.38161 -1.204534,-3.57242 -0.114014,-1.28908 -0.328568,-2.57319 -0.34204,-3.86723 -0.04875,-4.68248 1.012735,-9.89837 4.305528,-13.42876 0.52972,-0.56795 1.21193,-0.97156 1.81789,-1.45734 0.75178,-0.37817 1.4737,-0.8227 2.25534,-1.13449 2.89056,-1.15304 6.48986,-1.49414 9.54272,-0.90448 z" />
    <path
       style="fill:#000000;fill-opacity:1;fill-rule:nonzero;stroke:none;stroke-width:0.264583"
       id="path11"
       d="m 111.32228,131.47172 c -0.33407,0.0949 -0.68162,0.15124 -1.00222,0.28477 -3.02786,1.26121 -5.75387,3.37161 -7.97788,5.74828 -0.67283,0.71901 -1.28287,1.49431 -1.92431,2.24146 -0.553165,0.83506 -1.1781,1.62678 -1.659502,2.50516 -2.202815,4.01935 -3.177225,8.74607 -3.239828,13.29649 -0.01609,1.16905 0.10082,2.33614 0.151228,3.50422 0.203073,1.06388 0.314201,2.1495 0.609217,3.19163 1.072192,3.78748 3.566249,6.73677 7.170355,8.36223 0.78531,0.35417 1.6408,0.5257 2.4612,0.78855 0.86117,0.0626 1.72229,0.24953 2.58352,0.18779 4.03582,-0.28934 7.2456,-2.8527 10.22125,-5.31957 0,0 -0.0186,0.007 -0.0186,0.007 v 0 c -2.92951,2.4262 -6.08383,4.9355 -10.0588,5.20918 -0.85366,0.0588 -1.7062,-0.13279 -2.5593,-0.19919 -0.81513,-0.26447 -1.66526,-0.43876 -2.44539,-0.7934 -3.57993,-1.62741 -6.083108,-4.58336 -7.147392,-8.35343 -0.294092,-1.04179 -0.40192,-2.12737 -0.602882,-3.19105 -0.04799,-1.16828 -0.16301,-2.33574 -0.14396,-3.50485 0.07418,-4.55332 1.066636,-9.28232 3.277997,-13.29933 0.482833,-0.87708 1.107677,-1.66813 1.661507,-2.5022 0.64128,-0.74621 1.25083,-1.5209 1.92383,-2.23863 2.2956,-2.44812 5.2659,-4.79895 8.52508,-5.78072 z" />
    <path
       style="fill:#000000;fill-opacity:1;fill-rule:nonzero;stroke:none;stroke-width:0.264583"
       id="path12"
       d="m 93.187146,126.99948 c 0.0579,1.33889 -0.0915,2.69965 0.06188,4.03417 -0.0864,-1.26177 -0.817128,-2.37642 -1.443987,-3.4429 -0.0997,-0.18805 -0.293886,-0.49208 -0.303059,-0.72627 -0.03122,-0.79718 1.346634,-1.28497 1.863331,-1.55575 3.559696,-1.62374 7.260349,-2.92448 10.923119,-4.29601 1.82708,-0.67684 3.69657,-1.22574 5.57144,-1.75124 0,0 0.0159,-0.0122 0.0159,-0.0122 v 0 c -1.83295,0.42249 -3.63317,0.98048 -5.40217,1.61848 -3.65538,1.36948 -7.346988,2.67042 -10.905403,4.27775 -0.41655,0.22598 -2.371974,1.02027 -2.299994,1.84743 0.02175,0.24978 0.232108,0.51002 0.357378,0.7019 0.323022,0.51781 0.693658,1.01366 0.973034,1.55743 0.110577,0.21523 0.197628,0.44176 0.296439,0.66263 0.07676,0.20579 0.132488,0.4207 0.23028,0.61736 0.07523,0.1513 0.190077,0.27941 0.285115,0.41912 0.13969,-1.35782 0.01429,-2.73571 0.06188,-4.09722 z" />
    <path
       style="fill:#000000;fill-opacity:1;fill-rule:nonzero;stroke:none;stroke-width:0.264583"
       id="path13"
       d="m 109.70698,119.51925 c -0.21782,1.54165 -0.50583,3.07646 -0.67569,4.62389 0,0 0.018,-0.009 0.018,-0.009 v 0 c 0.48986,-1.54197 0.63898,-3.13918 0.89534,-4.73208 z" />
    <path
       style="fill:#000000;fill-opacity:1;fill-rule:nonzero;stroke:none;stroke-width:0.264583"
       id="path14"
       d="m 96.694116,131.59777 c -0.544317,0.4459 -2.107422,0.87369 -2.540278,1.34042 -0.05678,0.0612 0.160091,-0.0475 0.240136,-0.0713 2.961293,-1.57336 5.946996,-3.09645 8.797066,-4.86761 0.19495,-0.14475 0.43357,-0.24433 0.58485,-0.43426 0.0501,-0.063 -0.166,-0.0251 -0.24142,0.003 -0.30812,0.1148 -0.59932,0.27121 -0.89279,0.41952 -1.30762,0.66081 -2.59316,1.3716 -3.889177,2.05507 2.116117,-0.83265 -1.796855,0.81855 -1.294855,0.77839 0.29804,-0.0238 0.572108,-0.17492 0.85309,-0.27712 0.509244,-0.18522 1.01064,-0.39136 1.516796,-0.58486 3.128916,-1.19615 0.914076,-0.32539 4.184746,-1.63276 2.77804,-1.17414 1.44182,-0.60611 4.00917,-1.70289 0,0 0.0157,-0.0124 0.0157,-0.0124 v 0 c -2.47918,1.03414 -1.1958,0.50692 -3.85129,1.57883 -1.87915,0.74674 -3.77569,1.44429 -5.657352,2.18381 -0.267692,0.1052 -0.528801,0.22677 -0.797065,0.33051 -0.0489,0.0189 -0.197583,0.0643 -0.152916,0.0369 0.323385,-0.1988 0.66317,-0.3696 0.994757,-0.5544 1.30175,-0.6861 2.592356,-1.39861 3.902996,-2.06733 0.29322,-0.1496 0.58849,-0.29598 0.89081,-0.42619 0.0768,-0.0331 0.29718,-0.12581 0.24301,-0.0621 -0.14829,0.17428 -0.36342,0.27815 -0.54513,0.41723 -2.72879,1.73613 -5.639689,3.14534 -8.486802,4.6724 -0.07016,0.0448 -0.138181,0.0931 -0.210468,0.13442 -0.161025,0.092 0.324972,-0.17886 0.490392,-0.26266 0.567727,-0.28762 1.133671,-0.57883 1.693352,-0.88189 z" />
    <path
       style="fill:#000000;fill-opacity:1;fill-rule:nonzero;stroke:none;stroke-width:0.264583"
       id="path15"
       d="m 94.474386,130.94826 c 2.06252,-0.9488 4.16579,-1.8013 6.230824,-2.74624 0,0 0.033,-0.0261 0.033,-0.0261 v 0 c -2.014196,0.8779 -4.061886,1.67858 -6.054196,2.60472 z" />
    <path
       style="fill:#000000;fill-opacity:1;fill-rule:nonzero;stroke:none;stroke-width:0.264583"
       id="path16"
       d="m 118.2248,118.90704 c -0.72149,1.45176 0.35736,1.48189 1.46538,1.1627 0.82546,-0.39694 2.47271,-1.514 1.40993,-2.57703 -0.15152,-0.15155 -0.35965,-0.23315 -0.53947,-0.34972 -0.21578,-0.0245 -0.4346,-0.11726 -0.64735,-0.0736 -0.24996,0.0513 -0.47565,0.19718 -0.68264,0.34639 -0.739,0.53269 -1.53019,1.22421 -1.52444,2.22693 0.001,0.18912 0.0887,0.36768 0.13312,0.55151 0.13868,0.0923 0.25536,0.23287 0.41603,0.27681 0.69928,0.19122 1.64262,-0.53074 2.02694,-0.98054 0.35604,-0.41672 0.31527,-0.91461 0.35243,-1.40938 -0.0636,-0.2139 -0.0751,-0.45087 -0.19079,-0.64169 -0.71467,-1.17874 -2.22392,-0.31795 -2.7945,0.47735 0,0 0.0682,-0.0283 0.0682,-0.0283 v 0 c 0.18842,-0.15967 0.3796,-0.31613 0.56524,-0.47903 0.0427,-0.0374 0.0659,-0.10233 0.11928,-0.12163 0.89239,-0.32242 1.61503,0.0887 1.77782,1.02107 -0.0547,0.85655 -0.31872,2.17615 -1.52621,1.90598 -0.15238,-0.0341 -0.26642,-0.16292 -0.39963,-0.24438 -0.042,-0.17748 -0.12655,-0.35008 -0.1259,-0.53245 0.003,-0.71993 0.65122,-1.91326 1.39855,-2.09356 0.20772,-0.0501 0.4259,0.0353 0.63885,0.053 0.17902,0.10916 0.38324,0.18499 0.53707,0.32748 0.82917,0.76803 -0.0116,1.7374 -0.75056,2.14285 -0.32468,0.0974 -0.81465,0.30392 -1.18338,0.21207 -0.63519,-0.15823 -0.47699,-0.94529 -0.20136,-1.31466 z" />
    <path
       style="fill:#000000;fill-opacity:1;fill-rule:nonzero;stroke:none;stroke-width:0.264583"
       id="path17"
       d="m 126.26464,113.59447 c -0.0661,1.00152 0.0709,2.57922 1.34981,2.75543 0.20726,0.0286 0.41712,-0.0333 0.62568,-0.0499 1.30454,-0.51411 1.83981,-1.93651 1.02617,-3.13331 -0.11962,-0.17594 -0.30191,-0.29984 -0.45287,-0.44977 -0.96697,-0.52659 -2.6582,0.30782 -2.33219,1.55717 0.0542,0.20771 0.2035,0.37803 0.30525,0.56705 0.70628,0.68531 1.58088,0.80359 2.42553,0.27193 0.97643,-0.6146 0.78017,-0.39265 1.11051,-1.16285 0.004,-0.68529 -0.36021,-0.87176 -0.91519,-1.15055 0,0 -0.17422,0.11041 -0.17422,0.11041 v 0 c 0.34701,0.38262 0.68712,0.67856 0.65775,1.23793 -0.0734,0.16129 -0.14523,0.32327 -0.22006,0.48388 -0.0298,0.064 -0.0363,0.14899 -0.0938,0.18988 -0.79963,0.56816 -1.69613,0.44323 -2.38275,-0.21422 -0.0966,-0.18295 -0.24003,-0.34804 -0.28984,-0.54885 -0.0475,-0.19137 0.0342,-0.39617 0.007,-0.59145 -0.0148,-0.10677 -0.18887,-0.20532 -0.13045,-0.2959 0.33885,-0.52534 1.18046,-0.40314 1.63135,-0.20769 0.87365,0.82137 0.89854,1.29008 0.71053,2.44835 -0.0227,0.14007 0.0207,0.31416 -0.0749,0.41907 -0.14677,0.16116 -0.38712,0.20051 -0.58068,0.30076 -0.20678,0.0204 -0.41399,0.0857 -0.62034,0.0613 -1.26779,-0.14972 -1.42945,-1.72207 -1.35781,-2.70958 z" />
    <path
       style="fill:#000000;fill-opacity:1;fill-rule:nonzero;stroke:none;stroke-width:0.264583"
       id="path18"
       d="m 46.897848,170.12448 c 1.215234,2.29902 3.386015,3.72504 5.450477,5.18129 2.588064,1.96155 5.433811,3.45146 8.385384,4.77773 2.727865,1.23156 5.595773,2.10597 8.360772,3.24062 2.363843,1.0599 4.822275,1.87659 7.221263,2.85074 1.915874,0.86749 3.865795,1.64967 5.819859,2.425 1.346399,0.43408 2.648762,0.95893 3.918355,1.57862 0.749125,0.44553 1.508189,0.84339 2.341221,1.10372 0.232056,0.0955 0.42835,0.0409 0.657217,-0.0245 0,0 0.0181,-0.0126 0.0181,-0.0126 v 0 c 0.03795,-0.19298 -0.07391,-0.20671 -0.257686,-0.24778 -0.836837,-0.25146 -1.59984,-0.63906 -2.347672,-1.09003 -1.273508,-0.61854 -2.578221,-1.14571 -3.929295,-1.57587 -1.96039,-0.76955 -3.915973,-1.54733 -5.836793,-2.41315 -2.402028,-0.97033 -4.860837,-1.79063 -7.228244,-2.84589 -2.773334,-1.12922 -5.65313,-1.98696 -8.386408,-3.22176 -2.953391,-1.32375 -5.809263,-2.80411 -8.405834,-4.75517 -2.065194,-1.4469 -4.24425,-2.85616 -5.45696,-5.15284 z" />
    <path
       style="fill:#000000;fill-opacity:1;fill-rule:nonzero;stroke:none;stroke-width:0.264583"
       id="path19"
       d="m 71.933463,182.89315 c -0.005,-1.76784 7.94e-4,-3.53569 0.0016,-5.30353 0.0013,-1.28614 0.0028,-2.57228 0.007,-3.85842 0.0011,-0.5428 0.0019,-1.0856 0.0046,-1.62839 0.0011,-0.0938 5.3e-4,-0.1878 7.94e-4,-0.28148 -2.64e-4,-7.9e-4 -5.29e-4,-10e-4 -7.94e-4,-0.002 -0.08785,0.0897 -0.22426,0.14992 -0.263556,0.26919 -2.65e-4,0.001 0.137226,0.006 0.384471,0.008 0.37293,0.003 0.163624,-0.0152 0.566539,0.052 0.962962,0.1804 1.914176,0.42043 2.859336,0.67859 1.286232,0.41945 2.511856,1.00593 3.747789,1.55286 0.925623,0.35922 1.785054,0.86161 2.659097,1.32677 0.619977,0.34289 1.217297,0.71884 1.826484,1.07975 0.447064,0.17507 0.874803,0.38283 1.288767,0.62604 0.230865,0.10359 0.476422,0.17623 0.728665,0.19846 0.146934,0.007 0.294061,0.008 0.441095,0.005 0.02588,0.11152 0.02759,0.22592 0.02899,0.3397 0.04928,0.25493 0.195122,0.50332 0.278466,0.76308 0.137583,0.51233 0.156681,1.04362 0.173336,1.57071 0.01326,0.67722 0.01029,1.35464 0.0089,2.03196 -5.29e-4,0.64641 -0.0016,1.29283 -0.0033,1.93925 -0.0021,0.44203 -7.93e-4,0.88407 -0.0011,1.3261 0.0013,0.50969 -2.54e-4,1.01939 5.29e-4,1.52908 -1.08e-4,0.50046 -2.64e-4,1.00092 -7.94e-4,1.50138 -0.0011,0.34512 -2.64e-4,0.69023 -0.0013,1.03535 -0.0026,0.10906 -0.0086,0.22483 0.01781,0.324 0.05196,0.079 0.04649,0.1086 0.147497,0.14659 0,0 0.117002,-0.0596 0.117002,-0.0596 v 0 c 0.07143,-0.0997 0.110995,-0.18319 0.147497,-0.29689 0.04069,-0.10761 0.0081,-0.22849 0.01781,-0.34214 -7.93e-4,-0.34468 -1.98e-4,-0.68937 -0.0013,-1.03406 -5.29e-4,-0.50019 -7.93e-4,-1.00039 -7.93e-4,-1.50058 7.93e-4,-0.5099 -5.29e-4,-1.01978 5.29e-4,-1.52968 -2.65e-4,-0.44178 0.0011,-0.88358 -5.29e-4,-1.32536 -7.94e-4,-0.64603 -2.65e-4,-1.29205 0.0011,-1.93808 5.29e-4,-0.67804 0.0058,-1.35626 -0.0082,-2.03419 -0.01691,-0.53186 -0.03706,-1.06742 -0.178077,-1.58394 -0.08199,-0.25427 -0.225716,-0.49939 -0.268,-0.75149 -0.0043,-0.13835 -0.0011,-0.2836 -0.07047,-0.40777 -0.145105,0.003 -0.290393,0.004 -0.435438,-0.003 -0.247594,-0.0138 -0.488725,-0.0831 -0.717161,-0.17823 -0.414319,-0.24351 -0.841727,-0.45441 -1.291291,-0.62444 -0.613434,-0.35628 -1.208757,-0.73797 -1.831372,-1.07913 -0.877615,-0.46361 -1.739677,-0.96659 -2.66845,-1.32476 -1.236977,-0.54847 -2.466194,-1.12801 -3.749397,-1.56053 -0.943604,-0.26232 -1.895057,-0.50041 -2.856388,-0.68616 -0.574906,-0.10962 -1.018067,-0.10992 -1.546707,0.1889 2.43e-4,0.0934 -2.51e-4,0.18719 7.94e-4,0.28069 0.0026,0.54125 0.0035,1.08251 0.0046,1.62376 0.0042,1.28375 0.0058,2.5675 0.007,3.85125 0.0011,1.76728 0.0067,3.53455 0.0016,5.30182 z" />
    <path
       style="fill:#000000;fill-opacity:1;fill-rule:nonzero;stroke:none;stroke-width:0.264583"
       id="path20"
       d="m 90.142109,190.49078 c 1.329579,-0.96702 2.722565,-1.84205 4.064537,-2.79166 1.473713,-1.0701 3.002788,-2.05509 4.555887,-3.00499 1.598587,-1.04778 3.311197,-1.90078 5.041607,-2.70508 1.57972,-0.75303 3.17749,-1.47137 4.73733,-2.26536 2.29585,-1.13156 4.59525,-2.25589 6.8905,-3.38868 2.18045,-1.02519 4.29917,-2.16612 6.33745,-3.45077 0.94412,-0.58636 1.8274,-1.26086 2.64792,-2.00902 0.50201,-0.44394 0.96754,-0.93612 1.49286,-1.35203 -0.20473,0.0951 0.50443,-0.31615 0.37328,-0.24557 -0.62054,0.33393 -0.24563,0.14013 -0.0991,0.0747 0.25202,-0.178 0.61589,-0.29617 0.3792,-0.5188 0,0 -0.2374,0.11774 -0.2374,0.11774 v 0 c -0.14622,0.22455 -0.31617,0.39078 0.25786,0.0855 -0.40948,0.16371 -0.77786,0.42241 -1.13822,0.67298 -0.51727,0.42537 -0.99078,0.90514 -1.48842,1.35342 -0.81755,0.74189 -1.69647,1.41149 -2.63503,1.99461 -1.77702,1.11744 -3.62851,2.09673 -5.52933,2.98867 -2.29111,1.13128 -4.58711,2.25254 -6.88024,3.37969 -1.56135,0.7977 -3.16182,1.51765 -4.74386,2.27278 -2.00909,0.93247 -3.97474,1.96057 -5.838004,3.16212 -1.553641,0.95102 -3.082919,1.93746 -4.557061,3.00875 -1.342639,0.94841 -2.733892,1.82598 -4.062677,2.79389 z" />
    <path
       style="fill:#000000;fill-opacity:1;fill-rule:nonzero;stroke:none;stroke-width:0.264583"
       id="path21"
       d="m 104.47429,138.31222 c -1.26882,1.9438 -2.22969,4.09597 -3.01847,6.27562 -0.70137,2.12505 -0.85968,4.34939 -0.94026,6.56825 -0.009,1.80495 0.43324,3.57222 1.1488,5.21945 0.58436,1.30683 1.41846,2.44904 2.43344,3.4484 0.83808,0.77064 1.75387,1.47781 2.75429,2.02505 0.95499,0.5484 1.95446,0.97211 3.02705,1.21944 1.92388,0.3927 3.61242,-0.87742 5.14225,-1.86139 3.16338,-2.33775 4.07966,-4.75099 5.01858,-8.46766 0.60183,-3.11077 0.2054,-6.15157 -1.52306,-8.86301 -0.29802,-0.46752 -0.68677,-0.87058 -1.03016,-1.30587 -1.611,-1.64245 -3.64291,-2.61496 -5.97907,-2.42229 -0.39232,0.0324 -0.77539,0.13641 -1.16309,0.20461 -2.42429,0.78373 -4.22579,2.66094 -5.45485,4.84491 -0.28975,0.51486 -0.51104,1.06534 -0.76655,1.59801 -1.18802,3.12771 -1.66902,6.40679 -0.99965,9.71296 0.1205,0.59516 0.31977,1.17161 0.47966,1.75742 0.79826,2.12698 2.18131,4.33332 4.65338,4.63284 0.43435,0.0526 0.87504,-0.005 1.31256,-0.008 3.09038,-0.57027 5.58814,-2.55172 7.34378,-5.10456 0.40377,-0.58711 0.73202,-1.22273 1.09803,-1.83409 1.96318,-3.8177 2.11933,-6.66505 0.91312,-10.80675 -0.22868,-0.78523 -0.5591,-1.53718 -0.83865,-2.30578 -1.15363,-2.23779 -2.84053,-4.60317 -5.51721,-5.09498 -1.5898,-0.2921 -2.1789,0.0749 -3.69194,0.51122 -0.78937,0.49191 -1.63547,0.90274 -2.36812,1.47572 -2.81925,2.20488 -4.42391,5.75556 -5.43854,9.08411 -0.27195,0.89216 -0.45121,1.80999 -0.67682,2.71498 -0.443468,2.91054 -0.95563,6.15517 0.23053,8.98137 0.58444,1.39252 1.04645,1.69227 2.04827,2.74287 0.48895,0.2969 0.95376,0.63781 1.46686,0.89072 1.95482,0.96357 4.53788,1.36527 6.66779,0.76754 0.62571,-0.1756 1.20247,-0.49344 1.80371,-0.74017 3.29041,-1.9121 5.95556,-4.71626 7.33397,-8.3036 0.25926,-0.67473 0.42825,-1.38076 0.64237,-2.07114 0.11078,-0.76319 0.28207,-1.52004 0.33233,-2.28959 0.18076,-2.76776 -0.21996,-5.96989 -1.72444,-8.36716 -0.31282,-0.49844 -0.73827,-0.91659 -1.10741,-1.37488 -1.78046,-1.55964 -4.03868,-2.84998 -6.48305,-2.83552 -0.41793,0.002 -0.83139,0.0864 -1.24709,0.12962 -3.06705,0.81506 -5.24244,3.19287 -6.74025,5.89653 -0.35699,0.6444 -0.63293,1.33048 -0.94939,1.99573 -0.89983,2.81773 -0.53641,1.42289 -1.11163,4.17887 0,0 0.10786,-0.0515 0.10786,-0.0515 v 0 c 0.91484,-2.88076 0.42337,-1.43259 1.47862,-4.34309 0.32432,-0.66633 0.60907,-1.35343 0.97296,-1.999 0.9484,-1.6825 2.66399,-4.1285 4.52213,-4.91991 0.40399,-0.17207 0.8346,-0.27333 1.2519,-0.41 0.41378,-0.0465 0.82501,-0.13369 1.24135,-0.1395 2.43275,-0.0339 4.69043,1.24735 6.4688,2.78965 0.36848,0.4537 0.79238,0.86752 1.10543,1.3611 1.51152,2.3832 1.92391,5.56305 1.73744,8.32329 -0.0519,0.76765 -0.22559,1.52218 -0.33838,2.28327 -0.21544,0.68836 -0.38606,1.39238 -0.64632,2.06508 -1.24394,3.21512 -3.56919,5.86163 -6.42535,7.74922 -0.59628,0.2486 -1.16771,0.56814 -1.78883,0.74581 -2.11933,0.60625 -4.69482,0.21725 -6.64545,-0.73742 -0.50959,-0.2494 -0.97129,-0.58663 -1.45694,-0.87994 -1.00133,-1.04288 -1.45549,-1.33072 -2.03777,-2.71802 -1.182368,-2.81708 -0.6738,-6.04978 -0.22913,-8.95062 0.2257,-0.90304 0.40428,-1.81917 0.67711,-2.7091 1.21446,-3.96136 3.22644,-7.80051 6.87681,-9.98944 1.49635,-0.44321 2.08798,-0.81414 3.66574,-0.53711 2.66959,0.46874 4.35684,2.81798 5.51689,5.03851 0.28192,0.76466 0.61561,1.51218 0.84575,2.29399 1.21127,4.11487 1.04516,6.9687 -0.90817,10.76027 -1.97654,3.28574 -3.6392,5.60936 -7.55316,6.4236 -0.43434,0.006 -0.87136,0.0665 -1.30302,0.0179 -2.4622,-0.27712 -3.84189,-2.46415 -4.63957,-4.57726 -0.16062,-0.58295 -0.36115,-1.15634 -0.48185,-1.74885 -0.67188,-3.2984 -0.16863,-6.5745 1.0222,-9.69056 0.25753,-0.53103 0.48105,-1.07994 0.7726,-1.59309 0.73234,-1.28896 2.1368,-3.22897 3.51005,-3.91467 0.33539,-0.16747 0.69943,-0.27003 1.04915,-0.40504 0.38663,-0.0713 0.76837,-0.17825 1.15991,-0.21405 2.33002,-0.21305 4.36754,0.73122 5.98566,2.36382 0.34635,0.42997 0.73787,0.82717 1.03905,1.28991 1.74492,2.68082 2.14618,5.71059 1.56502,8.80512 -0.94234,3.72616 -1.8773,6.11673 -5.0527,8.44898 -1.2632,0.90639 -2.77253,1.78281 -4.37836,1.45288 -1.07245,-0.24294 -2.0713,-0.65894 -3.02627,-1.20555 -1.00234,-0.53959 -1.91487,-1.24759 -2.75893,-2.00801 -1.01699,-0.99064 -1.84945,-2.12796 -2.43399,-3.42947 -0.71838,-1.63894 -1.16235,-3.39667 -1.1555,-5.19543 0.079,-2.20891 0.22576,-4.42583 0.91658,-6.54372 0.77317,-2.16342 1.72483,-4.28768 2.94813,-6.23523 z" />
    <path
       style="fill:#000000;fill-opacity:1;fill-rule:nonzero;stroke:none;stroke-width:0.264583"
       id="path22"
       d="m 120.16765,134.47909 c 1.90832,1.48099 2.29315,4.0982 2.73025,6.3263 0.59296,3.70945 0.60315,7.47592 0.13121,11.1951 -0.4663,2.89002 -1.14956,5.72892 -2.24053,8.44651 -0.1261,0.30587 -0.25468,0.61072 -0.37829,0.91761 -0.2598,0.645 -0.49961,1.31119 -0.8427,1.91955 -0.0589,0.10445 -0.28782,0.38189 -0.20334,0.29679 0.1284,-0.12936 0.22435,-0.28731 0.33653,-0.43096 1.18671,-2.74153 2.44725,-5.43588 3.41578,-8.26635 1.47637,-4.04977 1.56692,-8.3453 1.24974,-12.59117 -0.29928,-2.7773 -1.03053,-5.56438 -2.42245,-8.00156 -0.94939,-1.4651 -2.44982,-2.1038 -4.07811,-2.51829 -2.13422,-0.42142 -4.30478,-0.24823 -6.38268,0.34553 -2.77261,0.89022 -5.14827,2.629 -7.28718,4.55655 -1.69014,1.60391 -3.22652,3.43777 -4.378538,5.47383 -0.778907,1.37663 -1.250251,2.61826 -1.868884,4.08057 -1.047385,2.98353 -0.554731,1.51427 -1.482773,4.40617 0,0 0.09553,-0.0447 0.09553,-0.0447 v 0 c 1.103268,-2.97765 0.515763,-1.46451 1.768986,-4.53692 0.638413,-1.48012 1.109162,-2.69455 1.902879,-4.08747 1.15745,-2.03122 2.68775,-3.86359 4.38192,-5.46243 1.92632,-1.72555 3.99869,-3.32992 6.50402,-4.10511 2.07611,-0.60603 4.25023,-0.79115 6.38788,-0.3786 1.62146,0.40581 3.12931,1.02959 4.10799,2.46107 1.43701,2.40215 2.20701,5.16182 2.52028,7.93139 0.33445,4.23966 0.25553,8.52451 -1.22675,12.5687 -0.97613,2.84283 -2.23868,5.55159 -3.46421,8.29216 0.0635,0.0632 0.10422,0.21366 0.19046,0.1895 0.0568,-0.0159 0.42492,-0.70423 0.47069,-0.79622 0.38011,-0.76402 0.63479,-1.57764 0.98008,-2.35691 1.08158,-2.71826 1.75327,-5.55697 2.21705,-8.4442 0.4692,-3.72007 0.44909,-7.4846 -0.15634,-11.19271 -0.43535,-2.22215 -0.8065,-4.90484 -2.77315,-6.32656 z" />
    <path
       style="fill:#000000;fill-opacity:1;fill-rule:nonzero;stroke:none;stroke-width:0.264583"
       id="path23"
       d="m 131.35092,104.79626 c 0.21561,1.7319 0.35846,3.4703 0.61184,5.19819 0.38262,2.18672 0.54736,4.39843 0.64105,6.61346 0.07,2.0873 0.0684,4.1761 0.0688,6.26431 -0.003,1.99883 -0.004,3.99766 -0.006,5.99649 0.0489,2.01704 -0.0174,4.02378 -0.26587,6.026 -0.29403,2.11073 -0.71294,4.20207 -1.05333,6.30597 -0.44201,2.22833 -0.72899,4.48379 -1.00382,6.73764 -0.32993,2.12336 -0.60471,4.25339 -0.92803,6.37742 -0.22992,1.72072 -0.36838,3.44694 -0.68048,5.15618 -0.3313,1.35522 -0.42228,2.75301 -0.68151,4.11905 -0.19804,0.82452 -0.34659,1.65379 -0.42509,2.49783 -0.0316,0.56502 -0.0515,1.13103 -0.0512,1.69698 -0.0313,0.12121 0.0853,0.51882 -0.0648,0.54235 -0.17513,0.2118 -0.26858,0.49826 -0.3346,0.76401 -0.007,0.001 -0.0134,0.002 -0.0201,0.003 0.0955,-0.0999 0.19107,-0.19973 0.28661,-0.29959 0,0 -0.16309,0.0853 -0.16309,0.0853 v 0 c 0.1076,0.0112 0.21521,0.0224 0.32282,0.0336 0.008,-0.0115 0.0159,-0.0229 0.0239,-0.0344 0.0982,-0.2541 0.16364,-0.55123 0.36949,-0.74034 0.11385,-0.15246 0.004,-0.40867 0.0383,-0.58738 0.003,-0.56363 0.008,-1.12759 0.0477,-1.69011 0.0766,-0.84077 0.22911,-1.6662 0.41752,-2.48912 0.23959,-1.36585 0.33899,-2.7569 0.66267,-4.10994 0.30733,-1.7079 0.43822,-3.43301 0.66799,-5.15159 0.32011,-2.12278 0.58612,-4.25232 0.91762,-6.37371 0.2807,-2.25313 0.56097,-4.50915 1.00641,-6.73697 0.3441,-2.10393 0.76022,-4.19648 1.05364,-6.30803 0.24908,-2.00387 0.3138,-4.01236 0.26343,-6.03104 0.001,-1.99876 0.005,-3.99752 0.005,-5.99628 -0.001,-2.08825 0.001,-4.17708 -0.0729,-6.26434 -0.095,-2.21598 -0.26217,-4.42808 -0.6473,-6.61539 -0.25106,-1.72724 -0.38053,-3.46668 -0.62061,-5.19457 z" />
    <path
       style="fill:#000000;fill-opacity:1;fill-rule:nonzero;stroke:none;stroke-width:0.264583"
       id="path24"
       d="m 46.856051,104.52026 c 1.48652,-1.31919 3.128058,-2.44638 4.760992,-3.57398 1.751926,-1.277179 3.64572,-2.319034 5.567815,-3.310287 1.82631,-0.914331 3.694385,-1.717636 5.626862,-2.375167 2.824977,-0.986563 5.700871,-1.807787 8.568899,-2.656639 2.984532,-0.86545 5.961152,-1.756953 8.95236,-2.599021 2.296797,-0.615254 4.574759,-1.29245 6.848972,-1.985036 1.127866,-0.389065 2.259576,-0.766411 3.384359,-1.16476 0.245121,-0.0872 0.489935,-0.175281 0.734208,-0.264829 0.145871,-0.02429 0.303784,-0.0096 0.452295,-0.0086 0.560004,-0.03111 1.082651,0.01593 1.619364,0.18178 1.174509,0.252722 2.232969,0.724209 3.268099,1.319569 1.317215,0.776113 2.587813,1.628556 3.871694,2.45853 1.66082,1.115584 3.51818,1.867289 5.32286,2.710847 2.04177,0.960104 4.05123,1.984705 6.12038,2.885244 2.10892,0.870413 4.17359,1.840865 6.2553,2.772759 1.98298,0.821928 3.92367,1.72987 5.77649,2.81415 1.18374,0.68102 2.31261,1.44725 3.44927,2.20238 0.87528,0.62452 1.78886,1.19131 2.69032,1.77629 0.709,0.46112 1.42283,0.92149 2.18434,1.29188 0.23903,0.0909 0.46786,0.23756 0.72256,0.28316 0,0 0.47449,-0.32327 0.47449,-0.32327 v 0 c -0.22674,-0.11371 -0.48898,-0.15491 -0.71159,-0.2808 -0.76992,-0.35459 -1.4853,-0.81514 -2.19497,-1.27615 -0.90847,-0.57714 -1.82338,-1.14532 -2.70226,-1.76768 -1.14057,-0.75424 -2.27479,-1.5178 -3.46249,-2.19749 -1.85671,-1.08445 -3.80494,-1.984712 -5.78853,-2.813109 -2.08272,-0.931524 -4.14843,-1.901619 -6.25851,-2.771254 -2.06826,-0.901761 -4.07865,-1.923841 -6.12016,-2.883747 -1.80274,-0.841679 -3.65418,-1.598906 -5.31651,-2.706447 -1.285245,-0.831058 -2.562151,-1.677363 -3.879323,-2.456828 -1.03835,-0.596921 -2.098657,-1.074245 -3.277119,-1.326941 -0.539575,-0.17381 -1.060823,-0.228383 -1.625915,-0.19599 -0.147822,-0.0011 -0.319799,-0.0021 -0.459695,-0.01029 -0.246269,0.09712 -0.496421,0.184055 -0.744984,0.275048 -1.126982,0.403441 -2.263225,0.77893 -3.39284,1.174228 -2.27907,0.698675 -4.560956,1.384843 -6.864921,1.998679 -2.993779,0.844092 -5.972672,1.738516 -8.96026,2.604317 -2.863673,0.848664 -5.736325,1.666171 -8.558922,2.646532 -1.936765,0.658476 -3.8096,1.460389 -5.640011,2.376614 -2.18585,1.128499 -4.335928,2.329546 -6.340007,3.762748 -1.631989,1.12802 -3.27516,2.25393 -4.755091,3.58011 z" />
    <path
       style="fill:#000000;fill-opacity:1;fill-rule:nonzero;stroke:none;stroke-width:0.264583"
       id="path25"
       d="m 45.090119,170.44206 c 0.646279,0.66449 1.387361,1.22706 2.117606,1.79481 0.0444,0.19465 0.31383,-0.081 0.278974,-0.18746 -0.0363,-0.11089 -0.228333,-0.0483 -0.341879,-0.0752 -0.463208,-0.1096 -0.874588,-0.26826 -1.307139,-0.46435 -0.368395,-0.29391 -0.909651,-0.31242 -1.290259,-0.56857 -0.04597,0.12986 -0.193448,0.26352 -0.137899,0.38958 0.01873,0.0425 0.756045,0.37383 0.885855,0.43634 0.539377,0.25973 1.056444,0.5587 1.585999,0.83749 0.651799,0.34337 1.304542,0.68967 1.977541,0.98987 0,0 0.05251,-0.0334 0.05251,-0.0334 v 0 c -0.468249,-0.51893 -1.063273,-0.84746 -1.66528,-1.19485 -0.326318,-0.17972 -2.204209,-1.26418 -2.450224,-1.28768 -0.216598,-0.0207 -0.428426,0.0763 -0.642641,0.11445 0.382233,0.26404 0.926986,0.27867 1.301568,0.57094 0.281879,0.12603 1.385263,0.61145 1.658876,0.55798 0.194585,-0.038 0.371719,-0.14736 0.53516,-0.25959 0.02474,-0.017 -0.04116,-0.0437 -0.06174,-0.0655 -0.748258,-0.54287 -1.483448,-1.11555 -2.125864,-1.78231 z" />
  </g>
  <g
     inkscape:groupmode="layer"
     id="layer3"
     inkscape:label="sketch 1">
    <g
       id="g1215">
      <path
         style="fill:#000000;fill-opacity:1;fill-rule:nonzero;stroke:none;stroke-width:0.264583"
         id="path26"
         d="m 87.989991,123.88659 c 0.773705,-0.4125 1.522362,-0.8734 2.279137,-1.31377 0.119909,-0.0698 0.480364,-0.27785 0.360553,-0.2079 -1.243116,0.72569 -1.574639,0.89366 -0.749549,0.45782 0.902756,-0.43775 1.843561,-0.78815 2.786832,-1.12673 1.195113,-0.40811 2.418099,-0.72743 3.626914,-1.09168 1.233686,-0.34668 2.468401,-0.68864 3.695224,-1.05907 1.435488,-0.46345 2.882588,-0.88926 4.323808,-1.3341 1.60629,-0.49563 3.20965,-1.00062 4.81549,-1.49771 1.86526,-0.57944 3.69419,-1.26053 5.50738,-1.98439 1.78245,-0.70704 3.54979,-1.45298 5.35537,-2.09954 1.56213,-0.5386 3.1413,-1.0201 4.73344,-1.46071 1.20042,-0.33468 2.4114,-0.63303 3.60492,-0.99184 0.88637,-0.28806 1.79299,-0.50697 2.68169,-0.78701 0.57007,-0.20065 1.14396,-0.39113 1.70268,-0.62215 0.38059,-0.17486 0.76371,-0.34064 1.15984,-0.47705 0.54186,-0.16835 0.58726,-0.38034 1.27842,-0.91136 0,0 -0.71149,0.39306 -0.71149,0.39306 v 0 c 1.61708,-1.04186 1.5195,-0.85583 0.981,-0.68771 -0.40301,0.14216 -0.79998,0.29649 -1.18637,0.47887 -0.56097,0.25806 -1.14559,0.45267 -1.72528,0.66356 -0.89389,0.30073 -1.80973,0.52848 -2.70913,0.81168 -1.20608,0.3851 -2.43609,0.69051 -3.65398,1.03557 -1.6021,0.461 -3.20107,0.92828 -4.77569,1.47881 -1.82211,0.63802 -3.59319,1.40642 -5.38795,2.11655 -1.7974,0.71402 -3.60779,1.39317 -5.45715,1.96241 -1.60089,0.49876 -3.20186,0.99701 -4.80462,1.48971 -1.42829,0.44048 -2.86594,0.85059 -4.28875,1.30918 -1.23853,0.36468 -2.475689,0.73386 -3.720312,1.07754 -1.198923,0.36415 -2.414075,0.67327 -3.604932,1.06343 -0.952307,0.33736 -1.901238,0.68737 -2.816188,1.11807 -1.066044,0.54717 -0.337585,0.16515 -2.354046,1.32489 -0.122923,0.0707 -0.490799,0.28431 -0.367323,0.21458 0.418808,-0.2365 0.836006,-0.47586 1.25336,-0.71492 0.134167,-0.0769 -0.476557,0.26698 -0.403738,0.2284 z" />
      <path
         style="fill:#000000;fill-opacity:1;fill-rule:nonzero;stroke:none;stroke-width:0.264583"
         id="path27"
         d="m 88.091104,123.19514 c 0.0056,0.75246 -0.01585,1.50492 -0.03327,2.25714 -0.0019,1.38436 -0.01106,2.7687 -0.01095,4.15304 -0.03727,1.52823 -0.161811,3.05222 -0.250335,4.57804 -0.02957,1.40708 7.93e-4,2.81484 0.03586,4.22156 0.02246,1.41929 0.01831,2.83879 0.01664,4.25819 0.0028,1.45444 0.0011,2.90889 0.0019,4.36334 -0.0056,1.53808 -7.94e-4,3.07613 -0.0063,4.61421 -0.0074,1.40875 -0.04094,2.81565 0.06,4.22159 0.129667,1.42769 0.195794,2.85915 0.231116,4.29191 0.01889,1.43172 0.03682,2.8636 0.02716,4.29546 0.01082,1.5222 -0.0084,3.04404 0.03553,4.56577 0.01717,1.48586 0.216728,2.95946 0.332435,4.43898 0.08155,1.23583 0.127021,2.47408 0.101349,3.71246 -0.04659,1.25856 -0.10536,2.5164 -0.17684,3.77377 -0.0689,1.08187 -0.11971,2.16537 -0.119951,3.24956 -0.0154,0.91312 -0.05755,1.82937 -0.154885,2.73779 -0.07657,0.83846 -0.159985,1.67517 -0.245287,2.51287 -0.05944,0.59356 -0.110096,1.18789 -0.116295,1.7846 0.0019,0.24797 -0.02458,0.49716 -0.0086,0.74491 0.05903,0.091 0.01487,0.0613 0.159422,0.008 0,0 1.234895,-0.63209 1.234895,-0.63209 v 0 c 0.150775,-0.0951 0.106328,-0.0326 0.158197,-0.16712 0.01339,-0.24496 -0.01008,-0.49097 0.0016,-0.73621 0.02088,-0.58632 0.03204,-1.17344 0.09118,-1.75766 0.07874,-0.83661 0.157424,-1.67325 0.237955,-2.50965 0.07697,-0.91131 0.120746,-1.82741 0.131308,-2.74172 0.02445,-1.07536 0.03125,-2.15132 0.08945,-3.22572 0.07261,-1.26621 0.180093,-2.5301 0.213442,-3.79841 0.03315,-1.24246 -0.02384,-2.48687 -0.112358,-3.72621 -0.119124,-1.47342 -0.32421,-2.94105 -0.34743,-4.42078 -0.02735,-1.52624 0.0013,-3.05313 -7.7e-5,-4.57963 -0.01167,-1.43212 0.0076,-2.86453 -0.03491,-4.2963 -0.03944,-1.43499 -0.09873,-2.86993 -0.230018,-4.29991 -0.0824,-1.3999 -0.06392,-2.80157 -0.07137,-4.20343 -0.0054,-1.53606 -5.3e-4,-3.07207 -0.0056,-4.60813 0.0013,-1.45485 5.3e-4,-2.90973 -2.64e-4,-4.36456 -0.0073,-1.41663 -0.0209,-2.83322 -0.03792,-4.24977 -0.0078,-1.40166 -0.07495,-2.80268 -0.04509,-4.20442 0.0734,-1.52266 0.210394,-3.04246 0.211661,-4.56798 1.04e-4,-1.38063 -0.009,-2.76124 -0.01095,-4.14189 -0.01757,-0.74091 -0.039,-1.48207 -0.03327,-2.22323 z" />
      <path
         style="fill:#000000;fill-opacity:1;fill-rule:nonzero;stroke:none;stroke-width:0.264583"
         id="path28"
         d="m 134.39064,107.46095 c -0.0224,0.96811 -0.008,1.93217 0.0616,2.89814 0.13907,1.61436 0.28099,3.22705 0.35127,4.84617 0.004,1.47559 -0.0534,2.95037 -0.0791,4.42564 -0.018,1.54913 -0.0168,3.09841 -0.0269,4.64761 0.005,1.52399 -0.0786,3.04683 -0.21846,4.56391 -0.12481,1.45372 -0.33884,2.89774 -0.54125,4.34212 -0.25476,1.72311 -0.52866,3.44397 -0.81021,5.16303 -0.23811,1.67247 -0.5779,3.328 -0.7882,5.00435 -0.17311,1.54905 -0.38571,3.09152 -0.62825,4.63115 -0.22511,1.43662 -0.51639,2.86072 -0.78336,4.28962 -0.24225,1.31086 -0.5172,2.61328 -0.69396,3.93512 -0.16659,1.27834 -0.22492,2.56705 -0.36397,3.84811 -0.13755,1.04827 -0.38646,2.07992 -0.6417,3.10503 -0.21978,0.88521 -0.44393,1.76702 -0.63505,2.65881 -0.21102,0.94684 -0.42931,1.8912 -0.68958,2.82588 -0.21672,0.6613 -0.34458,1.34285 -0.48347,2.02255 -0.0584,0.47753 0.36648,0.15721 0.60295,0.0491 0,0 0.11799,-0.0591 0.11799,-0.0591 v 0 c 0.32963,-0.17495 0.64751,-0.29432 0.72372,-0.69154 0.12481,-0.68247 0.316,-1.35291 0.50651,-2.01926 0.26042,-0.93581 0.43939,-1.89106 0.68272,-2.83135 0.21245,-0.88974 0.43794,-1.77555 0.65434,-2.6643 0.25601,-1.0305 0.50549,-2.06743 0.62725,-3.12375 0.12381,-1.27582 0.18075,-2.5574 0.34131,-3.82948 0.20547,-1.32351 0.4958,-2.6299 0.73401,-3.94756 0.26095,-1.42463 0.52299,-2.84858 0.75287,-4.27874 0.25712,-1.53862 0.43933,-3.08559 0.62361,-4.6343 0.22887,-1.66256 0.5058,-3.31806 0.74813,-4.97869 0.29027,-1.72539 0.56852,-3.45264 0.83985,-5.18111 0.21721,-1.44261 0.4136,-2.89011 0.52647,-4.34504 0.12482,-1.52069 0.22759,-3.04562 0.20532,-4.57239 -0.004,-1.54966 0.004,-3.09932 0.0347,-4.64871 0.0269,-1.47139 0.0788,-2.94351 0.0361,-4.4151 -0.0834,-1.6202 -0.21607,-3.23539 -0.34545,-4.85219 -0.0554,-0.96021 -0.0764,-1.92086 -0.0699,-2.88264 z" />
      <path
         style="fill:#000000;fill-opacity:1;fill-rule:nonzero;stroke:none;stroke-width:0.264583"
         id="path29"
         d="m 87.232923,191.82453 c 1.319173,-0.25831 2.575978,-0.73989 3.82312,-1.22844 2.453159,-1.03912 4.842931,-2.2242 7.214759,-3.43577 2.301148,-1.21603 4.609638,-2.4157 6.957228,-3.53981 2.26903,-1.01663 4.45941,-2.19435 6.67348,-3.32271 1.99506,-1.02971 3.97575,-2.08656 5.97742,-3.10355 1.61962,-0.83402 3.26757,-1.61008 4.9072,-2.40321 1.60148,-0.83004 3.17901,-1.72382 4.60641,-2.82976 0.53308,-0.40428 1.02292,-0.85599 1.49487,-1.32896 0.22586,-0.2382 0.34773,-0.52204 0.44293,-0.8299 0.0295,-0.14523 0.0381,-0.29034 0.0334,-0.43766 -0.004,-0.0457 0.0106,-0.10559 -0.0175,-0.14233 -0.12808,0.0431 -0.25004,0.11601 -0.36808,0.17566 0,0 -1.13169,0.59796 -1.13169,0.59796 v 0 c -0.12184,0.0627 -0.24772,0.12271 -0.36648,0.1923 -0.0192,0.043 -0.008,0.0927 -0.01,0.13996 -0.006,0.12853 -0.0224,0.25849 -0.0642,0.38053 -0.0926,0.278 -0.24893,0.51781 -0.455,0.72691 -0.44888,0.45944 -0.9305,0.88214 -1.43824,1.27587 -0.40812,0.31272 -0.82012,0.6124 -1.25503,0.88746 -0.16613,0.10506 -0.67635,0.40041 -0.50312,0.30754 0.18948,-0.10157 2.10773,-1.19253 0.55352,-0.33104 -1.65742,0.82038 -3.32959,1.61101 -4.97575,2.4543 -2.01819,1.02737 -4.01696,2.09154 -6.02393,3.14046 -2.22107,1.13542 -4.41907,2.31937 -6.69419,3.34501 -2.36518,1.1341 -4.69444,2.33825 -7.007994,3.57417 -2.345277,1.21257 -4.714631,2.38816 -7.150954,3.40796 -1.238785,0.48246 -2.485144,0.95243 -3.787659,1.23583 z" />
      <path
         style="fill:#000000;fill-opacity:1;fill-rule:nonzero;stroke:none;stroke-width:0.256401"
         id="path30"
         d="m 44.977531,105.83187 c 0.808353,0.49131 1.554345,1.07546 2.350234,1.58566 0.3141,0.20136 0.635566,0.39114 0.953349,0.5867 2.415516,1.5221 4.991906,2.76429 7.539021,4.04887 1.707971,0.85949 3.419675,1.72171 5.197029,2.43355 0.946673,0.37914 1.699211,0.63272 2.659914,0.97094 2.40983,0.82821 4.892278,1.41837 7.359537,2.04845 1.918731,0.48106 3.818672,1.02474 5.706822,1.61218 1.205267,0.39919 2.445666,0.67843 3.660831,1.04428 0.793768,0.23897 0.956321,0.30671 1.724326,0.57897 1.377552,0.46621 2.720602,1.01687 4.065975,1.56503 0.722432,0.31307 1.477104,0.53933 2.216935,0.80582 0.213679,0.0523 0.416161,0.21245 0.644095,0.19471 0.01734,-0.007 0.03467,-0.0126 0.052,-0.019 0,0 1.616585,-1.08757 1.616585,-1.08757 v 0 c 0.0068,-0.01 0.01355,-0.0198 0.02035,-0.0297 -0.04826,-0.13015 -0.492844,-0.15847 -0.598207,-0.22587 -0.763832,-0.24199 -1.536208,-0.45961 -2.283652,-0.74993 -1.382057,-0.51383 -2.752151,-1.05862 -4.156005,-1.5138 -1.789489,-0.60415 -3.618957,-1.06681 -5.430064,-1.60109 -1.914465,-0.57733 -3.841273,-1.11401 -5.789795,-1.56715 -2.490742,-0.60875 -5.004655,-1.14718 -7.433005,-1.97967 -1.167415,-0.4054 -1.501466,-0.50744 -2.652963,-0.96355 -1.789442,-0.70879 -3.526135,-1.54048 -5.254989,-2.38223 -2.545031,-1.26599 -5.119492,-2.49352 -7.498389,-4.05669 -0.62686,-0.40205 -1.011448,-0.63968 -1.600743,-1.04654 -0.565263,-0.39027 -1.110443,-0.81647 -1.725031,-1.1307 z" />
      <path
         style="fill:#000000;fill-opacity:1;fill-rule:nonzero;stroke:none;stroke-width:0.264583"
         id="path31"
         d="m 44.450759,105.57547 c -0.0064,1.63074 -0.033,3.26082 -0.01987,4.89188 -0.0118,3.07817 -0.03962,6.15622 -0.05,9.2344 0.02921,3.21825 0.145227,6.43465 0.270515,9.65031 0.150151,3.09343 0.220745,6.18956 0.324988,9.28459 0.03511,2.71305 0.279106,5.41548 0.448892,8.12159 0.229314,2.7314 0.30398,5.47104 0.338167,8.21069 0.04594,2.44352 0.03545,4.88763 0.0177,7.33136 -0.0132,1.85644 -0.01209,3.7126 -0.04372,5.56886 0.0013,0.94748 -0.01974,1.90851 0.100542,2.8506 0.04694,0.08 0.02072,0.47113 0.151873,0.51925 0.222787,0.0817 0.708885,-0.38442 0.799317,-0.44762 0,0 -0.05341,0.0273 -0.05341,0.0273 v 0 c 0.205687,-0.11029 0.410179,-0.22284 0.617059,-0.33087 0.04356,-0.0228 0.106399,-0.0208 0.134062,-0.0614 0.05292,-0.0777 -0.08533,-0.45109 -0.07351,-0.53519 -0.121632,-0.9234 -0.15897,-1.8577 -0.172357,-2.78815 -0.03001,-1.84247 -0.02556,-3.68478 -0.03795,-5.52739 -0.01916,-2.43777 -0.03017,-4.87562 -0.05996,-7.31329 -0.07635,-2.73964 -0.172627,-5.4795 -0.345334,-8.21494 -0.185666,-2.6958 -0.432424,-5.38844 -0.497448,-8.09119 -0.108601,-3.09182 -0.229087,-6.183 -0.347483,-9.27445 -0.15109,-3.21053 -0.290359,-6.4221 -0.282107,-9.63714 -0.0029,-3.0755 -0.0222,-6.15148 0.03893,-9.22657 0.06207,-1.66519 0.138893,-3.32986 0.215707,-4.99405 z" />
      <path
         style="fill:#000000;fill-opacity:1;fill-rule:nonzero;stroke:none;stroke-width:0.264583"
         id="path32"
         d="m 45.167745,170.3007 c 0.612143,1.37769 1.936404,2.3 3.093556,3.18488 1.770788,1.37527 3.672679,2.56202 5.555313,3.77391 1.249916,0.80459 1.686214,1.09872 2.913073,1.91055 0.45593,0.30754 0.911644,0.61541 1.367793,0.92263 0.968375,0.6522 1.553692,1.06199 2.548604,1.66117 1.216885,0.73285 2.489065,1.36341 3.751898,2.0114 1.611132,0.78885 3.185861,1.65142 4.841708,2.34614 0.826722,0.34685 1.566087,0.61211 2.404443,0.9237 1.823622,0.69941 3.686578,1.28796 5.539317,1.9038 1.351412,0.47299 2.732037,0.85342 4.09375,1.29415 0.994031,0.34457 1.984451,0.70201 2.992374,1.00446 0.616222,0.14727 1.231643,0.30558 1.856822,0.41111 0.346154,0.0575 0.696666,0.0774 1.046752,0.0918 0.193717,0.006 0.387509,0.003 0.581274,0.005 0.09859,0.001 0.197157,6e-5 0.295743,0.003 0.666864,0.0229 0.847921,-0.46305 1.667095,-1.0499 0.09575,-0.0686 -0.220999,0.0816 -0.331499,0.1224 0,0 -0.938401,0.4692 -0.938401,0.4692 v 0 c -1.355444,0.8251 1.96111,-0.92738 1.234147,-0.72747 -0.102479,0.003 -0.204965,0.003 -0.307441,0.005 -0.196842,0.004 -0.39375,0.005 -0.590613,0.007 -0.355005,0.002 -0.710454,-0.008 -1.063506,-0.0476 -0.637141,-0.0848 -1.265367,-0.2272 -1.894803,-0.35473 -1.025361,-0.27858 -2.02674,-0.63735 -3.036224,-0.96746 -1.375349,-0.43559 -2.771523,-0.80061 -4.138533,-1.26257 -1.880179,-0.60056 -3.767949,-1.17931 -5.629685,-1.83541 -0.813297,-0.29115 -1.620911,-0.5694 -2.419617,-0.90021 -1.660959,-0.68795 -3.244776,-1.54297 -4.863407,-2.3211 -1.263457,-0.64241 -2.535616,-1.27616 -3.761287,-1.98952 -0.885071,-0.51512 -1.733346,-1.06901 -2.591155,-1.62789 -0.46373,-0.30212 -0.925126,-0.60781 -1.387692,-0.91172 -2.859677,-1.8317 -5.782235,-3.5821 -8.466367,-5.67019 -0.661469,-0.53062 -1.269648,-0.9942 -1.884897,-1.57145 -0.482687,-0.45288 -0.897528,-0.97377 -1.345957,-1.45882 z" />
      <path
         style="fill:#000000;fill-opacity:1;fill-rule:nonzero;stroke:none;stroke-width:0.264583"
         id="path33"
         d="m 72.064509,184.52598 c 0.158131,-0.90244 0.270512,-1.80811 0.332441,-2.7222 0.08302,-1.21867 0.137197,-2.439 0.19931,-3.65884 0.02381,-0.53389 0.02856,-1.06834 0.03311,-1.60265 -0.01011,-0.53259 -0.01347,-1.06524 -0.009,-1.59795 -0.0011,-0.33018 0.01558,-0.6601 0.01995,-0.99015 0.0026,-0.15774 0.0067,-0.31549 0.0024,-0.47323 0.0049,-0.14316 0.0021,-0.28641 -7.94e-4,-0.4296 -0.0062,-0.18264 -0.0019,-0.36527 5.29e-4,-0.54789 -0.01058,-0.64475 -0.237408,-0.0567 -1.393674,0.8262 -0.04143,0.0316 0.104347,0.008 0.155107,0.02 0.06111,0.0143 0.119377,0.0388 0.179067,0.0581 0.627171,0.26727 1.208813,0.64161 1.794378,0.99037 0.973786,0.56626 1.955604,1.11666 2.947667,1.65034 1.099839,0.63504 2.226551,1.22097 3.39117,1.72756 0.961702,0.35549 1.933861,0.68257 2.904159,1.0139 0.650433,0.22023 1.304772,0.42856 1.955874,0.64696 0.325062,0.0921 0.649526,0.18195 0.961457,0.3131 0.131484,0.0673 0.24806,0.15596 0.385212,0.21202 0.0059,0.0307 0.16329,0.0445 0.04476,-0.0167 -0.0091,-0.005 -0.0037,0.0201 -0.0057,0.0301 -0.0065,0.0325 -0.01323,0.0649 -0.01984,0.0974 -0.06644,0.53944 -0.06527,1.08358 -0.110279,1.62474 -0.06265,0.80373 -0.146653,1.60636 -0.259103,2.40468 -0.09982,0.73421 -0.211805,1.46669 -0.330616,2.19808 -0.111818,0.70722 -0.232987,1.41288 -0.379761,2.11369 -0.09911,0.43978 -0.158375,0.88602 -0.183039,1.33573 -0.01466,0.32244 -0.08711,0.64077 -0.134842,0.96043 -0.03154,0.15973 -0.03759,0.32174 -0.03968,0.48367 0.01868,0.66232 2.150525,-0.87872 1.44644,-0.81083 -0.109969,0.0106 -0.216678,0.0433 -0.325017,0.0649 0,0 -0.57861,0.29467 -0.57861,0.29467 v 0 c -0.108473,0.0887 -0.222287,0.17128 -0.325421,0.26616 -0.04189,0.0385 -0.16034,0.15437 -0.107831,0.1324 0.01511,-0.006 1.47829,-0.22897 1.555636,-0.78643 0.01206,-0.15582 0.03195,-0.31141 0.04526,-0.46724 0.04077,-0.32385 0.118134,-0.64365 0.122098,-0.97128 0.02331,-0.43484 0.07206,-0.86739 0.158435,-1.29464 0.131114,-0.70289 0.245538,-1.4087 0.365598,-2.11352 0.120092,-0.72993 0.222748,-1.46267 0.316236,-2.19645 0.10514,-0.80402 0.192042,-1.61057 0.266819,-2.41796 0.05095,-0.55004 0.06529,-1.10479 0.17286,-1.64829 0.0093,-0.1299 0.03084,-0.34345 -0.146053,-0.33903 -0.14542,-0.0291 -0.261802,-0.10404 -0.389167,-0.17889 -0.315572,-0.15916 -0.668489,-0.22226 -1.007999,-0.31075 -0.669669,-0.19589 -1.337763,-0.39537 -2.000393,-0.61428 -0.987483,-0.30652 -1.970633,-0.63031 -2.948824,-0.96507 -1.167654,-0.49396 -2.303251,-1.06127 -3.39639,-1.70441 -0.976773,-0.54946 -1.96147,-1.08306 -2.923788,-1.65791 -0.58455,-0.35649 -1.156537,-0.74487 -1.773516,-1.04147 -0.725974,-0.31143 -1.942671,-0.3942 -1.981702,0.88154 0.0026,0.18242 0.0068,0.36485 5.29e-4,0.54728 -0.003,0.14351 -0.0059,0.28707 -0.0011,0.43055 -0.0043,0.15695 -5.29e-4,0.31391 0.0024,0.47086 0.0043,0.32324 0.02122,0.64634 0.0204,0.9697 0.0051,0.53524 0.0021,1.07043 -0.0053,1.60558 0.0068,0.52394 0.01291,1.04788 0.01979,1.57183 0.019,1.19879 -2.48e-4,2.39887 -0.09548,3.59452 -0.09083,0.89861 -0.220786,1.79246 -0.299997,2.69219 z" />
      <path
         style="fill:#000000;fill-opacity:1;fill-rule:nonzero;stroke:none;stroke-width:0.264583"
         id="path34"
         d="m 70.788145,184.20673 c -0.08832,0.33703 -0.195535,0.67109 -0.259789,1.01385 -0.03274,0.13968 -0.04385,0.28021 -0.04851,0.42283 -0.0016,0.0363 -0.0021,0.0726 -0.0011,0.10879 0.0038,0.0294 0.0013,0.0622 0.0026,0.0931 -0.0021,0.0534 0.0013,0.10653 2.59e-4,0.15993 0.0024,0.0216 0.0024,0.0434 7.94e-4,0.0651 0.360907,0.36859 0.08769,0.14613 1.149458,-0.55746 0.0026,-0.002 0.0289,-0.16004 0.0341,-0.19066 0.02787,-0.17581 0.0499,-0.35292 0.06732,-0.53012 0.04163,-0.4642 0.04223,-0.14058 -1.075549,0.54413 -0.01172,0.007 0.0024,0.17586 0.0024,0.19397 0.0028,0.13437 -0.0072,0.26994 0.02273,0.40178 0.01167,0.45924 -0.138295,0.27262 1.06962,-0.4909 0.03649,-0.0231 0.01196,-0.0858 0.02371,-0.12731 0.02519,-0.089 0.06425,-0.1735 0.09399,-0.26108 0.05246,-0.21289 0.159543,-0.40132 0.227359,-0.60742 0.141652,-0.37685 7.94e-4,-0.24165 -0.395819,-0.0826 0,0 -0.0541,0.026 -0.0541,0.026 v 0 c -0.343614,0.18932 -0.48836,0.19002 -0.575638,0.53444 -0.08106,0.19819 -0.155226,0.39681 -0.214156,0.6031 -0.0325,0.0897 -0.06287,0.18015 -0.09676,0.26932 -0.014,0.0368 -0.08217,0.12178 -0.04475,0.10942 1.058765,-0.34984 0.982374,-0.0739 0.99197,-0.49531 0.02612,-0.14051 0.02254,-0.28286 0.02394,-0.42536 -1.82e-4,-0.1185 0.01233,-0.20126 0.0028,-0.19743 -1.131702,0.45417 -1.076589,0.10183 -1.081696,0.54677 -0.0051,0.16885 -0.01381,0.33847 -0.05764,0.50263 -0.01019,0.032 -0.01709,0.0653 -0.03056,0.0962 -0.0098,0.0223 -0.06034,0.0732 -0.03859,0.0621 1.086101,-0.55045 0.853408,-0.86992 1.056894,-0.48504 -2.3e-4,-0.022 -0.0024,-0.0441 0.0011,-0.066 -0.0011,-0.0536 0.0024,-0.10693 5.29e-4,-0.16047 0.0011,-0.0316 7.94e-4,-0.086 7.94e-4,-0.10452 -0.0019,-0.0313 -0.0038,-0.0627 -0.0039,-0.0941 2.62e-4,-0.13092 0.01328,-0.26178 0.02896,-0.39165 0.05557,-0.33401 0.125224,-0.66503 0.239477,-0.98483 z" />
      <path
         style="fill:#000000;fill-opacity:1;fill-rule:nonzero;stroke:none;stroke-width:0.264583"
         id="path35"
         d="m 91.429138,124.67707 c 0.0021,0.91808 0.006,1.83615 0.0057,2.75425 -0.01431,0.98167 0.05115,1.96198 0.0856,2.94265 0.04553,0.15138 -0.04903,0.76384 0.03115,0.88785 0.01215,0.0188 0.03784,0.0239 0.05676,0.0359 0.03368,-0.003 0.06736,-0.006 0.101032,-0.01 0,0 1.236032,-0.63335 1.236032,-0.63335 v 0 c 0.03303,-0.0314 0.06607,-0.0627 0.0991,-0.0941 0.16292,-0.28654 -0.01394,-0.66346 -0.0011,-0.97361 -0.0754,-0.96457 -0.163499,-1.93049 -0.149992,-2.89899 -2.65e-4,-0.92002 0.0035,-1.84002 0.0057,-2.76004 z" />
      <path
         style="fill:#000000;fill-opacity:1;fill-rule:nonzero;stroke:none;stroke-width:0.264583"
         id="path36"
         d="m 90.660669,124.97951 c 0.557704,0.054 1.11211,-0.0829 1.654556,-0.19728 0.803955,-0.14621 1.581856,-0.39901 2.363263,-0.63215 0.892075,-0.26137 1.779948,-0.53757 2.673549,-0.79363 1.043485,-0.28171 2.074986,-0.60481 3.113443,-0.90369 1.09932,-0.29694 2.19183,-0.61696 3.2832,-0.94154 1.0205,-0.26643 2.03806,-0.54669 3.06959,-0.76773 0.73721,-0.14336 1.46689,-0.3137 2.19197,-0.50868 0.19448,-0.0505 0.38764,-0.10579 0.58138,-0.15892 -0.0156,-0.02 0.0249,0.004 0.0209,-0.002 -0.0351,-0.0494 -0.0529,-0.12304 -0.10929,-0.1455 -0.0327,-0.013 0.006,0.0701 0.008,0.10525 0.0206,0.30381 0.0146,0.22196 0.0249,0.56664 -0.0122,0.70543 0.0173,1.40729 0.0746,2.11011 0.0325,0.38162 0.0565,0.76409 0.0608,1.14713 0.013,0.21334 -0.0234,0.42987 0.0309,0.63767 0.0386,0.14155 0.10237,0.27924 0.12402,0.42491 0.0385,0.21189 0.40822,-0.0984 0.4388,-0.11406 0.12669,-0.0648 0.25839,-0.1193 0.38758,-0.17895 0,0 -0.0471,0.0371 -0.0471,0.0371 v 0 c 0.18715,-0.0847 0.93946,-0.34463 0.92022,-0.65138 -0.0329,-0.14487 -0.0819,-0.28533 -0.12379,-0.42777 -0.0256,-0.20096 -0.002,-0.40585 -0.0209,-0.60772 -0.0275,-0.37877 -0.0616,-0.75696 -0.1085,-1.1339 -0.0766,-0.69425 -0.10534,-1.38899 -0.0781,-2.08761 0.004,-0.11165 0.006,-0.22339 0.0117,-0.33494 0.005,-0.0832 0.0105,-0.16638 0.0204,-0.24911 0.003,-0.0279 0.0253,-0.0547 0.0189,-0.082 -0.0529,-0.22841 -0.0275,-0.26889 -0.10713,-0.21505 -0.20519,0.0784 -0.41829,0.13482 -0.62658,0.20384 -0.73552,0.21934 -1.4776,0.40308 -2.23045,0.55355 -1.04036,0.22236 -2.06587,0.50727 -3.09622,0.77122 -1.0954,0.31421 -2.18292,0.65572 -3.28556,0.94499 -1.04132,0.29267 -2.072335,0.62137 -3.11624,0.90548 -0.902624,0.25788 -1.801628,0.53002 -2.697467,0.81032 -0.786786,0.22866 -1.56445,0.49277 -2.369809,0.65141 -0.581393,0.14012 -1.167337,0.28857 -1.766044,0.3267 z" />
      <path
         style="fill:#000000;fill-opacity:1;fill-rule:nonzero;stroke:none;stroke-width:0.264583"
         id="path37"
         d="m 91.022219,131.27866 c 0.573895,-0.25593 1.210548,-0.3089 1.826744,-0.38824 1.254998,-0.13645 2.490785,-0.39827 3.730546,-0.62865 1.117856,-0.19133 2.228008,-0.41107 3.328352,-0.68578 0.971909,-0.23545 1.946839,-0.45863 2.916599,-0.70281 0.95397,-0.2771 1.89511,-0.59248 2.84994,-0.86675 0.72918,-0.21088 1.43717,-0.48933 2.15281,-0.74217 1.12144,-0.34374 2.06038,-0.97433 3.07745,-1.56479 0.22036,-0.1507 0.426,-0.32402 0.61847,-0.50899 0.0888,-0.062 0.0483,-0.12771 0.0432,-0.22046 -0.009,-0.12504 -0.009,0.005 0.0946,-0.0945 0.0366,-0.11382 0.047,-0.22852 0.0575,-0.34681 0.002,-0.11176 2e-5,-0.22347 0.002,-0.33522 -0.005,-0.12273 0.002,-0.24567 -0.003,-0.3683 -0.006,-0.11938 -5e-5,-0.23872 0.005,-0.35793 0.006,-0.11699 -0.0246,-0.0851 -0.16289,-0.0414 -0.10069,0.0367 -0.20139,0.0734 -0.30208,0.11012 0,0 -0.80119,0.40822 -0.80119,0.40822 v 0 c -0.10069,0.0659 -0.20139,0.13181 -0.30208,0.19772 -0.10419,0.0732 -0.17481,0.0903 -0.1629,0.20742 0.006,0.11741 0.0113,0.23493 0.006,0.35254 -0.004,0.12334 0.003,0.24695 -0.001,0.37041 0.002,0.10547 0.002,0.21176 -0.0112,0.31654 -0.0112,0.0881 -0.0329,0.18734 -0.10677,0.24386 -0.0477,0.071 -0.0469,0.13174 -0.0427,0.21431 -0.009,0.0671 -0.0581,0.003 -0.0985,0.0773 -0.18251,0.16894 -0.37538,0.32669 -0.58892,0.45546 2.94767,-1.68305 0.90274,-0.45518 0.12415,-0.24411 -0.71309,0.2645 -1.43132,0.52042 -2.15384,0.75632 -0.95342,0.29436 -1.90454,0.59489 -2.8597,0.88356 -0.97379,0.25026 -1.95287,0.47987 -2.93076,0.71346 -1.11089,0.28974 -2.233045,0.52339 -3.362879,0.72666 -1.237975,0.23041 -2.471791,0.49052 -3.723783,0.63642 -0.676934,0.0825 -1.382109,0.14959 -2.002224,0.45323 z" />
      <path
         style="fill:#000000;fill-opacity:1;fill-rule:nonzero;stroke:none;stroke-width:0.264583"
         id="path38"
         d="m 118.79163,116.7955 c -0.82507,0.46546 -1.88587,0.90063 -2.25139,1.874 -0.0534,0.14213 -0.0812,0.29259 -0.12179,0.43889 -0.12852,0.81106 -0.16195,1.68169 0.35416,2.37268 0.0895,0.11989 0.20242,0.22044 0.30363,0.33066 0.1196,0.0747 0.22824,0.17085 0.35881,0.22411 1.12034,0.45702 2.59785,-0.82698 3.33168,-1.27766 0.65975,-0.63835 0.95643,-1.52503 1.16681,-2.39602 0.0919,-0.53178 0.0789,-1.13966 -0.34437,-1.53617 -0.0721,-0.0676 -0.15987,-0.11617 -0.23981,-0.17426 -0.60563,-0.32562 -1.28691,-0.28125 -1.94482,-0.18919 -0.26688,0.0448 -0.50579,0.15689 -0.73662,0.29332 -1.36751,0.80825 -2.02393,0.78375 -1.21581,0.93715 0,0 0.34867,-0.146 0.34867,-0.146 v 0 c 0.12232,-0.0755 0.24287,-0.15402 0.36697,-0.22659 0.13192,-0.0772 0.53229,-0.30053 0.4009,-0.22247 -0.38236,0.22715 -0.76952,0.44612 -1.15391,0.66982 -0.047,0.0274 0.0928,-0.0571 0.14178,-0.0808 0.16199,-0.0786 0.21436,-0.0839 0.39487,-0.1348 0.60001,-0.0987 1.2318,-0.13479 1.79961,0.12074 0.61016,0.3847 0.62473,0.79161 0.5483,1.47568 -0.18384,0.83281 -0.462,1.66926 -1.12733,2.24542 0.38456,-0.20555 0.76557,-0.4179 1.15368,-0.61666 0.11901,-0.061 -0.22489,0.14625 -0.34595,0.203 -0.3458,0.16213 -0.80406,0.27163 -1.18492,0.16906 -0.12678,-0.0341 -0.2365,-0.1141 -0.35475,-0.17115 -0.10115,-0.097 -0.21443,-0.18286 -0.30346,-0.29114 -0.52123,-0.63398 -0.46434,-1.48796 -0.31531,-2.243 0.11778,-0.3676 0.23146,-0.6716 0.48858,-0.9664 0.0665,-0.0762 0.14176,-0.14445 0.21737,-0.21158 0.0655,-0.0582 0.28362,-0.2035 0.20547,-0.1639 -0.37144,0.18822 -0.72614,0.4078 -1.08921,0.6117 z" />
      <path
         style="fill:#000000;fill-opacity:1;fill-rule:nonzero;stroke:none;stroke-width:0.264583"
         id="path39"
         d="m 126.36848,113.85859 c -0.26282,0.45141 -0.57256,0.87019 -0.8167,1.33288 -0.20275,0.41442 -0.26558,0.87584 -0.29442,1.33134 -0.0412,0.45886 0.0592,0.75608 0.41548,1.04903 0.33938,0.2191 0.71547,0.32848 1.10758,0.40457 0.9369,0.0883 1.75919,-0.59073 2.46336,-1.15311 0.28383,-0.27806 0.52597,-0.57921 0.67692,-0.94801 0.12341,-0.44942 0.10105,-0.92051 0.1577,-1.37994 0.0773,-0.45134 0.12411,-0.89938 0.0379,-1.35183 -0.0983,-0.34272 -0.34912,-0.54484 -0.64345,-0.71943 -0.28507,-0.15227 -0.58292,-0.164 -0.89311,-0.10524 -0.76682,0.1501 -1.39053,0.65122 -2.04046,1.07411 -0.30627,0.3328 0.36948,0.10156 0.41024,0.0928 0,0 0.055,-0.024 0.055,-0.024 v 0 c 0.34326,-0.20194 0.68441,-0.40385 1.00402,-0.64129 0.53993,-0.34823 0.11169,-0.0696 -1.23473,0.70681 -0.0174,0.01 0.0336,-0.0218 0.0512,-0.0314 0.0854,-0.0469 0.16723,-0.036 0.26177,-0.0539 0.26519,-0.0373 0.51517,-0.0799 0.77082,0.0375 0.25867,0.12536 0.48342,0.2789 0.58308,0.55943 0.0876,0.42691 0.0308,0.85426 -0.0237,1.28256 -0.0331,0.44096 -0.004,0.89735 -0.16524,1.31761 -0.16134,0.32827 -0.39293,0.6134 -0.67545,0.8467 -0.5863,0.40372 -0.20552,0.13511 1.23121,-0.68056 0.0476,-0.027 -0.0933,0.0576 -0.14283,0.0808 -0.12078,0.0566 -0.16939,0.0627 -0.30119,0.0787 -0.0559,0.007 -0.11218,0.01 -0.16826,0.015 -0.38922,-0.0395 -0.7767,-0.10684 -1.12584,-0.29149 -0.3406,-0.22642 -0.39599,-0.49225 -0.37103,-0.88897 0.0232,-0.4276 0.0676,-0.85364 0.26307,-1.24289 0.231,-0.45207 0.52661,-0.86377 0.777,-1.30493 z" />
      <path
         style="fill:#000000;fill-opacity:1;fill-rule:nonzero;stroke:none;stroke-width:0.264583"
         id="path42"
         d="m 45.86692,104.95403 c 0.556001,-0.43756 1.152819,-0.81979 1.742747,-1.20973 0.807148,-0.53962 1.638792,-1.0409 2.461511,-1.55607 -0.288525,0.16713 1.253371,-0.75155 0.937189,-0.56845 -0.285401,0.16527 -0.582089,0.31393 -0.850363,0.50575 -0.178329,0.12751 0.384979,-0.20986 0.579072,-0.31177 0.536078,-0.2815 0.602038,-0.3073 1.142572,-0.56687 1.18175,-0.59663 2.403115,-1.10294 3.635459,-1.583692 1.429504,-0.560863 2.866295,-1.104069 4.316979,-1.607804 1.146685,-0.370498 2.280994,-0.778573 3.429497,-1.143217 1.298594,-0.401817 2.608469,-0.765802 3.912272,-1.150408 1.351235,-0.392239 2.710953,-0.752644 4.06169,-1.146569 1.304838,-0.391144 2.587744,-0.850464 3.880782,-1.278131 1.252646,-0.447151 2.530715,-0.813601 3.810478,-1.173287 1.313606,-0.360738 2.634925,-0.689456 3.961564,-0.998206 1.330667,-0.354579 2.682775,-0.616342 4.021069,-0.938911 0.884891,-0.199292 1.764834,-0.420455 2.650421,-0.616562 0.497001,-0.09034 0.99241,-0.190714 1.493314,-0.257368 0.456303,-0.08048 0.912106,-0.157855 1.373999,-0.197559 0.820653,0.0182 1.316736,-0.533752 2.083605,-0.987512 -3.236357,1.211675 -1.816397,1.136282 -1.295517,0.774996 0.156983,-0.108884 0.494665,-0.376089 0.610177,-0.465875 0,0 0.41357,-0.333719 0.41357,-0.333719 v 0 c 0.138452,-0.116708 0.306258,-0.207714 0.410549,-0.355743 0.01429,-0.02029 -0.04371,0.02355 -0.06552,0.0354 -0.02906,0.0158 -0.121034,0.066 -0.150387,0.08294 -0.549981,0.317315 -1.099526,0.635384 -1.649288,0.953074 -0.447934,0.464878 -0.118068,0.114607 1.519222,-0.81724 0.0172,-0.0098 -0.0395,0.0028 -0.05923,0.0044 -0.121589,0.01029 -0.243046,0.0223 -0.364567,0.03332 -0.464941,0.04573 -0.929137,0.09788 -1.386075,0.198591 -0.512784,0.0632 -1.01949,0.157821 -1.525331,0.261263 -0.909667,0.201549 -1.806633,0.458229 -2.716032,0.661757 -1.337469,0.332465 -2.687215,0.608941 -4.024125,0.943658 -1.332061,0.310184 -2.654914,0.652645 -3.977053,1.00253 -1.28657,0.334502 -2.557626,0.724519 -3.812534,1.163383 -1.295961,0.426717 -2.582781,0.881182 -3.884954,1.288992 -1.352762,0.390988 -2.710617,0.762378 -4.064852,1.148323 -1.293881,0.37877 -2.591541,0.744273 -3.884761,1.124964 -1.166757,0.365635 -2.315445,0.784598 -3.474854,1.172519 -1.463713,0.506053 -2.908195,1.065401 -4.35115,1.627495 -1.229675,0.467182 -2.450256,0.955116 -3.621852,1.556758 -1.591972,0.75773 -3.128349,1.62538 -4.625528,2.55648 -0.813543,0.50981 -1.631363,1.01325 -2.428904,1.54804 -0.585089,0.3903 -1.169892,0.78254 -1.723231,1.21734 z" />
      <path
         style="fill:#000000;fill-opacity:1;fill-rule:nonzero;stroke:none;stroke-width:0.264583"
         id="path43"
         d="m 92.321691,88.543153 c 0.590833,0.01601 1.181002,0.02999 1.770547,0.07387 0.796705,0.05971 1.566598,0.239448 2.320279,0.496612 0.93254,0.341167 1.85647,0.698934 2.756167,1.119243 1.029076,0.513051 2.012166,1.109422 3.033476,1.637816 1.35961,0.71596 2.73785,1.395277 4.14514,2.01228 1.6632,0.671045 3.36153,1.247905 5.03326,1.896679 1.62714,0.657371 3.18889,1.461858 4.71802,2.319605 1.24069,0.723101 2.45986,1.480775 3.66348,2.263712 0.93894,0.66375 1.9325,1.23659 2.93629,1.79436 0.97583,0.53469 1.8747,1.19418 2.79112,1.82177 0.85105,0.54135 1.69762,1.09526 2.58222,1.58093 0.67547,0.35838 1.37769,0.66292 2.08626,0.94908 0.53552,0.20363 1.07166,0.40551 1.60638,0.61125 0.31202,0.10339 0.62976,0.18957 0.94606,0.27921 0.19667,0.0393 0.38245,0.0952 0.56078,0.18668 0.15813,0.10871 0.32181,0.20825 0.48991,0.30065 0.13556,0.084 0.27412,0.15934 0.41922,0.22566 0.0359,0.0163 0.0736,0.0318 0.1078,0.0499 0.005,0.002 0.01,0.004 0.0146,0.006 0,0 1.55336,-1.12093 1.55336,-1.12093 v 0 c 0.004,0.002 0.008,0.004 0.0113,0.006 -0.0205,0.002 -0.065,0.001 -0.0913,-0.0131 -0.14859,-0.0467 -0.28761,-0.11191 -0.41129,-0.2079 -0.17051,-0.0787 -0.32436,-0.17765 -0.48256,-0.27768 -0.17432,-0.13764 -0.38972,-0.19573 -0.60599,-0.23209 -0.32065,-0.0793 -0.63578,-0.17539 -0.95737,-0.25149 -0.5479,-0.18624 -1.09117,-0.38413 -1.63287,-0.58774 -0.71207,-0.26938 -1.40978,-0.57658 -2.08691,-0.92473 -0.90411,-0.44885 -1.76177,-0.99191 -2.61026,-1.53672 -0.9185,-0.6356 -1.82853,-1.28955 -2.80478,-1.83514 -1.01586,-0.54033 -2.01533,-1.10698 -2.96313,-1.761607 -1.21994,-0.775597 -2.4647,-1.51084 -3.70754,-2.248807 -1.55277,-0.84482 -3.12824,-1.654054 -4.7725,-2.308236 -1.65449,-0.684072 -3.36794,-1.208042 -5.01994,-1.899674 -1.40299,-0.607653 -2.76331,-1.297053 -4.11038,-2.019924 -1.01074,-0.54936 -2.00722,-1.125136 -3.03114,-1.649312 -0.18802,-0.0884 -0.770998,-0.365284 -0.964787,-0.445432 -0.595183,-0.246157 -1.214215,-0.435022 -1.808845,-0.683177 -0.776899,-0.274958 -1.577994,-0.426361 -2.399609,-0.494443 -0.622502,-0.04166 -1.24232,-0.05711 -1.865871,-0.01871 z" />
      <path
         style="fill:#ffe6ac;fill-rule:evenodd;stroke:#ffe6ac;stroke-width:0.392946"
         d="m 338.13891,718.27256 c -0.008,-0.92376 0.33858,-6.47504 0.76947,-12.33618 0.96751,-13.16024 1.86749,-34.81723 1.83621,-44.18601 -0.0129,-3.85977 -0.36041,-10.4097 -0.77229,-14.55539 -0.48557,-4.88754 -0.76426,-14.11709 -0.79266,-26.25168 -0.0241,-10.29274 -0.26025,-22.106 -0.5248,-26.25168 -0.80743,-12.65306 -1.19095,-60.24491 -0.7723,-95.83619 l 0.39659,-33.71586 2.92593,-1.29915 c 5.56373,-2.47036 11.29375,-4.39218 23.71934,-7.95532 17.83201,-5.11347 51.49645,-15.63497 59.62115,-18.63403 3.80477,-1.40445 11.01148,-4.19106 16.01489,-6.19246 13.55057,-5.42034 16.74169,-6.47696 37.30132,-12.35089 10.36594,-2.96157 21.2199,-6.33661 24.11991,-7.5001 2.90001,-1.16349 5.31479,-2.05286 5.36616,-1.97637 0.0514,0.0765 0.50819,5.91655 1.01513,12.97791 0.77033,10.73015 0.86552,16.45058 0.57955,34.82897 -0.46098,29.62574 -0.62455,31.38885 -6.23567,67.2158 -1.56724,10.00683 -3.43577,22.4049 -4.15227,27.55127 -0.71651,5.14637 -2.46393,15.55845 -3.88317,23.13797 -1.41924,7.57951 -2.9551,17.72305 -3.41302,22.54119 -1.00039,10.52597 -1.04039,10.71809 -9.25912,44.47491 -0.95134,3.90743 -1.32427,4.63172 -3.4484,6.69731 -4.59882,4.4721 -8.73996,7.03362 -22.39536,13.85274 -7.5766,3.78354 -18.80504,9.52518 -24.9521,12.75921 -6.14705,3.23404 -18.89601,9.69529 -28.33102,14.35835 -9.43501,4.66306 -22.83974,11.39033 -29.78827,14.94948 -14.30799,7.32878 -21.28721,10.51209 -29.343,13.38373 l -5.58823,1.99203 z m 10.76638,-222.77129 c 0.6245,-0.33992 1.72201,-0.61804 2.43891,-0.61804 0.7169,0 5.82017,-0.82933 11.34059,-1.84296 27.86317,-5.11609 51.62734,-12.88525 58.20573,-19.02905 1.30474,-1.21855 1.47568,-1.74044 1.47568,-4.50525 0,-1.71987 -0.22494,-3.20501 -0.49989,-3.30032 -0.69632,-0.24137 -1.70501,-11.59348 -1.29716,-14.59871 0.38497,-2.8366 0.30548,-2.87285 -3.66122,-1.66941 -1.42954,0.43371 -5.52325,1.46162 -9.09711,2.28426 -6.67217,1.5358 -20.35033,5.36756 -40.02733,11.21314 -11.39484,3.38514 -17.45425,4.9367 -19.27966,4.9367 -0.56151,0 -2.20003,0.87722 -3.64116,1.94938 l -2.62024,1.94939 1.59407,0.16289 1.59408,0.1629 v 10.97263 c 0,9.2227 -0.12964,11.11588 -0.81289,11.87085 -0.75773,0.83729 -0.67838,0.89082 1.16963,0.78893 1.09038,-0.0601 2.49347,-0.38741 3.11797,-0.72733 z m 100.74158,-34.62928 c 0.97643,-0.40798 3.17564,-1.69272 4.88713,-2.85496 2.58781,-1.75736 3.39927,-2.69714 4.81908,-5.58119 2.31198,-4.6963 2.43451,-8.81591 0.325,-10.92718 -1.19311,-1.19412 -1.96274,-1.45186 -4.89221,-1.6384 -3.25644,-0.20735 -3.76511,-0.0798 -8.04051,2.0158 -2.51027,1.23043 -4.5209,2.37123 -4.46804,2.5351 0.0529,0.16388 -0.47115,1.21285 -1.16445,2.33105 -2.3768,3.83351 -2.10882,10.00597 0.56673,13.05325 1.36381,1.55329 1.91238,1.80831 3.88982,1.80831 1.26616,0 3.10101,-0.3338 4.07745,-0.74178 z m 33.37627,-15.40929 c 2.33904,-0.88871 6.83346,-4.52342 7.72488,-6.24724 0.5043,-0.97521 0.93402,-3.62354 1.11955,-6.89967 l 0.30109,-5.31695 -1.67165,-1.40661 c -1.0609,-0.89269 -2.27434,-1.40243 -3.32124,-1.39519 -2.83373,0.0196 -9.46633,3.56975 -9.04284,4.84023 0.10742,0.32224 -0.22383,0.94144 -0.73611,1.37601 -0.51227,0.43457 -1.64136,2.15895 -2.50908,3.83197 -1.67865,3.23652 -2.11436,7.20016 -1.01691,9.25076 1.14593,2.14119 5.96662,3.17708 9.15231,1.96669 z"
         id="path1131"
         transform="scale(0.26458333)" />
      <path
         style="fill:#000000;fill-opacity:1;fill-rule:nonzero;stroke:none;stroke-width:0.264583"
         id="path40"
         d="m 111.55139,138.36997 c -0.96717,0.3923 -1.85692,0.94764 -2.74622,1.48849 -0.15326,0.0932 -0.30117,0.19662 -0.43811,0.31247 -0.18354,0.15527 -0.34726,0.33255 -0.52089,0.49883 -1.20631,1.2375 -2.22036,2.63127 -3.15761,4.0775 -0.95099,1.46898 -1.64654,3.07056 -2.20918,4.72175 -0.3081,1.03259 -0.63629,2.06453 -0.84958,3.12238 -0.15536,0.77053 -0.16309,0.9755 -0.2584,1.7718 -0.11046,1.23724 -0.24317,2.48271 -0.14334,3.72582 0.0506,0.62949 0.14747,1.13604 0.25015,1.75782 0.2061,1.16842 0.5019,2.33976 1.12035,3.36454 0.39048,0.64702 0.68147,0.96921 1.15152,1.55359 0.75865,0.83361 1.61913,1.58029 2.65053,2.05511 0.61446,0.28289 0.89274,0.33713 1.53687,0.5228 1.10848,0.23564 2.27232,0.47132 3.41089,0.30542 0.20594,-0.03 0.40618,-0.0909 0.60928,-0.13631 0.59378,-0.23884 0.63983,-0.23282 1.19868,-0.55737 0.70034,-0.40673 1.40123,-0.81312 2.08772,-1.2428 0.59156,-0.37026 1.1051,-0.88526 1.6091,-1.36093 1.0613,-1.01845 1.94209,-2.19498 2.81957,-3.36924 1.02616,-1.34908 1.8716,-2.81326 2.68073,-4.29828 0.68479,-1.29641 1.2729,-2.65171 1.65232,-4.07109 0.0775,-0.28985 0.13743,-0.58411 0.20615,-0.87617 0.29566,-1.73146 0.57515,-3.48637 0.5954,-5.24776 0.004,-0.34656 -0.0169,-0.69297 -0.0253,-1.03945 -0.13384,-1.59237 -0.33951,-3.20329 -0.8699,-4.71968 -0.0857,-0.24504 -0.19435,-0.48145 -0.29153,-0.72217 -0.54225,-1.06261 -1.23748,-2.04918 -2.13623,-2.84105 -0.15747,-0.13874 -0.32692,-0.26325 -0.49038,-0.39487 -0.82492,-0.46926 -1.73923,-0.78722 -2.68147,-0.91474 -0.47719,-0.0646 -0.81266,-0.0568 -1.29034,-0.0652 -1.36435,0.0255 -2.61093,0.54447 -3.8094,1.14777 -1.4502,0.7873 -2.88188,1.6098 -4.22475,2.56952 -0.78777,0.56411 -1.50222,1.21221 -2.12479,1.95373 -0.28449,0.48105 -0.16443,0.24062 -0.36732,0.71768 0,0 0.69294,-0.2947 0.69294,-0.2947 v 0 c 0.75889,-0.69291 0.37487,-0.34705 1.15224,-1.03741 0.77842,-0.71394 1.55612,-1.43177 2.42276,-2.03966 0.39143,-0.2733 0.7866,-0.53885 1.19065,-0.7933 0.1368,-0.0861 0.55445,-0.33251 0.41256,-0.25502 -0.005,0.003 -2.11635,1.211 -0.62119,0.35538 1.17611,-0.61871 2.39581,-1.16912 3.74841,-1.21543 0.45555,-0.002 0.82751,-0.016 1.28286,0.0325 0.91723,0.0976 1.8114,0.37945 2.60271,0.85477 0.16331,0.12498 0.33287,0.24219 0.48993,0.37494 0.8955,0.75694 1.58158,1.72457 2.11918,2.75949 0.10046,0.23231 0.21273,0.45986 0.30139,0.69692 0.55562,1.48556 0.77169,3.07811 0.89141,4.65026 0.007,0.343 0.0233,0.68597 0.0196,1.02901 -0.019,1.75798 -0.26769,3.51585 -0.641,5.23056 -0.43232,1.69693 -0.9974,3.35447 -1.85128,4.89156 -0.81874,1.48193 -1.69733,2.93356 -2.71844,4.2866 -0.87545,1.15989 -1.74457,2.33097 -2.80846,3.32951 -0.46478,0.4256 -0.60328,0.57076 -1.09534,0.95135 -0.17012,0.13158 -0.72613,0.44777 -0.52252,0.37851 0.35534,-0.12087 0.65565,-0.36582 0.98949,-0.53735 0.39393,-0.20241 -1.52948,0.86387 -1.18364,0.60361 -0.20055,0.0552 -0.39724,0.12712 -0.60166,0.1656 -1.14121,0.21487 -2.32218,-5.3e-4 -3.44521,-0.20538 -0.63626,-0.16973 -0.91996,-0.2195 -1.52752,-0.4866 -1.02445,-0.45038 -1.89517,-1.1628 -2.65857,-1.97075 -0.48962,-0.60179 -0.73271,-0.85375 -1.12749,-1.52919 -0.59626,-1.02015 -0.87421,-2.17363 -1.0872,-3.32468 -0.10966,-0.66966 -0.18818,-1.06214 -0.24206,-1.73986 -0.098,-1.2323 0.007,-2.4679 0.141,-3.69302 0.23825,-1.65533 0.61668,-3.28222 1.13816,-4.8727 0.56429,-1.63255 1.25153,-3.21774 2.19487,-4.67181 0.9309,-1.43549 1.9395,-2.82588 3.15728,-4.03527 0.17282,-0.15806 0.33692,-0.32622 0.51847,-0.47417 0.37309,-0.30403 1.24916,-0.75676 -0.47606,0.21464 -0.24175,0.13612 0.48572,-0.26931 0.73767,-0.38548 0.0889,-0.041 0.17862,-0.0804 0.26793,-0.12052 z" />
      <path
         style="fill:#000000;fill-opacity:1;fill-rule:nonzero;stroke:none;stroke-width:0.264583"
         id="path41"
         d="m 110.14223,132.43824 c -0.6282,-0.10911 -1.27135,0.20957 -1.79902,0.51872 -0.54402,0.31873 -1.07879,0.65298 -1.61818,0.97947 -1.18983,0.86177 -2.24727,1.88558 -3.27599,2.92952 -0.96724,1.01228 -1.8297,2.11542 -2.64105,3.25444 -1.010967,1.42594 -1.845641,2.96267 -2.645181,4.51356 -0.46357,0.94044 -0.89283,1.89648 -1.26467,2.87694 -0.0832,0.21929 -0.17427,0.43606 -0.24313,0.66025 -0.0746,0.24301 -0.12449,0.49296 -0.18674,0.73943 -0.34307,1.46539 -0.54653,2.95648 -0.67468,4.45448 -0.12572,1.29197 -0.007,2.58576 0.17998,3.8647 0.25079,1.52616 0.59978,3.03658 0.98457,4.53419 0.31654,1.38097 0.80191,2.70551 1.36566,4.00151 0.50937,1.1114 1.14391,2.15898 1.891191,3.12511 0.82109,1.01272 1.92656,1.70445 3.07267,2.2913 1.41577,0.68648 2.85187,1.00871 4.39691,1.24014 1.37733,0.18728 2.76266,0.28288 4.14677,0.13695 0.99912,-0.11712 1.93854,-0.44251 2.84422,-0.86539 1.04247,-0.57537 0.54337,-0.29364 2.2547,-1.30993 0.29526,-0.17534 0.71226,-0.42819 0.99211,-0.63182 0.44384,-0.32295 0.60905,-0.48962 1.02542,-0.86069 1.07212,-0.94474 2.05043,-1.98848 2.97522,-3.07597 0.96664,-1.29193 1.78,-2.6857 2.50051,-4.12679 0.56085,-1.17373 1.00939,-2.39471 1.41362,-3.62965 0.44766,-1.22696 0.80774,-2.4835 1.13127,-3.74812 0.32687,-1.26288 0.659,-2.52434 0.99102,-3.78587 0.38638,-1.4872 0.49397,-3.03037 0.64371,-4.55511 0.12996,-1.28884 0.19138,-2.58307 0.16984,-3.87811 -0.0776,-1.22938 -0.25198,-2.44867 -0.35049,-3.67635 -0.0624,-0.55543 -0.0835,-1.12454 -0.21798,-1.66994 -0.11796,-0.47843 -0.32594,-0.91882 -0.54728,-1.35537 -0.43257,-0.8215 -1.03133,-1.53805 -1.67501,-2.20091 -0.66813,-0.64677 -1.42762,-1.18646 -2.19819,-1.70249 -0.73574,-0.46946 -1.58348,-0.65686 -2.43254,-0.79502 -0.89954,-0.11575 -1.8099,-0.12345 -2.71574,-0.13613 -0.71071,0.006 -1.41662,0.09 -2.11596,0.21119 -0.63234,0.11861 -1.26171,0.25092 -1.8937,0.37173 -0.48388,0.13814 -0.97977,0.22311 -1.46965,0.33413 -0.4087,0.0869 -0.79107,0.25748 -1.18716,0.38536 -0.28758,0.0714 -0.5703,0.16161 -0.85946,0.22672 -0.24844,0.0366 -0.4844,0.12315 -0.72688,0.18462 -0.22204,0.0448 -0.44883,0.0375 -0.66967,0.0875 -0.60583,0.16403 -1.16526,0.614 -1.66309,0.9035 -0.15103,0.0878 -0.29987,0.17749 -0.44472,0.27508 -0.0711,0.088 -0.23048,0.11999 -0.0687,0.1846 0,0 0.54476,-0.21567 0.54476,-0.21567 v 0 c 0.29983,-0.15889 0.60374,-0.31244 0.88717,-0.50008 0.14901,-0.0924 0.29905,-0.18293 0.44899,-0.27377 -2.16504,1.21693 -1.32278,0.67148 -0.88694,0.53489 0.21723,-0.0709 0.43386,-0.0759 0.66085,-0.0965 0.25167,-0.0304 0.47816,-0.14582 0.72838,-0.1807 0.29597,-0.0604 0.5797,-0.14937 0.87317,-0.21758 0.39444,-0.1304 0.77549,-0.30022 1.18123,-0.39236 0.48968,-0.14378 1.00407,-0.1973 1.48966,-0.36094 0.63641,-0.12554 1.27042,-0.26052 1.90691,-0.38398 0.69853,-0.1323 1.40548,-0.20845 2.11557,-0.24437 0.90191,0.004 1.80687,0.007 2.70319,0.11956 0.83358,0.12525 1.66871,0.30585 2.40168,0.74209 0.76657,0.50545 1.51869,1.04219 2.19008,1.67077 0.62323,0.66138 1.20028,1.37513 1.63482,2.17681 0.19009,0.36843 0.24823,0.45182 0.38981,0.84624 0.24348,0.67839 0.31394,1.39941 0.38305,2.11217 0.10245,1.22399 0.28146,2.44035 0.34882,3.66737 0.0269,1.2821 -0.041,2.56455 -0.13425,3.84308 -0.13461,1.52831 -0.25982,3.07007 -0.68593,4.55082 -0.33241,1.26076 -0.66216,2.52216 -0.98822,3.78457 -0.34145,1.26229 -0.7188,2.51486 -1.15364,3.74844 -0.4232,1.2252 -0.86718,2.44263 -1.42559,3.61424 -0.70798,1.43692 -1.50046,2.83888 -2.50673,4.09127 -0.94292,1.07629 -1.92101,2.12608 -3.00232,3.066 -0.49353,0.42391 -0.9849,0.8177 -1.53543,1.16589 -0.17052,0.10785 -0.70354,0.39169 -0.517,0.31479 0.25365,-0.10456 0.47621,-0.27296 0.72015,-0.39853 0.16866,-0.0868 -0.32946,0.18814 -0.49418,0.28221 -0.90189,0.43047 -1.83595,0.77937 -2.83262,0.91564 -1.40182,0.18071 -2.79077,0.12104 -4.19195,-0.0587 -0.66882,-0.0991 -0.98268,-0.13089 -1.63999,-0.28627 -0.92663,-0.21906 -1.82297,-0.56138 -2.69281,-0.94382 -1.132,-0.57146 -2.20105,-1.2634 -3.01461,-2.25454 -0.28347,-0.36054 -0.45129,-0.55865 -0.70507,-0.94468 -0.44821,-0.68178 -0.809267,-1.41962 -1.171627,-2.14876 -0.582884,-1.27552 -1.084934,-2.58461 -1.400654,-3.95497 -0.37787,-1.49764 -0.7429,-3.00247 -0.94796,-4.53531 -0.15277,-1.27123 -0.30434,-2.55058 -0.17744,-3.83216 0.11992,-1.48777 0.31261,-2.97247 0.66831,-4.42413 0.40982,-1.46766 1.00477,-2.8704 1.67765,-4.23672 0.789341,-1.54634 1.627331,-3.07069 2.636001,-4.48741 0.82282,-1.12308 1.68606,-2.21766 2.6405,-3.23295 1.00767,-1.03937 2.05292,-2.05068 3.24073,-2.88552 -0.17914,0.0892 -0.3423,0.31197 -0.53741,0.26754 -0.18512,-0.0422 0.32791,-0.19204 0.49792,-0.27653 0.36224,-0.18001 0.72205,-0.2862 1.11963,-0.34638 0.0871,-0.0132 0.17503,-0.0209 0.26255,-0.0314 z" />
      <path
         style="fill:#000000;fill-opacity:1;fill-rule:nonzero;stroke:none;stroke-width:0.264583"
         id="path44"
         d="m 109.96123,142.30532 c -0.89371,0.55639 -1.61031,1.33699 -2.30918,2.11291 -0.54219,0.72498 -1.44821,2.08119 -1.28454,3.04451 0.026,0.15324 0.12088,0.28639 0.18132,0.42959 0.10713,0.10121 0.19531,0.2273 0.32138,0.30364 1.20483,0.72968 3.14342,-0.80611 3.99373,-1.31711 0.93081,-0.85915 1.64566,-1.96567 2.03045,-3.17741 0.0594,-0.18709 0.0922,-0.3816 0.13832,-0.5724 -0.007,-0.17129 0.009,-0.34512 -0.0208,-0.51386 -0.10095,-0.56415 -0.51428,-0.98063 -1.05809,-1.13072 -0.13322,-0.0368 -0.27302,-0.0431 -0.40953,-0.0646 -0.77894,-0.0371 -1.38785,0.39483 -2.01739,0.79128 0,0 -0.50419,0.4065 -0.50419,0.4065 v 0 c 0.41285,-0.11756 0.80834,-0.30609 1.24917,-0.29882 0.68387,0.0732 1.21858,0.23904 1.40107,0.99137 0.0357,0.14732 0.0348,0.30118 0.0523,0.45177 -0.0296,0.17518 -0.0431,0.35389 -0.0889,0.52555 -0.32176,1.20589 -1.08792,2.27122 -2.01965,3.0777 0.18615,-0.0927 0.73588,-0.38654 0.55845,-0.27809 -0.58586,0.3581 -1.4408,0.72895 -2.11885,0.37316 -0.11446,-0.0601 -0.19744,-0.16689 -0.29617,-0.25033 -0.0572,-0.12171 -0.14623,-0.23308 -0.17169,-0.36514 -0.17803,-0.92325 0.73753,-2.24412 1.26068,-2.93016 0.67357,-0.75698 1.37341,-1.50788 2.24226,-2.04532 z" />
      <path
         style="fill:#000000;fill-opacity:1;fill-rule:nonzero;stroke:none;stroke-width:0.264583"
         id="path45"
         d="m 105.38152,150.09557 c -0.52466,0.47927 -0.67602,1.15207 -0.6862,1.83593 0.0666,0.5295 0.34769,1.06528 0.9703,0.94568 0.11786,-0.0226 0.22652,-0.0794 0.33978,-0.11908 0.80753,-0.4863 2.08418,-1.0043 2.38806,-2.05629 0.0274,-0.0948 0.0313,-0.19487 0.047,-0.29231 -0.0128,-0.0859 -0.005,-0.17741 -0.0384,-0.2577 -0.14011,-0.33965 -0.62885,-0.51195 -0.96514,-0.51189 -0.12444,2e-5 -0.24681,0.032 -0.37022,0.048 -0.69819,0.31526 -0.36552,0.14327 -1.00026,0.5116 0,0 -0.36897,0.29419 -0.36897,0.29419 v 0 c 0.1542,-0.0112 0.0792,-0.0237 0.22444,0.0407 0.34542,-0.006 0.88884,0.0113 1.0893,0.36366 0.0325,0.0571 0.0385,0.12555 0.0577,0.18833 -0.0392,0.44086 -0.21075,0.74349 -0.53312,1.05458 -0.0916,0.0884 -0.41737,0.28224 -0.29758,0.23924 0.26999,-0.0969 0.50621,-0.27 0.75931,-0.405 -0.26136,0.12744 -0.62835,0.3414 -0.93742,0.20067 -0.27248,-0.12406 -0.32609,-0.50133 -0.36796,-0.74996 0.0153,-0.67168 0.18027,-1.16745 0.59008,-1.70346 z" />
      <path
         style="fill:#000000;fill-opacity:1;fill-rule:nonzero;stroke:none;stroke-width:0.264583"
         id="path46"
         d="m 122.54851,145.41027 c -0.28601,0.3967 -0.67699,0.69084 -1.10441,0.92016 2.69949,-1.45636 1.41131,-0.77978 0.7256,-0.55721 -0.72974,0.22121 -1.41191,0.62648 -1.99335,1.12018 -0.007,0.007 -0.0198,0.0105 -0.0215,0.0202 -0.004,0.0246 0.0101,0.0501 0.005,0.0746 -0.003,0.0179 -0.0225,0.0294 -0.0282,0.0466 -0.0432,0.1318 -0.0829,0.26849 -0.11933,0.40311 -0.12027,0.52271 -0.19074,1.05462 -0.28954,1.58154 -0.10173,0.52258 -0.15004,1.05208 -0.18662,1.58244 0.013,0.42564 -0.0717,0.83533 -0.17238,1.24579 -0.10621,0.36556 -0.14826,0.73775 -0.16136,1.11663 -0.004,0.41454 -0.0112,0.829 -0.016,1.24349 0.0184,0.28765 0.1582,0.52165 0.32316,0.74862 0.14127,0.18338 0.26084,0.38202 0.38793,0.5754 0.16894,0.20034 0.40702,0.29013 0.65869,0.33098 0.30174,0.0243 0.57779,-0.0664 0.85025,-0.18412 0.75751,-0.29966 1.37593,-0.73969 2.11427,-1.16915 0.0856,-0.0498 0.0663,-0.0419 0.11607,-0.12759 0.0677,-0.14661 0.37175,-0.23315 -0.0837,-0.0586 0,0 -1.23597,0.47953 -1.23597,0.47953 v 0 c -0.23729,0.10063 -0.37266,0.14753 -0.51566,0.34563 -0.57792,0.31859 -1.31141,0.7425 1.47759,-0.84873 0.18177,-0.10371 -0.43189,0.28282 -0.3359,0.16454 -0.26073,0.11046 -0.50832,0.25309 -0.79986,0.25792 -0.21126,0.0173 -0.3936,-0.0468 -0.55247,-0.18793 -0.13983,-0.1873 -0.25447,-0.39225 -0.40631,-0.57027 -0.14485,-0.19257 -0.2632,-0.3873 -0.27369,-0.63504 -0.005,-0.40995 -0.0136,-0.82035 0.0126,-1.2299 0.0273,-0.36563 0.0791,-0.72737 0.17174,-1.08285 0.0988,-0.4199 0.16313,-0.84128 0.15324,-1.27452 0.0237,-0.52139 0.0799,-1.0409 0.17952,-1.5536 0.089,-0.52594 0.16577,-1.05446 0.31658,-1.56771 0.0245,-0.0686 0.11241,-0.39176 0.17154,-0.44041 0.0128,-0.0106 0.0382,0.0366 0.0499,0.001 0.528,-0.33734 1.32718,-0.75375 -1.51297,0.87094 -0.0472,0.027 0.0852,-0.0691 0.13429,-0.0925 0.0267,-0.0127 0.0565,-0.0174 0.0847,-0.026 0.9033,-0.28883 1.67238,-0.69692 2.48655,-1.26303 0.41213,-0.2631 0.77067,-0.58551 1.0662,-0.97699 z" />
      <path
         style="fill:#b77142;fill-opacity:1;fill-rule:evenodd;stroke:#000000;stroke-width:0.2;stroke-miterlimit:4;stroke-dasharray:none;stroke-opacity:1"
         d="m 109.98903,166.42814 c -2.16061,-0.40964 -3.44865,-1.10718 -4.79915,-2.59899 -2.94427,-3.25234 -3.2418,-9.74319 -0.7388,-16.11725 1.30064,-3.31215 3.97273,-7.06867 5.97211,-8.39578 0.39859,-0.26457 0.87689,-0.63322 1.06289,-0.81922 0.488,-0.48799 1.96626,-1.14128 3.14526,-1.38996 1.18935,-0.25088 2.25209,-0.17905 3.53188,0.23869 2.39338,0.78125 4.30788,3.65795 4.74788,7.13409 0.0756,0.59751 0.0608,0.62956 -0.42799,0.9261 -0.27848,0.16895 -0.84018,0.47841 -1.24822,0.6877 -1.21193,0.6216 -1.28133,0.78732 -1.75648,4.19374 -0.11897,0.85296 -0.24521,2.17348 -0.28053,2.9345 l -0.0642,1.38366 0.46724,0.61066 c 0.43561,0.56931 0.51094,0.61067 1.11232,0.61067 0.35478,0 0.64495,0.0208 0.64483,0.0461 -1.2e-4,0.0254 -0.31901,0.66676 -0.70864,1.42528 -1.87221,3.64483 -5.5143,8.17229 -7.22871,8.986 -0.6753,0.32052 -2.16981,0.38322 -3.43169,0.14397 z m -3.96109,-13.62082 c 1.05432,-0.44052 2.01943,-1.21036 2.29317,-1.82921 0.24568,-0.55541 0.24933,-0.62669 0.0477,-0.9344 -0.25314,-0.38633 -0.74813,-0.54564 -1.28326,-0.41299 -0.20663,0.0512 -0.53043,0.10769 -0.71954,0.12549 -0.70887,0.0667 -1.10322,0.26646 -1.35523,0.68642 -0.50589,0.84306 -0.4675,1.97605 0.0811,2.39263 0.28639,0.21748 0.35351,0.21547 0.93607,-0.0279 z m 2.5515,-4.54977 c 1.12358,-0.39642 2.50553,-1.37437 3.13982,-2.22191 1.59886,-2.13642 1.79715,-3.97664 0.48748,-4.52386 -0.66817,-0.27918 -0.98876,-0.24616 -1.92084,0.19787 -0.78304,0.37303 -1.52493,0.98205 -1.1963,0.98205 0.0841,0 -0.16365,0.29399 -0.55063,0.65331 -0.91012,0.84507 -1.9612,2.45267 -2.16845,3.31656 -0.34629,1.44349 0.63389,2.15168 2.20892,1.59598 z"
         id="path1207" />
      <path
         style="fill:#ffffff;fill-opacity:1;fill-rule:evenodd;stroke:#ffffff;stroke-width:0.2;stroke-miterlimit:4;stroke-dasharray:none;stroke-opacity:1"
         d="m 108.74119,171.57441 c -3.37759,-0.47159 -6.17557,-1.94723 -7.65984,-4.03976 -2.480087,-3.49644 -4.366339,-10.81126 -3.92704,-15.22892 0.316674,-3.18453 0.794207,-4.95453 2.065427,-7.65562 1.650483,-3.50692 3.615343,-6.31019 6.241113,-8.90417 1.87036,-1.84772 2.57098,-2.29408 4.09498,-2.60887 0.57591,-0.11896 1.40133,-0.33815 1.83426,-0.4871 1.03446,-0.35591 4.53583,-1.05798 5.84157,-1.17132 1.20764,-0.10482 3.42365,0.115 4.36238,0.43273 1.47729,0.50002 3.69526,2.41161 4.58346,3.95034 0.59232,1.02614 0.77919,1.76856 1.03651,4.11796 0.27177,2.48125 0.20437,6.77738 -0.14065,8.9655 -0.28023,1.77728 -1.55186,6.60227 -2.42004,9.18249 -1.67088,4.9658 -3.01023,7.23261 -6.00569,10.16441 -1.83758,1.79852 -2.67286,2.38781 -4.16677,2.9396 -0.91336,0.33737 -1.25215,0.38568 -2.9571,0.4217 -1.05906,0.0224 -2.31122,-0.0132 -2.78257,-0.079 z m 3.40462,-4.05789 c 1.0279,-0.36266 3.43987,-1.89289 4.44249,-2.81846 2.08869,-1.92815 5.27434,-6.46688 6.41968,-9.14639 0.16167,-0.37824 0.42006,-0.82238 0.57418,-0.98698 0.15413,-0.16461 0.24426,-0.35748 0.2003,-0.42861 -0.044,-0.0711 0.0664,-0.71011 0.24518,-1.41996 1.33909,-5.31602 0.95747,-10.8031 -0.95718,-13.76284 -1.08756,-1.68121 -2.08463,-2.47756 -3.64231,-2.90911 -2.56284,-0.71002 -4.3367,-0.3145 -7.89025,1.75927 -2.75176,1.60587 -4.36598,2.91705 -5.00204,4.06302 -0.14696,0.26477 -0.64754,1.00748 -1.11241,1.65048 -1.87712,2.5964 -3.3423,6.15308 -3.93506,9.55222 -0.67841,3.89024 -0.22987,8.08381 1.09616,10.24857 1.03848,1.69534 2.68143,3.16458 4.16317,3.723 1.74104,0.65615 4.25811,0.87801 5.39809,0.47579 z"
         id="path1511" />
      <path
         style="fill:#ffffff;fill-opacity:1;fill-rule:evenodd;stroke:#fcfcfc;stroke-width:0.2;stroke-miterlimit:4;stroke-dasharray:none;stroke-opacity:1"
         d="m 121.44054,154.18229 c -0.51112,-0.67011 -0.58031,-1.34361 -0.31297,-3.04646 0.1175,-0.74846 0.24949,-1.73219 0.29331,-2.18607 0.0438,-0.45388 0.14618,-1.16959 0.22748,-1.59047 0.135,-0.69886 0.20087,-0.79728 0.7595,-1.13471 0.33642,-0.2032 0.64961,-0.36946 0.69598,-0.36946 0.0464,0 0.0463,0.85102 -1.2e-4,1.89117 -0.0911,2.04139 -0.45652,4.31167 -0.95534,5.93545 l -0.31286,1.01841 z"
         id="path1883" />
      <path
         style="fill:#ffffff;fill-opacity:1;fill-rule:evenodd;stroke:#ffffff;stroke-width:0.2;stroke-miterlimit:4;stroke-dasharray:none;stroke-opacity:1"
         d="m 107.88894,147.14319 c -0.33875,-0.43064 -0.3456,-0.53175 -0.0859,-1.26779 0.27071,-0.76728 1.142,-2.00972 1.98613,-2.83216 l 0.69793,-0.68001 0.48034,0.22906 c 1.12374,0.53588 0.70359,2.4843 -0.88897,4.12245 -0.69112,0.71091 -0.82623,0.79085 -1.33665,0.79085 -0.4496,0 -0.62716,-0.0754 -0.85287,-0.3624 z"
         id="path1922" />
      <path
         style="fill:#ffffff;fill-opacity:1;fill-rule:evenodd;stroke:#ffffff;stroke-width:0.2;stroke-miterlimit:4;stroke-dasharray:none;stroke-opacity:1"
         d="m 105.98091,152.0169 c -0.0908,-0.0908 -0.16505,-0.43493 -0.16505,-0.76477 v -0.59973 l 0.51577,0.0427 c 0.45285,0.0375 0.52125,0.0906 0.56068,0.43525 0.0301,0.26286 -0.0574,0.50142 -0.26467,0.72208 -0.35351,0.37629 -0.41842,0.3928 -0.64673,0.16448 z"
         id="path1961" />
      <path
         style="fill:#b77142;fill-opacity:1;fill-rule:evenodd;stroke:#000000;stroke-width:0.75590552;stroke-miterlimit:4;stroke-dasharray:none;stroke-opacity:1"
         d="m 339.9723,460.46576 c -0.85772,-0.30035 -6.9398,-2.48137 -13.51571,-4.8467 -14.15865,-5.0928 -35.33403,-11.26549 -57.96164,-16.89599 -24.69227,-6.14425 -33.25749,-9.32892 -57.18189,-21.26107 -13.87572,-6.92043 -20.89096,-10.91226 -29.07248,-16.5429 -2.69508,-1.85479 -5.59296,-3.66366 -6.43974,-4.0197 l -1.53959,-0.64735 5.9199,-3.87131 c 3.25594,-2.12922 7.37502,-4.74609 9.1535,-5.81526 11.15201,-6.70426 37.05612,-16.3834 66.30186,-24.77388 8.07282,-2.31605 20.40905,-6.08956 27.41383,-8.38557 16.84402,-5.52109 50.00089,-13.759 63.18001,-15.69725 2.87011,-0.4221 6.09305,-1.18456 7.1621,-1.69435 1.67736,-0.79988 2.38696,-0.85021 5.17833,-0.36727 5.27729,0.91303 13.0212,4.09328 23.24827,9.54754 12.99208,6.92888 17.7226,9.08258 30.17995,13.74024 12.87555,4.81402 23.69572,10.09123 33.75979,16.4653 4.14569,2.62567 10.78485,6.73769 14.75369,9.13781 3.96884,2.40012 9.23245,5.71967 11.6969,7.37676 10.40515,6.99641 16.41854,10.04535 26.07979,13.22311 2.73099,0.89827 5.03095,1.86715 5.11101,2.15306 0.17797,0.63557 -4.77674,2.23845 -23.33225,7.54814 -17.10611,4.89493 -22.81973,6.83641 -38.05449,12.93079 -6.37438,2.54996 -14.04597,5.48927 -17.04798,6.53181 -7.36657,2.55826 -40.90889,12.84542 -56.80958,17.42306 -12.0916,3.48104 -22.19096,7.04705 -24.53044,8.66154 -1.18219,0.81584 -1.52868,0.82337 -3.65314,0.0794 z"
         id="path2297"
         transform="scale(0.26458333)" />
      <path
         style="fill:#b77142;fill-opacity:1;fill-rule:evenodd;stroke:#000000;stroke-width:0.392946;stroke-miterlimit:4;stroke-dasharray:none;stroke-opacity:1"
         d="m 330.61527,719.71355 c -0.28591,-0.097 -1.42266,-0.32784 -2.52612,-0.51303 l -2.00627,-0.33672 0.35063,-3.47466 c 0.19284,-1.91106 0.90653,-6.86658 1.58597,-11.01227 1.18369,-7.22247 2.40339,-16.87638 3.12654,-24.74661 l 0.33935,-3.69328 -4.33382,-1.34934 c -24.54627,-7.64247 -23.07106,-6.98578 -47.98739,-21.36165 -4.76893,-2.75152 -7.80421,-3.17782 -9.62954,-1.35249 -0.99396,0.99396 -1.03967,1.73278 -1.03967,16.80436 0,15.46598 -0.56532,25.43637 -1.63473,28.83132 -0.44953,1.42706 -0.72406,1.65284 -1.6612,1.36619 -2.33793,-0.71512 -27.8469,-13.68562 -32.31769,-16.43251 -6.37401,-3.91626 -26.7838,-17.03601 -33.7844,-21.71717 -10.25529,-6.85751 -21.02895,-15.5024 -20.06345,-16.09911 0.40977,-0.25325 0.42606,-2.46605 0.0579,-7.85921 -0.28188,-4.12869 -0.51832,-17.68248 -0.52544,-30.11954 -0.0144,-25.16518 -0.53894,-41.27616 -2.07323,-63.67983 -0.56782,-8.29137 -1.39468,-24.90011 -1.83746,-36.90831 -0.44278,-12.00819 -1.02717,-27.09641 -1.29865,-33.52938 -0.53654,-12.71386 -0.57125,-54.41951 -0.0531,-63.75077 l 0.32149,-5.78914 7.79753,4.88406 c 9.09389,5.69604 39.70037,21.30444 49.12444,25.05201 9.08525,3.61283 16.21594,5.83121 31.3453,9.75159 11.79756,3.05704 18.93416,5.07772 41.29632,11.69278 3.78534,1.11976 11.66346,3.90928 17.50693,6.19894 5.84347,2.28965 10.907,4.163 11.2523,4.163 0.48605,0 0.54561,4.60736 0.26377,20.40354 -0.49301,27.63189 -0.32295,101.78313 0.25483,111.1148 0.25668,4.14569 0.47151,15.56652 0.4774,25.37962 0.007,12.10274 0.28098,20.88159 0.85092,27.29135 0.65528,7.3696 0.7675,12.65292 0.50986,24.00474 -0.53455,23.55325 -1.96742,47.12125 -2.85771,47.00406 -0.17148,-0.0226 -0.54571,-0.12038 -0.83162,-0.21734 z"
         id="path4202"
         transform="scale(0.26458333)" />
      <path
         style="fill:#e17e3a;fill-opacity:1;fill-rule:evenodd;stroke:#000000;stroke-width:0.75590552;stroke-miterlimit:4;stroke-dasharray:none;stroke-opacity:1"
         d="m 309.56194,713.90322 c -22.75797,-7.07617 -37.94798,-12.24771 -37.94798,-12.91965 0,-0.38374 0.23046,-1.30385 0.51213,-2.04471 1.20963,-3.18156 2.10562,-13.30064 2.52949,-28.56727 l 0.33731,-12.14928 7.79753,4.41311 c 12.10498,6.85096 18.34812,9.67705 30.11437,13.6319 5.98426,2.01142 11.06675,3.84341 11.29444,4.07109 0.58459,0.5846 -0.41379,11.40296 -1.93057,20.91945 -2.29197,14.38012 -2.53262,15.59591 -3.07486,15.5345 -0.29411,-0.0333 -4.62845,-1.33342 -9.63186,-2.88914 z"
         id="path4241"
         transform="scale(0.26458333)" />
      <path
         style="fill:#e17e3a;fill-opacity:1;fill-rule:evenodd;stroke:#000000;stroke-width:0.75590552;stroke-miterlimit:4;stroke-dasharray:none;stroke-opacity:1"
         d="m 328.89942,718.93931 c -0.94371,-0.22351 -1.86438,-0.55491 -2.04592,-0.73645 -0.18155,-0.18155 0.19396,-3.893 0.83447,-8.24767 1.41301,-9.60669 3.49187,-25.76808 3.97731,-30.92029 0.29084,-3.0868 0.2206,-3.76881 -0.38815,-3.76881 -0.40878,0 -6.04705,-1.73378 -12.52948,-3.85284 -13.0976,-4.28152 -19.18374,-7.02593 -32.5783,-14.6905 -11.90935,-6.8147 -14.10103,-7.52508 -16.7071,-5.41519 l -1.22722,0.99357 -0.3279,19.40997 c -0.30844,18.25768 -0.90163,26.00181 -2.04589,26.709 -0.63408,0.39189 -28.76766,-13.97977 -35.31427,-18.03981 -24.74868,-15.3485 -45.90112,-29.97784 -50.06699,-34.62709 -0.88101,-0.98323 -0.97331,-3.40611 -1.41348,-37.10325 -0.45633,-34.93421 -0.68084,-41.65379 -2.31617,-69.3208 -0.75576,-12.78612 -1.82131,-36.84402 -2.85499,-64.45958 -0.56796,-15.1735 -0.6216,-58.33342 -0.0822,-66.14269 l 0.33169,-4.80213 6.49795,3.9743 c 8.2141,5.02396 29.27117,16.06899 40.80707,21.40446 13.33743,6.16871 19.20979,8.1508 43.40625,14.65083 27.28178,7.32886 42.75616,12.12979 59.26123,18.38582 l 7.53761,2.85704 0.0496,63.31766 c 0.0514,65.59629 0.66357,107.20429 1.8244,124.00446 0.54586,7.90008 0.55101,13.30801 0.0272,28.59094 -0.85273,24.88042 -1.77622,38.42322 -2.61094,38.28862 -0.18149,-0.0293 -1.10211,-0.23607 -2.04583,-0.45957 z"
         id="path4280"
         transform="scale(0.26458333)" />
      <path
         style="fill:#ffffff;fill-rule:evenodd;stroke:#000000;stroke-width:0.75590552;stroke-miterlimit:4;stroke-dasharray:none"
         d="m 351.97273,490.58953 c -0.15917,-0.25754 -0.41638,-4.67995 -0.57158,-9.82759 l -0.28218,-9.35934 5.38531,-1.5516 c 2.96193,-0.85338 13.06683,-3.77166 22.45534,-6.48507 9.38852,-2.7134 21.01309,-5.85722 25.83238,-6.98627 l 8.76235,-2.05281 0.30409,5.65553 c 0.16726,3.11054 0.30541,6.73971 0.30701,8.06481 10e-4,1.32511 0.32092,3.01903 0.70959,3.76427 1.67764,3.21672 0.70862,3.90596 -10.73926,7.63865 -11.04068,3.59991 -25.05479,7.06444 -37.98866,9.39145 -11.30461,2.03388 -13.80697,2.34247 -14.17439,1.74797 z"
         id="path950"
         transform="scale(0.26458333)" />
      <path
         style="fill:#ffffff;fill-rule:evenodd;stroke:#000000;stroke-width:0.75590552;stroke-miterlimit:4;stroke-dasharray:none"
         d="m 448.16257,457.1338 c -0.68355,-0.42965 -1.58828,-1.36599 -2.0105,-2.08076 -1.05573,-1.7872 -1.0217,-6.79192 0.0609,-8.95906 0.79821,-1.59785 0.91508,-1.65335 3.34453,-1.58809 1.92986,0.0518 2.79716,0.32786 3.71598,1.18264 1.09289,1.01674 1.17849,1.37093 0.97104,4.01789 -0.15372,1.9613 -0.66854,3.72585 -1.58721,5.44017 -1.50077,2.80055 -2.49877,3.24179 -4.49475,1.98721 z"
         id="path989"
         transform="scale(0.26458333)" />
      <path
         style="fill:#ffffff;fill-rule:evenodd;stroke:#000000;stroke-width:0.75590552;stroke-miterlimit:4;stroke-dasharray:none"
         d="m 481.45541,441.13132 c -2.16268,-0.93999 -2.77733,-2.51199 -2.11097,-5.39884 0.50905,-2.20531 2.83417,-6.6686 3.47397,-6.6686 0.1682,0 0.79325,0.39468 1.38898,0.87708 0.98082,0.79422 1.07406,1.22926 0.98691,4.6049 -0.10992,4.25752 -0.79113,7.29914 -1.62869,7.27207 -0.3152,-0.0102 -1.26479,-0.31916 -2.1102,-0.68661 z"
         id="path1028"
         transform="scale(0.26458333)" />
    </g>
  </g>
</svg>
